SplineFontDB: 3.0
FontName: tengtelc
FullName: Tengwar Telcontar
FamilyName: Tengwar Telcontar
Weight: Regular
Copyright: Copyright (c) 2005-2009 by Johan Winge
UComments: "2009-12-17: Created." 
Version: 0.08
ItalicAngle: 0
UnderlinePosition: -204.8
UnderlineWidth: 102.4
Ascent: 1638
Descent: 410
LayerCount: 2
Layer: 0 0 "Back"  1
Layer: 1 0 "Fore"  0
NeedsXUIDChange: 1
XUID: [1021 598 1721805049 6126973]
OS2Version: 0
OS2_WeightWidthSlopeOnly: 0
OS2_UseTypoMetrics: 1
CreationTime: 1261075154
ModificationTime: 1261088393
OS2TypoAscent: 0
OS2TypoAOffset: 1
OS2TypoDescent: 0
OS2TypoDOffset: 1
OS2TypoLinegap: 0
OS2WinAscent: 0
OS2WinAOffset: 1
OS2WinDescent: 0
OS2WinDOffset: 1
HheadAscent: 0
HheadAOffset: 1
HheadDescent: 0
HheadDOffset: 1
OS2Vendor: 'PfEd'
DEI: 91125
LangName: 1033 "" "" "" "FontForge: Tengwar Telcontar 0.08" "" "" "" "" "" "Johan Winge" "" "http://freetengwar.sourceforge.net/" "http://freetengwar.sourceforge.net/" "Tengwar Telcontar is distributed under the terms of the GNU General Public License." "http://www.gnu.org/copyleft/gpl.html" 
Encoding: UnicodeBmp
Compacted: 1
UnicodeInterp: none
NameList: Adobe Glyph List
DisplaySize: 3000
AntiAlias: 1
FitToEm: 1
WinInfo: 0 28 12
BeginChars: 65946 702

StartChar: section
Encoding: 167 167 0
Width: 1470
VWidth: 0
Flags: HW
LayerCount: 2
Fore
SplineSet
81 554 m 0
 81 822 337 938 337 952 c 1
 336 959 248 1036 248 1199 c 0
 248 1244 248 1354 413 1489 c 0
 566 1615 723 1664 862 1664 c 0
 1082 1664 1222 1539 1222 1529 c 0
 1222 1494 1080 1394 1036 1394 c 0
 1017 1394 904 1521 685 1521 c 0
 581 1521 506 1490 499 1484 c 0
 479 1467 445 1400 445 1325 c 0
 445 807 1388 878 1388 338 c 0
 1388 83 1132 -45 1132 -55 c 0
 1132 -58 1223 -156 1223 -293 c 0
 1223 -382 1184 -487 1057 -592 c 0
 903 -718 747 -767 608 -767 c 0
 387 -767 247 -641 247 -632 c 0
 247 -597 389 -497 433 -497 c 0
 452 -497 565 -624 784 -624 c 0
 888 -624 964 -594 971 -588 c 0
 982 -578 1025 -517 1025 -428 c 0
 1025 87 81 23 81 554 c 0
1191 215 m 0
 1191 603 659 664 393 895 c 0
 387 900 385 902 381 902 c 0
 376 902 369 899 350 893 c 1
 337 877 278 808 278 681 c 0
 278 293 809 231 1072 5 c 0
 1080 -2 1082 -5 1088 -5 c 0
 1093 -5 1101 -2 1119 4 c 1
 1171 70 1191 141 1191 215 c 0
EndSplineSet
EndChar

StartChar: uni00B5
Encoding: 181 181 1
Width: 1152
VWidth: 0
Flags: HW
LayerCount: 2
Fore
SplineSet
266 967 m 0
 271 967 274 966 277 964 c 1
 282 655 327 183 669 145 c 0
 675 144 684 144 693 144 c 0
 722 144 758 147 762 150 c 0
 765 152 782 182 791 201 c 0
 867 365 872 602 874 836 c 1
 898 885 1016 967 1059 967 c 0
 1064 967 1068 967 1071 964 c 1
 1071 132 l 1
 1046 83 933 2 887 2 c 0
 882 2 877 3 874 5 c 1
 874 67 874 161 873 161 c 0
 870 161 712 -1 520 -1 c 0
 442 -1 358 26 277 101 c 1
 277 -708 l 1
 252 -757 137 -838 92 -838 c 0
 87 -838 83 -837 80 -835 c 1
 80 836 l 1
 103 881 221 967 266 967 c 0
EndSplineSet
EndChar

StartChar: multiply
Encoding: 215 215 2
Width: 1390
VWidth: 0
Flags: HW
LayerCount: 2
Fore
SplineSet
118 976 m 1
 121 1023 191 1093 235 1093 c 1
 695 634 l 1
 1155 1094 l 1
 1199 1091 1270 1025 1273 976 c 1
 812 516 l 1
 1273 56 l 1
 1270 12 1204 -58 1155 -61 c 1
 695 399 l 1
 235 -61 l 1
 191 -58 121 7 118 56 c 1
 578 516 l 1
 118 976 l 1
EndSplineSet
EndChar

StartChar: paragraph
Encoding: 182 182 3
Width: 1362
VWidth: 0
Flags: HW
LayerCount: 2
Fore
SplineSet
1018 1736 m 0
 1230 1736 1225 1736 1230 1731 c 1
 1230 -323 l 1
 1202 -379 1082 -454 1043 -454 c 0
 1039 -454 1035 -453 1033 -451 c 1
 1032 702 l 1
 987 670 945 647 924 635 c 1
 923 -325 l 1
 890 -383 779 -455 738 -455 c 0
 733 -455 729 -454 726 -451 c 1
 726 566 l 1
 694 562 663 559 633 559 c 0
 312 559 80 799 80 1104 c 0
 80 1441 480 1631 564 1666 c 0
 716 1729 807 1736 1018 1736 c 0
278 1221 m 0
 278 1003 424 762 726 708 c 1
 726 1593 l 1
 569 1590 427 1543 383 1499 c 0
 313 1429 278 1328 278 1221 c 0
1033 1593 m 1
 923 1593 l 1
 923 892 923 716 924 716 c 0
 931 716 980 733 998 744 c 0
 1006 749 1017 759 1033 777 c 1
 1033 1593 l 1
EndSplineSet
EndChar

StartChar: currency
Encoding: 164 164 4
Width: 1548
VWidth: 0
Flags: HW
LayerCount: 2
Fore
SplineSet
860 1144 m 0
 941 1144 1018 1123 1096 1085 c 1
 1288 1277 l 1
 1339 1273 1452 1158 1456 1109 c 1
 1273 926 1271 925 1271 924 c 0
 1271 923 1350 814 1350 657 c 0
 1350 559 1319 442 1218 321 c 1
 1456 82 l 1
 1452 31 1337 -82 1288 -86 c 1
 1036 165 l 1
 907 83 795 47 689 47 c 0
 608 47 531 68 453 106 c 1
 261 -86 l 1
 210 -82 97 33 93 82 c 1
 276 265 277 267 277 268 c 0
 277 269 199 378 199 534 c 0
 199 632 230 749 331 870 c 1
 93 1109 l 1
 97 1159 217 1277 262 1277 c 1
 513 1026 l 1
 642 1108 754 1144 860 1144 c 0
1151 532 m 0
 1151 804 926 1000 687 1000 c 0
 615 1000 533 981 508 955 c 0
 445 891 397 782 397 660 c 0
 397 396 614 191 862 191 c 0
 938 191 1016 212 1040 236 c 0
 1103 300 1151 410 1151 532 c 0
EndSplineSet
EndChar

StartChar: sterling
Encoding: 163 163 5
Width: 1548
VWidth: 0
Flags: HW
LayerCount: 2
Fore
SplineSet
925 0 m 0
 754 0 624 153 564 188 c 1
 560 188 468 79 332 24 c 0
 291 7 256 0 226 0 c 0
 124 0 80 81 80 149 c 0
 80 192 96 233 158 289 c 0
 313 428 453 429 496 431 c 1
 496 451 497 467 497 489 c 0
 497 543 491 630 448 886 c 1
 275 886 l 2
 184 886 184 887 184 893 c 0
 184 916 268 997 361 1029 c 1
 432 1030 l 1
 430 1053 429 1076 429 1100 c 0
 429 1238 464 1387 561 1505 c 0
 628 1587 807 1736 971 1736 c 0
 1151 1736 1218 1595 1218 1594 c 0
 1218 1564 1086 1460 1035 1460 c 0
 1027 1460 1021 1462 1018 1467 c 0
 960 1560 869 1593 796 1593 c 0
 730 1593 726 1581 699 1534 c 0
 644 1439 628 1332 628 1230 c 0
 628 1159 636 1090 644 1029 c 1
 835 1029 928 1031 973 1031 c 0
 1016 1031 1016 1029 1016 1022 c 0
 1016 999 930 919 838 887 c 1
 700 887 666 886 666 885 c 0
 666 882 695 729 695 602 c 0
 695 473 668 397 668 386 c 0
 668 383 685 384 811 285 c 0
 896 219 987 144 1104 144 c 0
 1298 144 1392 273 1457 273 c 0
 1459 273 1468 274 1468 266 c 0
 1468 221 1168 0 925 0 c 0
466 251 m 0
 466 253 399 287 327 287 c 0
 307 287 292 285 277 284 c 1
 277 203 330 144 394 144 c 0
 420 144 419 146 424 154 c 0
 438 177 466 242 466 251 c 0
EndSplineSet
EndChar

StartChar: degree
Encoding: 176 176 6
Width: 993
VWidth: 0
Flags: HW
LayerCount: 2
Fore
SplineSet
120 1347 m 0
 120 1589 328 1724 486 1724 c 0
 734 1724 872 1531 872 1347 c 0
 872 1141 708 971 496 971 c 0
 282 971 120 1143 120 1347 c 0
754 1347 m 0
 754 1476 659 1605 490 1605 c 0
 370 1605 238 1505 238 1347 c 0
 238 1208 346 1090 496 1090 c 0
 635 1090 754 1197 754 1347 c 0
EndSplineSet
EndChar

StartChar: guilsinglleft
Encoding: 8249 8249 7
Width: 687
VWidth: 0
Flags: HW
LayerCount: 2
Fore
SplineSet
547 -46 m 0
 547 -53 544 -56 539 -56 c 0
 525 -56 494 -28 463 26 c 0
 301 301 86 427 86 448 c 0
 86 465 306 607 450 849 c 0
 493 921 522 955 538 955 c 0
 545 955 547 950 547 943 c 0
 547 925 474 697 325 448 c 1
 483 185 547 -38 547 -46 c 0
EndSplineSet
EndChar

StartChar: guilsinglright
Encoding: 8250 8250 8
Width: 687
VWidth: 0
Flags: HW
LayerCount: 2
Fore
SplineSet
149 955 m 0
 167 955 197 918 238 849 c 0
 381 609 602 465 602 448 c 0
 602 428 386 301 224 26 c 0
 199 -16 163 -58 148 -58 c 0
 144 -58 141 -54 141 -46 c 0
 141 -29 211 195 363 448 c 1
 261 618 222 713 152 899 c 0
 136 939 140 955 149 955 c 0
EndSplineSet
EndChar

StartChar: trademark
Encoding: 8482 8482 9
Width: 1812
VWidth: 0
Flags: HW
LayerCount: 2
Fore
SplineSet
1059 1735 m 0
 1063 1735 1065 1735 1067 1733 c 0
 1080 1720 1318 1389 1321 1389 c 0
 1326 1389 1480 1606 1503 1632 c 0
 1547 1682 1638 1735 1671 1735 c 0
 1675 1735 1679 1734 1681 1732 c 1
 1681 892 l 1
 1656 843 1541 762 1496 762 c 0
 1491 762 1487 763 1484 765 c 1
 1484 1452 l 1
 1405 1344 1364 1290 1349 1274 c 0
 1302 1227 1222 1177 1188 1177 c 0
 1179 1177 1179 1180 1070 1329 c 1
 1069 891 l 1
 1035 832 922 762 883 762 c 0
 878 762 874 763 872 765 c 1
 872 1604 l 1
 905 1670 1024 1735 1059 1735 c 0
361 1593 m 1
 223 1593 148 1592 106 1592 c 0
 55 1592 55 1593 55 1600 c 0
 55 1632 179 1724 233 1735 c 0
 237 1736 659 1736 818 1736 c 0
 864 1736 864 1736 864 1729 c 0
 864 1706 779 1625 687 1593 c 1
 558 1593 l 1
 558 892 l 1
 533 843 418 762 373 762 c 0
 368 762 364 763 361 765 c 1
 361 1593 l 1
EndSplineSet
EndChar

StartChar: numbersign
Encoding: 35 35 10
Width: 1482
VWidth: 0
Flags: HW
LayerCount: 2
Fore
SplineSet
281 -314 m 0
 281 -305 306 -164 350 86 c 0
 350 87 264 87 178 87 c 2
 22 87 l 2
 -16 87 -18 89 -18 96 c 0
 -18 126 92 230 149 244 c 1
 378 248 l 1
 449 649 l 1
 81 651 81 647 81 659 c 0
 81 689 182 785 250 809 c 1
 478 809 l 1
 533 1108 l 1
 561 1150 681 1216 722 1216 c 0
 731 1216 735 1216 735 1204 c 0
 735 1177 712 1091 666 809 c 1
 943 809 l 1
 992 1085 993 1099 999 1108 c 0
 1024 1147 1142 1216 1189 1216 c 0
 1200 1216 1202 1211 1202 1210 c 0
 1202 1201 1176 1060 1132 810 c 1
 1500 808 1500 811 1500 801 c 0
 1500 771 1390 666 1333 652 c 1
 1104 649 l 1
 1033 248 l 2
 1033 247 1076 246 1397 246 c 1
 1399 244 1400 242 1400 239 c 0
 1400 208 1312 116 1232 88 c 1
 1005 87 l 1
 949 -212 l 1
 922 -253 802 -319 759 -319 c 0
 751 -319 747 -319 747 -308 c 0
 747 -282 769 -196 816 87 c 1
 539 87 l 1
 483 -211 l 1
 458 -250 340 -319 293 -319 c 0
 282 -319 281 -315 281 -314 c 0
844 247 m 1
 916 651 l 1
 638 650 l 1
 567 248 l 25
 844 247 l 1
EndSplineSet
EndChar

StartChar: dollar
Encoding: 36 36 11
Width: 1260
VWidth: 0
Flags: HW
LayerCount: 2
Fore
SplineSet
242 385 m 0
 262 385 311 196 553 129 c 1
 553 644 l 1
 376 685 150 730 150 965 c 0
 150 1208 510 1359 553 1370 c 1
 553 1521 l 1
 583 1592 688 1679 717 1679 c 0
 725 1679 726 1677 726 1633 c 0
 726 1596 725 1529 725 1406 c 1
 736 1408 771 1408 783 1408 c 0
 1039 1408 1161 1214 1161 1206 c 0
 1161 1174 1024 1071 975 1071 c 0
 967 1071 966 1074 959 1083 c 0
 865 1214 730 1248 726 1248 c 0
 725 1248 725 1207 725 1149 c 0
 725 1033 726 850 726 789 c 1
 997 730 1205 687 1205 452 c 0
 1205 181 818 25 725 0 c 1
 725 -143 l 1
 696 -210 593 -301 562 -301 c 0
 554 -301 552 -301 552 -247 c 0
 552 -208 553 -142 553 -29 c 1
 543 -30 533 -30 503 -30 c 0
 384 -30 175 7 54 248 c 1
 65 297 203 385 242 385 c 0
346 1092 m 0
 346 992 408 880 553 837 c 1
 553 1262 l 1
 512 1260 400 1240 385 1218 c 0
 360 1184 346 1139 346 1092 c 0
1007 328 m 0
 1007 526 825 573 727 603 c 0
 726 603 725 396 725 252 c 0
 725 175 725 115 726 115 c 0
 787 115 938 149 958 174 c 0
 990 213 1007 269 1007 328 c 0
EndSplineSet
EndChar

StartChar: fraction
Encoding: 8260 8260 12
Width: 1418
VWidth: 0
Flags: HW
LayerCount: 2
Fore
SplineSet
1357 1407 m 0
 1367 1407 1373 1405 1373 1400 c 0
 1373 1397 1371 1393 1367 1388 c 0
 1354 1371 255 34 252 31 c 0
 205 -18 99 -54 60 -54 c 0
 51 -54 45 -51 45 -47 c 0
 45 -45 46 -42 48 -39 c 0
 51 -34 1160 1316 1166 1322 c 0
 1211 1370 1317 1407 1357 1407 c 0
EndSplineSet
EndChar

StartChar: ampersand
Encoding: 38 38 13
Width: 1661
VWidth: 0
Flags: HW
LayerCount: 2
Fore
SplineSet
1632 986 m 0
 1632 971 1299 557 1155 401 c 1
 1197 318 1291 113 1473 113 c 0
 1514 113 1528 121 1568 154 c 0
 1620 197 1652 211 1667 211 c 0
 1674 211 1677 209 1677 204 c 0
 1677 164 1468 -30 1301 -30 c 0
 1072 -30 988 230 976 230 c 0
 969 230 693 -30 413 -30 c 0
 211 -30 77 146 77 344 c 0
 77 672 411 846 520 891 c 1
 495 911 442 959 442 1062 c 0
 442 1275 720 1439 855 1439 c 0
 1016 1439 1105 1343 1105 1224 c 0
 1105 1111 1025 978 851 888 c 1
 1024 776 1106 477 1120 477 c 0
 1122 477 1197 571 1275 669 c 0
 1446 886 1476 930 1577 979 c 0
 1620 1000 1632 994 1632 986 c 0
907 1091 m 0
 907 1199 831 1295 677 1295 c 2
 663 1295 l 1
 646 1259 638 1224 638 1191 c 0
 638 1076 732 983 855 983 c 0
 864 983 873 984 883 985 c 1
 899 1020 907 1056 907 1091 c 0
274 472 m 0
 274 270 416 112 602 112 c 0
 797.25625 112 948 287.940625 948 288 c 2
 948 288 856 501 802 591 c 0
 726 718 640 784 532 784 c 0
 483 784 430 774 391 757 c 0
 358 743 274 623 274 472 c 0
EndSplineSet
EndChar

StartChar: asterisk
Encoding: 42 42 14
Width: 1418
VWidth: 0
Flags: HW
LayerCount: 2
Fore
SplineSet
328 927 m 2
 227 927 227 928 227 935 c 0
 227 958 312 1038 404 1070 c 1
 560 1071 l 1
 508 1161 400 1347 400 1351 c 0
 400 1360 421 1364 450 1364 c 0
 502 1364 581 1351 620 1327 c 0
 642 1314 713 1174 717 1172 c 0
 719 1172 794 1303 795 1304 c 0
 828 1342 944 1379 992 1379 c 0
 1005 1379 1013 1376 1013 1370 c 0
 1013 1366 940 1240 842 1071 c 1
 1091 1071 l 2
 1192 1071 1192 1070 1192 1063 c 0
 1192 1040 1106 960 1014 928 c 1
 858 927 l 1
 911 836 1018 650 1018 646 c 0
 1018 636 999 632 973 632 c 0
 920 632 834 649 798 670 c 0
 778 682 710 819 702 826 c 1
 623 692 628 693 607 680 c 0
 555 645 464 618 424 618 c 0
 412 618 405 621 405 626 c 0
 405 634 453 713 576 927 c 1
 328 927 l 2
EndSplineSet
EndChar

StartChar: equal
Encoding: 61 61 15
Width: 1421
VWidth: 0
Flags: HW
LayerCount: 2
Fore
SplineSet
34 211 m 0
 34 240 149 346 202 360 c 0
 205 361 496 361 789 361 c 0
 1085 361 1381 361 1383 359 c 0
 1385 358 1386 356 1386 353 c 0
 1386 324 1273 218 1218 204 c 0
 1212 203 995 202 748 202 c 0
 420 202 40 203 38 205 c 0
 36 206 34 208 34 211 c 0
572 535 m 0
 34.05 535 34 531.875 34 544 c 0
 34 574 150 678 202 692 c 0
 208 693 555 694 872 694 c 0
 1138 694 1382 693 1383 692 c 0
 1385 691 1386 689 1386 686 c 0
 1386 657 1273 551 1218 537 c 0
 1212 536 882 535 572 535 c 0
EndSplineSet
EndChar

StartChar: figuredash
Encoding: 8210 8210 16
Width: 1421
VWidth: 0
Flags: HW
LayerCount: 2
Fore
SplineSet
572 369 m 0
 34.05 369 34 365.875 34 378 c 0
 34 408 150 512 202 526 c 0
 208 527 555 528 872 528 c 0
 1138 528 1382 527 1383 526 c 0
 1385 525 1386 523 1386 520 c 0
 1386 491 1273 385 1218 371 c 0
 1212 370 882 369 572 369 c 0
EndSplineSet
EndChar

StartChar: plus
Encoding: 43 43 17
Width: 1421
VWidth: 0
Flags: HW
LayerCount: 2
Fore
SplineSet
627 -213 m 0
 618 -213 616 -213 616 -132 c 0
 616 -57 618 88 618 369 c 1
 302 369 40 369 38 371 c 1
 35 372 34 375 34 378 c 0
 34 409 153 514 203 526 c 0
 208 528 215 528 339 528 c 2
 618 528 l 1
 618 964 l 1
 643 1017 757 1111 793 1111 c 0
 798 1111 801 1110 803 1106 c 0
 804 1105 804 838 804 528 c 1
 1120 528 1381 528 1383 526 c 1
 1386 525 1387 523 1387 520 c 0
 1387 490 1271 384 1218 371 c 0
 1213 369 1205 369 1078 369 c 2
 804 369 l 1
 803 -67 l 1
 773 -130 662 -213 627 -213 c 0
EndSplineSet
EndChar

StartChar: divide
Encoding: 247 247 18
Width: 1421
VWidth: 0
Flags: HW
LayerCount: 2
Fore
SplineSet
709 263 m 0
 731 263 755 230 825 160 c 0
 849 137 854 134 854 119 c 0
 854 102 857 110 743 -4 c 1
 725 -24 721 -24 709 -24 c 2
 707 -24 l 2
 696 -24 693 -20 595 79 c 0
 575 98 566 108 566 119 c 0
 566 130 576 141 595 160 c 0
 665 227 686 263 709 263 c 0
572 369 m 0
 34.05 369 34 365.875 34 378 c 0
 34 408 150 512 202 526 c 0
 208 527 555 528 872 528 c 0
 1138 528 1382 527 1383 526 c 0
 1385 525 1386 523 1386 520 c 0
 1386 491 1273 385 1218 371 c 0
 1212 370 882 369 572 369 c 0
709 921 m 0
 731 921 755 888 825 818 c 0
 849 795 854 792 854 777 c 0
 854 760 857 768 743 654 c 1
 725 634 721 634 709 634 c 2
 707 634 l 2
 696 634 693 638 595 737 c 0
 575 756 566 766 566 777 c 0
 566 788 576 799 595 818 c 0
 665 885 686 921 709 921 c 0
EndSplineSet
EndChar

StartChar: logicalnot
Encoding: 172 172 19
Width: 1421
VWidth: 0
Flags: HW
LayerCount: 2
Fore
SplineSet
1200 369 m 1
 841.666666667 369 483.333333333 369 125 369 c 0
 35 369 35 370 35 377 c 0
 35 407 145 511 202 526 c 0
 206 527 238 527 499 527 c 2
 1381 527 l 1
 1385 523 l 1
 1386 160 l 1
 1365 96 1244 13 1208 13 c 0
 1205 13 1202 13 1200 15 c 1
 1200 369 l 1
EndSplineSet
EndChar

StartChar: slash
Encoding: 47 47 20
Width: 1101
VWidth: 0
Flags: HW
LayerCount: 2
Fore
SplineSet
1040 1727 m 0
 1047 1727 1051 1725 1051 1721 c 0
 1051 1715 255 -335 253 -339 c 0
 222 -388 99 -446 61 -446 c 0
 54 -446 50 -444 50 -440 c 0
 50 -434 846 1616 848 1620 c 0
 878 1668 1002 1727 1040 1727 c 0
EndSplineSet
EndChar

StartChar: zero
Encoding: 48 48 21
Width: 1152
VWidth: 0
Flags: HW
LayerCount: 2
Fore
SplineSet
80 385 m 0
 80 705 453 927 656 927 c 0
 907 927 1071 731 1071 514 c 0
 1071 416 1037 313 963 223 c 0
 900 147 705 -30 488 -30 c 0
 249 -30 80 166 80 385 c 0
875 380 m 0
 875 583 718 784 488 784 c 0
 367 784 353 744 353 744 c 1
 301 677 277 597 277 518 c 0
 277 315 432 113 665 113 c 0
 701 113 735 119 766 129 c 0
 784 135 784 135 798 153 c 0
 851 221 875 301 875 380 c 0
EndSplineSet
EndChar

StartChar: uni2070
Encoding: 8304 8304 22
Width: 748
VWidth: 0
Flags: HW
LayerCount: 2
Fore
SplineSet
285 851 m 0
 133 851 18 976 18 1122 c 0
 18 1196 48 1276 117 1347 c 0
 160 1391 312 1523 460 1523 c 0
 619 1523 730 1398 730 1254 c 0
 730 1179 700 1099 631 1028 c 0
 576 972 429 851 285 851 c 0
533 1123 m 0
 533 1254 431 1380 285 1380 c 0
 245 1380 249 1378 241 1362 c 0
 223 1325 215 1288 215 1251 c 0
 215 1116 325 995 461 995 c 0
 505 995 500 997 508 1013 c 0
 525 1048 533 1085 533 1123 c 0
EndSplineSet
EndChar

StartChar: one
Encoding: 49 49 23
Width: 835
VWidth: 0
Flags: HW
LayerCount: 2
Fore
SplineSet
148 601 m 0
 142 601 138 604 138 610 c 0
 138 641 229 696 272 742 c 0
 320 793 322 812 364 848 c 0
 416 892 477 926 504 926 c 0
 509 926 513 925 515 923 c 1
 515 144 l 1
 685 144 l 2
 754 144 754 143 754 136 c 0
 754 113 668 33 576 1 c 1
 311 1 188 -2 131 -2 c 0
 82 -2 81 0 81 8 c 0
 81 31 165 111 258 143 c 1
 318 144 l 1
 318 330 318 516 318 702 c 1
 318 702 185 601 148 601 c 0
EndSplineSet
EndChar

StartChar: uni00B9
Encoding: 185 185 24
Width: 542
VWidth: 0
Flags: HW
LayerCount: 2
Fore
SplineSet
346 872 m 1
 256 872 166 872 76 872 c 0
 18 872 18 873 18 879 c 0
 18 900 85 964 172 1006 c 1
 172 1252 172 1314 171 1314 c 0
 170 1314 93 1262 65 1262 c 0
 59 1262 55 1264 55 1270 c 0
 55 1286 89 1320 127 1348 c 0
 165 1376 173 1404 208 1436 c 0
 245 1470 331 1525 360 1525 c 0
 365 1525 368 1523 369 1520 c 1
 369 1015 l 1
 480 1015 l 2
 524 1015 525 1014 525 1008 c 0
 525 974 398 882 346 872 c 1
EndSplineSet
EndChar

StartChar: two
Encoding: 50 50 25
Width: 1152
VWidth: 0
Flags: HW
LayerCount: 2
Fore
SplineSet
147 638 m 0
 140 638 137 641 137 646 c 0
 137 692 403 927 654 927 c 0
 771 927 917 886 917 724 c 0
 917 472 668 276 430 144 c 1
 834 143 1066 144 1069 142 c 0
 1070 141 1070 140 1070 138 c 0
 1070 116 990 25 889 0 c 1
 85 1 l 2
 84 2 81 4 81 8 c 0
 81 27 148 103 266 147 c 0
 494 232 578 291 628 351 c 0
 676 409 720 495 720 604 c 0
 720 712 619 783 497 783 c 0
 284 783 213 638 147 638 c 0
EndSplineSet
EndChar

StartChar: uni00B2
Encoding: 178 178 26
Width: 748
VWidth: 0
Flags: HW
LayerCount: 2
Fore
SplineSet
294 1380 m 0
 163 1380 126 1283 67 1283 c 0
 60 1283 57 1286 57 1291 c 0
 57 1333 265 1523 456 1523 c 0
 530 1523 631 1498 631 1394 c 0
 631 1273 557 1154 342 1015 c 1
 519 1015 615 1016 668 1016 c 0
 731 1016 731 1014 731 1007 c 0
 731 981 627 892 548 872 c 1
 22 872 l 1
 19 874 18 877 18 880 c 0
 18 911 128 990 195 1015 c 0
 276 1045 348 1079 370 1102 c 0
 409 1143 433 1204 433 1263 c 0
 433 1357 340 1380 294 1380 c 0
EndSplineSet
EndChar

StartChar: three
Encoding: 51 51 27
Width: 1152
VWidth: 0
Flags: HW
LayerCount: 2
Fore
SplineSet
1071 -149 m 0
 1071 -544.128125 625.346875 -871 285 -871 c 0
 205 -871 80 -847 80 -831 c 0
 80 -801 220 -696 267 -696 c 0
 279 -696 348 -728 458 -728 c 0
 570 -728 660 -696 699 -670 c 0
 761 -629 874 -472 874 -266 c 0
 874 -30 679 134 470 134 c 0
 394 134 339 108 319 108 c 0
 314 108 311 110 311 115 c 0
 311 141 409 222 479 248 c 0
 533 268 624 301 687 445 c 0
 708 494 720 551 720 602 c 0
 720 725 604 783 497 783 c 0
 284 783 213 638 147 638 c 0
 141 638 138 641 138 646 c 0
 138 692 400 927 658 927 c 0
 844 927 918 826 918 732 c 0
 918 550 805 405 643 278 c 1
 919 268 1071 78 1071 -149 c 0
EndSplineSet
EndChar

StartChar: uni00B3
Encoding: 179 179 28
Width: 748
VWidth: 0
Flags: HW
LayerCount: 2
Fore
SplineSet
730 1028 m 0
 730 868 445 640 149 640 c 0
 130 640 18 645 18 662 c 0
 18 693 155 797 204 797 c 0
 211 797 261 784 331 784 c 0
 382 784 444 791 507 815 c 1
 525 845 533 872 533 898 c 0
 533 999 410 1065 274 1065 c 0
 233 1065 196 1054 178 1054 c 0
 171 1054 167 1056 167 1061 c 0
 167 1085 267 1176 352 1198 c 0
 394 1209 414 1217 421 1220 c 1
 429 1236 433 1250 433 1263 c 0
 433 1314 372 1339 293 1339 c 0
 155 1339 99 1274 66 1274 c 0
 61 1274 59 1277 59 1282 c 0
 59 1320 206 1483 456 1483 c 0
 558 1483 631 1448 631 1396 c 0
 631 1295 500 1213 500 1206 c 0
 500 1203 613 1200 687 1127 c 0
 716 1098 730 1068 730 1028 c 0
EndSplineSet
EndChar

StartChar: four
Encoding: 52 52 29
Width: 1311
VWidth: 0
Flags: HW
LayerCount: 2
Fore
SplineSet
726 0 m 1
 196 0 255 -1 137 -1 c 2
 115 -1 l 2
 93 -1 81 0 81 9 c 0
 81 12 83 17 87 23 c 0
 94 34 741 818 752 829 c 0
 806 884 883 926 913 926 c 0
 918 926 921 925 923 923 c 1
 923 144 l 1
 1047 144 1121 145 1165 145 c 0
 1227 145 1230 143 1230 136 c 0
 1230 113 1145 33 1053 1 c 1
 923 0 l 1
 923 -636 l 1
 894 -695 775 -766 736 -766 c 0
 731 -766 728 -765 726 -763 c 1
 726 0 l 1
726 144 m 1
 726 671 l 1
 292 144 l 1
 726 144 l 1
EndSplineSet
EndChar

StartChar: uni2074
Encoding: 8308 8308 30
Width: 851
VWidth: 0
Flags: HW
LayerCount: 2
Fore
SplineSet
634 1131 m 1
 765 1131 l 2
 834 1131 834 1130 834 1123 c 0
 834 1101 721 990 634 987 c 1
 634 895 635 838 635 801 c 0
 635 728 631 734 607 710 c 0
 570 672 484 614 449 614 c 0
 444 614 440 615 437 618 c 1
 437 988 l 1
 22 988 l 1
 20 990 18 993 18 997 c 0
 18 1005 25 1016 43 1034 c 0
 52 1043 476 1429 487 1438 c 0
 528 1473 596 1513 623 1513 c 0
 633 1513 635 1513 635 1446 c 0
 635 1393 634 1299 634 1131 c 1
437 1131 m 1
 437 1192 436 1190 436 1309 c 1
 241 1131 l 1
 437 1131 l 1
EndSplineSet
EndChar

StartChar: five
Encoding: 53 53 31
Width: 1072
VWidth: 0
Flags: HW
LayerCount: 2
Fore
SplineSet
301 265 m 0
 186 265 127 196 94 196 c 0
 89 196 84 198 80 202 c 1
 80 765 l 1
 104 811 199 879 262 896 c 1
 801 896 869 898 936 898 c 0
 992 898 992 896 992 889 c 0
 992 866 907 785 815 753 c 1
 277 753 l 1
 277 359 l 1
 336 386 394 408 481 408 c 0
 656 408 863 277 863 15 c 0
 863 -538 146 -839 90 -839 c 0
 84 -839 81 -837 81 -832 c 0
 81 -806 171 -728 247 -700 c 0
 319 -673 376 -643 420 -610 c 0
 548 -514 666 -326 666 -107 c 0
 666 123 478 265 301 265 c 0
EndSplineSet
EndChar

StartChar: six
Encoding: 54 54 32
Width: 1231
VWidth: 0
Flags: HW
LayerCount: 2
Fore
SplineSet
575 783 m 0
 434 783 393 696 331 696 c 0
 308 696 326 722 347 743 c 0
 375 771 567 927 750 927 c 0
 945 927 1150 787 1150 555 c 0
 1150 388 1058 246 900 128 c 0
 753 17 615 -31 497 -31 c 0
 246 -31 80 184 80 463 c 0
 80 533 83 911 418 1288 c 0
 619 1513 894 1664 935 1664 c 0
 941 1664 945 1661 945 1655 c 0
 945 1636 903 1587 798 1532 c 0
 549 1402 278 1012 278 586 c 0
 278 339 431 113 662 113 c 0
 747 113 829 138 853 163 c 0
 914 228 953 327 953 426 c 0
 953 638 766 783 575 783 c 0
EndSplineSet
EndChar

StartChar: seven
Encoding: 55 55 33
Width: 1231
VWidth: 0
Flags: HW
LayerCount: 2
Fore
SplineSet
171 752 m 0
 81 752 81 753 81 760 c 0
 81 792 204 884 259 895 c 1
 1090 897 l 2
 1151 897 1151 896 1151 889 c 0
 1151 880 447 -718 445 -721 c 0
 417 -762 300 -840 265 -840 c 0
 259 -840 255 -838 255 -832 c 0
 255 -828 491 -291 949 753 c 1
 249 753 327 752 171 752 c 0
EndSplineSet
EndChar

StartChar: eight
Encoding: 56 56 34
Width: 1231
VWidth: 0
Flags: HW
LayerCount: 2
Fore
SplineSet
1151 508 m 0
 1151 365 1063 204 849 72 c 0
 734 0 623 -30 522 -30 c 0
 267 -30 80 166 80 380 c 0
 80 501 129 594 254 702 c 0
 361 794 468 847 468 851 c 0
 468 860 182 971 182 1216 c 0
 182 1310 227 1410 329 1498 c 0
 467 1616 599 1664 711 1664 c 0
 910 1664 1048 1514 1048 1350 c 0
 1048 1187 942 1067 754 941 c 1
 797 904 1151 797 1151 508 c 0
851 1219 m 0
 851 1393 701 1521 531 1521 c 0
 498 1521 464 1516 430 1506 c 1
 406 1470 380 1424 380 1347 c 0
 380 1139 573 1039 697 971 c 1
 721 985 851 1040 851 1219 c 0
278 512 m 0
 278 294 467 113 704 113 c 0
 774 113 843 134 862 146 c 0
 880 158 953 254 953 384 c 0
 953 618 720 720 534 816 c 1
 415 755 278 708 278 512 c 0
EndSplineSet
EndChar

StartChar: nine
Encoding: 57 57 35
Width: 1231
VWidth: 0
Flags: HW
LayerCount: 2
Fore
SplineSet
741 927 m 0
 985 927 1150 712 1150 430 c 0
 1150 312 1123 -135 679 -524 c 0
 515 -667 329 -768 297 -768 c 0
 292 -768 285 -766 285 -760 c 0
 285 -737 349 -679 434 -635 c 0
 719 -487 953 -74 953 311 c 0
 953 557 799 783 568 783 c 0
 483 783 401 758 377 733 c 0
 316 668 278 570 278 471 c 0
 278 258 466 113 657 113 c 0
 766 113 796 157 856 186 c 0
 899 207 912 202 911 192 c 0
 907 152 674 -30 481 -30 c 0
 276 -30 80 119 80 342 c 0
 80 672 483 927 741 927 c 0
EndSplineSet
EndChar

StartChar: at
Encoding: 64 64 36
Width: 1802
VWidth: 0
Flags: HW
LayerCount: 2
Fore
SplineSet
815 1252 m 0
 411 1252 241 1007 173 1007 c 0
 166 1007 163 1010 163 1015 c 0
 163 1063 358 1203 450 1256 c 0
 584 1334 768 1411 981 1411 c 0
 1376 1411 1640 1053 1640 662 c 0
 1640 360 1498 212 1414 137 c 0
 1294 30 1213 0 1163 0 c 0
 1038 0 962.5 135 952 151 c 5
 928.5 130 758 -30 516 -30 c 0
 399 -30 286 39 286 162 c 0
 286 219 295 309 465 445 c 0
 602 555 661 565 712 637 c 1
 672 695 631 738 577 738 c 0
 555 738 528 720 528 738 c 0
 528 770 650 896 747 896 c 0
 859 896 926 762 1088 396 c 0
 1133 293 1215 160 1328 160 c 0
 1338 160 1348 161 1358 163 c 1
 1382 198 1454 305 1454 520 c 0
 1454 915 1182 1252 815 1252 c 0
747 579 m 1
 734.5 568.5 738 569 615 487 c 0
 575 460 483 417 483 291 c 0
 483 184 584 113 695 113 c 0
 861 113 889 176 916 219 c 1
 875 311 765 552 747 579 c 1
EndSplineSet
EndChar

StartChar: A
Encoding: 65 65 37
Width: 1553
VWidth: 0
Flags: HW
LayerCount: 2
Fore
SplineSet
227 1446 m 0
 227 1477 406 1667 550 1667 c 0
 671 1667 786 1566 854 1463 c 0
 1060 1151 1431 25 1602 25 c 0
 1616 25 1641 39 1641 22 c 0
 1641 -12 1484 -129 1419 -129 c 0
 1326 -129 1232 163 1213 183 c 1
 1213 183 1204 181 1189 181 c 1
 1045 263 884 305 724 305 c 0
 592 305 460 276 339 216 c 1
 295 162 241 101 223 84 c 0
 176 39 76 1 36 1 c 0
 25 1 19 4 19 10 c 0
 19 35 83 75 180 196 c 0
 617 745 656 1308 666 1334 c 1
 598 1409 492 1490 376 1490 c 0
 296 1490 306 1460 249 1441 c 0
 240 1438 227 1435 227 1446 c 0
798 1122 m 0
 789 1122 717 725 427 332 c 1
 620 426 784 449 902 449 c 0
 1019 449 1092 426 1105 426 c 0
 1106 426 1107 427 1107 427 c 1
 1107 438 811 1122 798 1122 c 0
EndSplineSet
EndChar

StartChar: B
Encoding: 66 66 38
Width: 1311
VWidth: 0
Flags: HW
LayerCount: 2
Fore
SplineSet
305 1664 m 0
 785 1664 1087 1593 1087 1307 c 0
 1087 1167 1009 1057 793 935 c 1
 808 924 1230 897 1230 548 c 0
 1230 400 1157 289 988 177 c 0
 849 85 684 0 103 0 c 0
 83 0 84 1 80 5 c 1
 80 1533 l 1
 105 1584 212 1653 257 1663 c 0
 261 1664 279 1664 305 1664 c 0
277 968 m 1
 475 968 696 974 849 1035 c 1
 861 1053 890 1094 890 1183 c 0
 890 1453 573 1508 277 1518 c 1
 277 968 l 1
277 144 m 1
 628 144 799 170 918 210 c 0
 976 230 976 233 993 262 c 0
 1018 303 1032 357 1032 420 c 0
 1032 758 642 808 277 822 c 1
 277 144 l 1
EndSplineSet
EndChar

StartChar: C
Encoding: 67 67 39
Width: 1470
VWidth: 0
Flags: HW
LayerCount: 2
Fore
SplineSet
857 1664 m 0
 1160 1664 1277 1430 1277 1423 c 0
 1277 1390 1138 1288 1090 1288 c 0
 1076 1288 1061 1345 981 1413 c 0
 884 1495 778 1521 688 1521 c 0
 590 1521 512 1490 486 1467 c 0
 410 1398 278 1198 278 893 c 0
 278 530 452 113 824 113 c 0
 902 113 1013 134 1061 182 c 0
 1170 291 1190 444 1195 453 c 0
 1217 498 1343 578 1379 578 c 0
 1385 578 1389 576 1389 571 c 0
 1389 561 1376 505 1360 464 c 0
 1269 222 951 -30 650 -30 c 0
 511 -30 375 24 267 158 c 0
 152 301 80 525 80 756 c 0
 80 1392 601 1664 857 1664 c 0
EndSplineSet
EndChar

StartChar: Euro
Encoding: 8364 8364 40
Width: 1753
VWidth: 0
Flags: HW
LayerCount: 2
Fore
SplineSet
531 581 m 1
 531 579 659 113 1070 113 c 0
 1152 113 1276 137 1332 188 c 0
 1441 288 1475 446 1479 453 c 0
 1504 502 1630 578 1664 578 c 0
 1669 578 1673 576 1673 572 c 0
 1673 560 1623 283 1260 75 c 0
 1134 3 1013 -30 900 -30 c 0
 600 -30 366 207 302 581 c 1
 4 582 l 1
 3 584 2 586 2 589 c 0
 2 624 116 708 182 725 c 1
 286 725 l 1
 286 730 l 2
 286 793 286 858 302 940 c 1
 216 940 167 939 138 939 c 0
 99 939 99 941 99 948 c 0
 99 970 216 1083 301 1083 c 2
 342 1083 l 1
 380 1180 425 1266 511 1361 c 0
 632 1494 867 1664 1105 1664 c 0
 1432 1664 1554 1423 1554 1423 c 1
 1554 1391 1414 1288 1366 1288 c 0
 1360 1288 1358 1291 1351 1302 c 0
 1238 1467 1071 1520 931 1520 c 0
 838 1520 758 1497 713 1466 c 0
 588 1380 503 1121 503 1085 c 0
 503 1084 620 1083 1086 1083 c 1
 1087 1081 1088 1079 1088 1076 c 0
 1088 1040 975 957 908 940 c 1
 484 940 l 1
 484 746 497 747 497 725 c 1
 705 725 825 726 895 726 c 0
 991 726 991 724 991 717 c 0
 991 692 888 601 809 581 c 1
 531 581 l 1
EndSplineSet
EndChar

StartChar: D
Encoding: 68 68 41
Width: 1311
VWidth: 0
Flags: HW
LayerCount: 2
Fore
SplineSet
282 1664 m 0
 740 1664 1230 1478 1230 825 c 0
 1230 626 1180 386 833 176 c 0
 583 24 319 2 85 1 c 1
 80 5 l 1
 80 1533 l 1
 98 1567 202 1664 282 1664 c 0
277 144 m 1
 324 144 620 144 822 238 c 0
 974 308 1032 518 1032 693 c 0
 1032 1184 748 1458 277 1511 c 1
 277 144 l 1
EndSplineSet
EndChar

StartChar: E
Encoding: 69 69 42
Width: 1152
VWidth: 0
Flags: HW
LayerCount: 2
Fore
SplineSet
277 144 m 1
 980 144 l 2
 1071 144 1071 143 1071 136 c 0
 1071 111 981 31 894 1 c 1
 85 1 l 1
 80 5 l 1
 80 1533 l 1
 105 1584 212 1653 257 1663 c 0
 258 1663 945 1665 945 1665 c 2
 990 1665 992 1664 992 1657 c 0
 992 1634 907 1553 815 1521 c 1
 277 1521 l 1
 277 968 l 1
 530 968 649 971 705 971 c 0
 754 971 754 969 754 961 c 0
 754 938 668 857 576 825 c 1
 277 825 l 1
 277 144 l 1
EndSplineSet
EndChar

StartChar: G
Encoding: 71 71 43
Width: 1311
VWidth: 0
Flags: HW
LayerCount: 2
Fore
SplineSet
527 -30 m 0
 170 -30 81 412 81 766 c 0
 81 1074 187 1378 504 1570 c 0
 619 1639 720 1666 806 1666 c 0
 1053 1666 1179 1450 1179 1424 c 0
 1179 1391 1038 1288 992 1288 c 0
 989 1288 986 1289 984 1290 c 1
 970 1317 962 1335 941 1363 c 0
 885 1440 770 1522 630 1522 c 0
 583 1522 533 1513 481 1491 c 1
 320 1329 278 1066 278 888 c 0
 278 590 351 113 708 113 c 0
 770 113 837 126 886 150 c 0
 927 170 1033 308 1033 493 c 0
 1033 573 1013 661 960 753 c 1
 837 753 772 752 736 752 c 0
 694 752 694 753 694 760 c 0
 694 786 784 866 871 896 c 1
 1150 896 l 1
 1151 895 1230 788 1230 615 c 0
 1230 393 1082 193 845 59 c 0
 761 11 658 -30 527 -30 c 0
EndSplineSet
EndChar

StartChar: H
Encoding: 72 72 44
Width: 1152
VWidth: 0
Flags: HW
LayerCount: 2
Fore
SplineSet
265 1664 m 0
 270 1664 274 1663 277 1660 c 1
 277 968 l 1
 874 968 l 1
 874 1533 l 1
 902 1590 1022 1663 1061 1663 c 0
 1065 1663 1069 1662 1071 1660 c 1
 1071 132 l 1
 1049 86 935 2 887 2 c 0
 882 2 877 3 874 5 c 1
 874 825 l 1
 277 825 l 1
 277 132 l 1
 253 84 140 2 93 2 c 0
 88 2 83 3 80 5 c 1
 80 1533 l 1
 104 1580 222 1664 265 1664 c 0
EndSplineSet
EndChar

StartChar: I
Encoding: 73 73 45
Width: 913
VWidth: 0
Flags: HW
LayerCount: 2
Fore
SplineSet
358 1521 m 1
 239 1521 172 1520 133 1520 c 0
 81 1520 81 1522 81 1528 c 0
 81 1560 204 1652 259 1663 c 0
 265 1665 787 1665 787 1665 c 2
 833 1665 833 1664 833 1657 c 0
 833 1634 748 1553 656 1521 c 1
 556 1521 l 1
 556 144 l 1
 677 144 746 145 784 145 c 0
 833 145 833 143 833 136 c 0
 833 113 748 33 656 1 c 1
 423 1 284 0 202 -0 c 0
 81 0 81 2 81 8 c 0
 81 31 166 111 258 143 c 1
 358 144 l 1
 358 1521 l 1
EndSplineSet
EndChar

StartChar: J
Encoding: 74 74 46
Width: 1231
VWidth: 0
Flags: HW
LayerCount: 2
Fore
SplineSet
1150 1010 m 2
 1150 686 1150 528 1148 515 c 0
 1130 362 1058 251 952 158 c 0
 850 69 697 -30 527 -30 c 0
 206 -30 81 251 81 269 c 0
 81 302 220 405 269 405 c 0
 275 405 277 402 281 392 c 0
 360 207 545 112 704 112 c 0
 751 112 796 120 835 137 c 0
 856 146 934 238 951 392 c 0
 953 412 953 460 953 1521 c 1
 546 1521 591 1520 501 1520 c 0
 442 1520 442 1521 442 1528 c 0
 442 1560 565 1652 620 1663 c 1
 620 1663 790 1665 938 1665 c 0
 1048 1665 1146 1664 1150 1660 c 1
 1150 1010 l 2
EndSplineSet
EndChar

StartChar: K
Encoding: 75 75 47
Width: 1231
VWidth: 0
Flags: HW
LayerCount: 2
Fore
SplineSet
1063 1656 m 0
 1063 1641 1063 1646 519 1039 c 1
 1151 140 1151 141 1151 136 c 0
 1151 102 1010 0 965 0 c 0
 954 0 960 -3 656 430 c 0
 446 730 356 856 355 856 c 0
 354 856 353 854 277 770 c 1
 277 132 l 1
 253 84 140 2 93 2 c 0
 88 2 83 3 80 5 c 1
 80 1533 l 1
 104 1580 222 1664 265 1664 c 0
 270 1664 274 1663 277 1660 c 1
 278 883 l 1
 588 1228 881 1556 897 1572 c 0
 939 1613 1024 1664 1053 1664 c 0
 1059 1664 1063 1662 1063 1656 c 0
EndSplineSet
EndChar

StartChar: L
Encoding: 76 76 48
Width: 1152
VWidth: 0
Flags: HW
LayerCount: 2
Fore
SplineSet
277 144 m 1
 980 144 l 2
 1071 144 1071 143 1071 136 c 0
 1071 111 981 31 894 1 c 1
 85 1 l 1
 80 5 l 1
 80 1533 l 1
 104 1580 222 1664 265 1664 c 0
 270 1664 274 1663 277 1660 c 1
 277 144 l 1
EndSplineSet
EndChar

StartChar: M
Encoding: 77 77 49
Width: 1390
VWidth: 0
Flags: HW
LayerCount: 2
Fore
SplineSet
268 1663 m 0
 272 1663 274 1663 276 1661 c 0
 282 1655 733 1043 740 1035 c 1
 1037 1436 1115 1544 1138 1567 c 0
 1164 1593 1256 1663 1297 1663 c 0
 1302 1663 1306 1662 1309 1660 c 1
 1309 132 l 1
 1279 73 1163 2 1123 2 c 0
 1118 2 1114 3 1112 5 c 1
 1111 1383 l 1
 1034 1278 780 935 779 934 c 0
 740 887 641 825 606 825 c 0
 597 825 585 845 278 1259 c 1
 277 131 l 1
 256 89 140 2 93 2 c 0
 88 2 83 3 80 5 c 1
 80 1533 l 1
 111 1594 232 1663 268 1663 c 0
EndSplineSet
EndChar

StartChar: N
Encoding: 78 78 50
Width: 1231
VWidth: 0
Flags: HW
LayerCount: 2
Fore
SplineSet
268 1663 m 0
 272 1663 274 1663 276 1661 c 0
 279 1658 620 1064 953 483 c 1
 954 1533 l 1
 981 1588 1101 1663 1140 1663 c 0
 1144 1663 1148 1662 1150 1660 c 1
 1150 132 l 1
 1119 70 997 1 963 1 c 0
 959 1 956 1 955 3 c 0
 953 6 599 623 278 1182 c 1
 277 131 l 1
 256 89 140 2 93 2 c 0
 88 2 83 3 80 5 c 1
 80 1533 l 1
 113 1599 233 1663 268 1663 c 0
EndSplineSet
EndChar

StartChar: O
Encoding: 79 79 51
Width: 1470
VWidth: 0
Flags: HW
LayerCount: 2
Fore
SplineSet
1388 881 m 0
 1388 237 904 -30 647 -30 c 0
 282 -30 80 354 80 752 c 0
 80 1410 581 1664 814 1664 c 0
 1206 1664 1388 1255 1388 881 c 0
1191 753 m 0
 1191 1168 974 1521 647 1521 c 0
 594 1521 540 1511 499 1493 c 0
 441 1467 278 1232 278 881 c 0
 278 466 495 113 822 113 c 0
 875 113 929 123 970 141 c 0
 1028 167 1191 402 1191 753 c 0
EndSplineSet
EndChar

StartChar: Q
Encoding: 81 81 52
Width: 1470
VWidth: 0
Flags: HW
LayerCount: 2
Fore
SplineSet
814 1664 m 0
 1206 1664 1389 1256 1389 881 c 0
 1389 606 1300 344 1089 162 c 1
 1281 -170 1281 -170 1281 -175 c 0
 1281 -205 1147 -309 1092 -309 c 0
 1081 -309 898 22 891 29 c 1
 891 29 783 -30 642 -30 c 0
 305 -30 80 324 80 753 c 0
 80 1412 583 1664 814 1664 c 0
1192 752 m 0
 1192 1143 989 1521 647 1521 c 0
 594 1521 540 1511 499 1493 c 0
 441 1467 278 1232 278 881 c 0
 278 543 442 113 825 113 c 0
 835 113 841 114 841 114 c 1
 841 116 813 164 739 293 c 0
 651 445 636 470 636 478 c 0
 636 503 772 610 823 610 c 0
 839 610 910 464 1050 229 c 1
 1147 381 1192 568 1192 752 c 0
EndSplineSet
EndChar

StartChar: R
Encoding: 82 82 53
Width: 1311
VWidth: 0
Flags: HW
LayerCount: 2
Fore
SplineSet
305 1664 m 0
 785 1664 1087 1593 1087 1307 c 0
 1087 1211 1053 1139 978 1067 c 0
 846 939 685 889 685 888 c 2
 685 888 1230 142 1230 136 c 0
 1230 100 1085 0 1044 -0 c 0
 1041 0 1040 0 1038 1 c 0
 1032 3 430 837 425 837 c 2
 277 827 l 1
 277 132 l 1
 253 84 140 2 93 2 c 0
 88 2 83 3 80 5 c 1
 80 1533 l 1
 105 1584 212 1653 257 1663 c 0
 261 1664 279 1664 305 1664 c 0
277 968 m 1
 475 968 696 974 849 1035 c 1
 861 1053 890 1094 890 1183 c 0
 890 1453 573 1508 277 1518 c 1
 277 968 l 1
EndSplineSet
EndChar

StartChar: copyright
Encoding: 169 169 54
Width: 2022
VWidth: 0
Flags: HW
LayerCount: 2
Fore
SplineSet
926 417 m 0
 690 417 555 627 555 827 c 0
 555 1157 912 1366 1092 1366 c 0
 1223 1366 1289 1297 1289 1294 c 0
 1289 1260 1151 1158 1102 1158 c 0
 1087 1158 1033 1223 925 1223 c 0
 899 1223 870 1219 838 1210 c 1
 779 1135 752 1045 752 956 c 0
 752 755 890 561 1102 561 c 0
 1139 561 1160 565 1195 576 c 1
 1246 630 1338 686 1369 686 c 0
 1375 686 1379 684 1379 678 c 0
 1379 649 1154 417 926 417 c 0
1902 885 m 0
 1902 415 1516 1 1011 1 c 0
 524 1 120 391 120 898 c 0
 120 1316 437 1753 979 1782 c 1
 1599 1782 1902 1307 1902 885 c 0
1783 892 m 0
 1783 1338 1421 1664 1013 1664 c 0
 587 1664 239 1325 239 892 c 0
 239 458 591 119 1011 119 c 0
 1423 119 1783 448 1783 892 c 0
EndSplineSet
EndChar

StartChar: registered
Encoding: 174 174 55
Width: 2022
VWidth: 0
Flags: HW
LayerCount: 2
Fore
SplineSet
649 458 m 0
 649 732.333333333 649 1006.66666667 649 1281 c 1
 674 1331 783 1402 827 1411 c 1
 1135 1411 1332 1375 1332 1196 c 0
 1332 1024 1111 936 1105 925 c 1
 1105 919 1417 501 1417 491 c 0
 1417 458 1276 355 1232 355 c 0
 1229 355 1226 356 1224 357 c 0
 1219 361 862 856 857 857 c 0
 855 857 849 856 847 856 c 1
 847 488 l 1
 818 430 697 356 660 356 c 0
 650 356 649 356 649 458 c 0
1136 1072 m 0
 1136 1174 1045 1246 847 1262 c 1
 847 993 l 1
 935 994 1007 995 1083 1007 c 0
 1134 1015 1128 1016 1130 1026 c 0
 1134 1042 1136 1057 1136 1072 c 0
1902 885 m 0
 1902 415 1516 1 1011 1 c 0
 524 1 120 391 120 898 c 0
 120 1316 437 1753 979 1782 c 1
 1599 1782 1902 1307 1902 885 c 0
1783 892 m 0
 1783 1338 1421 1664 1013 1664 c 0
 587 1664 239 1325 239 892 c 0
 239 458 591 119 1011 119 c 0
 1423 119 1783 448 1783 892 c 0
EndSplineSet
EndChar

StartChar: U
Encoding: 85 85 56
Width: 1231
VWidth: 0
Flags: HW
LayerCount: 2
Fore
SplineSet
266 1663 m 0
 271 1663 275 1662 277 1660 c 1
 277 1083 l 2
 277 843 277 672 278 658 c 0
 290 377 451 113 696 113 c 0
 732 113 770 119 810 131 c 1
 914 250 947 408 952 531 c 0
 953 546 953 799 953 1068 c 2
 953 1533 l 1
 981 1590 1101 1663 1140 1663 c 0
 1144 1663 1148 1662 1150 1660 c 1
 1150 914 l 2
 1150 656.867218051 1193.70191895 320.801279303 825 75 c 0
 673 -27 571 -30 527 -30 c 0
 260 -30 112 223 85 473 c 0
 81 512 80 582 80 994 c 2
 80 1532 l 1
 106 1586 226 1663 266 1663 c 0
EndSplineSet
EndChar

StartChar: V
Encoding: 86 86 57
Width: 1390
VWidth: 0
Flags: HW
LayerCount: 2
Fore
SplineSet
81 1531 m 0
 81 1560 221 1665 267 1665 c 0
 270 1665 273 1664 275 1663 c 0
 279 1660 711 351 716 342 c 1
 1114 1533 1113 1533 1115 1538 c 0
 1135 1583 1265 1665 1300 1665 c 0
 1306 1665 1309 1663 1309 1658 c 0
 1309 1648 791 96 791 95 c 0
 771 54 647 -31 608 -31 c 0
 604 -31 601 -30 599 -28 c 0
 597 -26 81 1519 81 1531 c 0
EndSplineSet
EndChar

StartChar: X
Encoding: 88 88 58
Width: 1311
VWidth: 0
Flags: HW
LayerCount: 2
Fore
SplineSet
81 8 m 0
 81 19 82 16 553 771 c 1
 550 780 81 1520 81 1529 c 0
 81 1565 225 1664 267 1664 c 0
 270 1664 272 1664 274 1663 c 1
 694 995 l 1
 1043 1549 l 1
 1079 1598 1188 1664 1221 1664 c 0
 1227 1664 1230 1662 1230 1657 c 0
 1230 1646 1228 1649 757 894 c 1
 1230 136 l 1
 1230 102 1090 0 1045 0 c 0
 1042 0 1039 1 1037 2 c 1
 616 670 l 1
 268 115 l 1
 235 70 124 1 91 1 c 0
 85 1 81 3 81 8 c 0
EndSplineSet
EndChar

StartChar: Y
Encoding: 89 89 59
Width: 1311
VWidth: 0
Flags: HW
LayerCount: 2
Fore
SplineSet
81 1530 m 0
 81 1565 225 1664 267 1664 c 0
 270 1664 272 1664 274 1663 c 0
 280 1660 696 1046 698 1046 c 0
 699 1046 752 1124 1039 1544 c 0
 1071 1590 1185 1664 1220 1664 c 0
 1226 1664 1230 1662 1230 1656 c 0
 1230 1647 1230 1650 753 953 c 1
 753 132 l 1
 723 73 607 2 567 2 c 0
 562 2 558 3 556 5 c 1
 556 830 l 1
 92 1509 81 1528 81 1530 c 0
EndSplineSet
EndChar

StartChar: yen
Encoding: 165 165 60
Width: 1311
VWidth: 0
Flags: HW
LayerCount: 2
Fore
SplineSet
81 1529 m 0
 81 1565 225 1664 267 1664 c 0
 270 1664 272 1664 274 1663 c 0
 280 1660 696 1046 698 1046 c 0
 699 1046 752 1124 1039 1544 c 1
 1077 1597 1188 1664 1221 1664 c 0
 1227 1664 1230 1662 1230 1657 c 0
 1230 1648 1230 1650 764 968 c 1
 953 968 1049 970 1099 970 c 0
 1149 970 1151 968 1151 961 c 0
 1151 938 1065 857 973 825 c 1
 753 825 l 1
 753 635 l 1
 953 635 1052 637 1102 637 c 0
 1151 637 1151 635 1151 628 c 0
 1151 605 1065 524 973 492 c 1
 753 492 l 1
 753 132 l 1
 723 73 607 2 567 2 c 0
 562 2 558 3 556 5 c 1
 556 492 l 1
 357 492 258 490 209 490 c 0
 160 490 160 492 160 499 c 0
 160 522 245 603 337 635 c 1
 556 635 l 1
 556 825 l 1
 357 825 258 823 209 823 c 0
 160 823 160 825 160 832 c 0
 160 855 245 936 337 968 c 1
 462 968 l 1
 337 1150 81 1523 81 1529 c 0
EndSplineSet
EndChar

StartChar: Z
Encoding: 90 90 61
Width: 1231
VWidth: 0
Flags: HW
LayerCount: 2
Fore
SplineSet
81 8 m 0
 81 15 81 15 946 1521 c 1
 313 1522 87 1521 83 1523 c 0
 81 1524 80 1526 80 1528 c 0
 80 1554 197 1651 259 1663 c 1
 1094 1665 l 2
 1150 1665 1151 1664 1151 1657 c 0
 1151 1650 1150 1650 285 144 c 1
 918 143 1144 144 1148 142 c 0
 1151 141 1152 139 1152 136 c 0
 1152 111 1057 30 973 1 c 1
 635 1 635 0 127 -0 c 0
 82 0 81 1 81 8 c 0
EndSplineSet
EndChar

StartChar: bracketleft
Encoding: 91 91 62
Width: 732
VWidth: 0
Flags: HW
LayerCount: 2
Fore
SplineSet
705 1667 m 0
 754 1667 754 1665 754 1657 c 0
 754 1634 668 1553 576 1521 c 1
 277 1521 l 1
 277 -624 l 1
 494 -624 613 -623 677 -623 c 0
 754 -623 754 -625 754 -632 c 0
 754 -657 663 -737 576 -767 c 1
 85 -767 l 1
 80 -763 l 1
 80 1533 l 1
 104 1579 199 1647 262 1664 c 1
 525 1664 648 1667 705 1667 c 0
EndSplineSet
EndChar

StartChar: backslash
Encoding: 92 92 63
Width: 1101
VWidth: 0
Flags: HW
LayerCount: 2
Fore
SplineSet
244 1727 m 0
 249 1727 254 1726 256 1724 c 0
 257 1722 729 505 1051 -327 c 1
 1039 -373 902 -446 857 -446 c 0
 852 -446 847 -445 845 -443 c 0
 844 -441 576 248 49 1608 c 1
 60 1653 199 1727 244 1727 c 0
EndSplineSet
EndChar

StartChar: bracketright
Encoding: 93 93 64
Width: 732
VWidth: 0
Flags: HW
LayerCount: 2
Fore
SplineSet
452 1665 m 0
 556 1665 648 1664 652 1660 c 1
 652 -636 l 1
 626 -687 522 -755 477 -766 c 0
 470 -768 378 -768 125 -768 c 2
 39 -768 l 2
 -21 -768 -22 -767 -22 -760 c 0
 -22 -737 64 -657 156 -625 c 1
 455 -624 l 1
 455 1521 l 1
 202 1521 83 1518 27 1518 c 0
 -22 1518 -22 1520 -22 1528 c 0
 -22 1560 102 1652 156 1663 c 1
 156 1663 314 1665 452 1665 c 0
EndSplineSet
EndChar

StartChar: asciicircum
Encoding: 94 94 65
Width: 1152
VWidth: 0
Flags: HW
LayerCount: 2
Fore
SplineSet
91 1081 m 0
 85 1081 81 1083 81 1089 c 0
 81 1095 86 1104 94 1113 c 0
 107 1128 502 1567 509 1573 c 0
 560 1621 636 1664 664 1664 c 2
 665 1664 l 2
 676 1664 674 1660 1069 1222 c 0
 1070 1220 1070 1218 1070 1216 c 0
 1070 1178 930 1081 883 1081 c 0
 872 1081 524 1477 521 1476 c 1
 521 1476 262 1188 249 1175 c 0
 207 1133 120 1081 91 1081 c 0
EndSplineSet
EndChar

StartChar: underscore
Encoding: 95 95 66
Width: 1152
VWidth: 0
Flags: HW
LayerCount: 2
Fore
SplineSet
710 -184 m 2
 1010 -184 l 2
 1071 -184 1071 -184 1071 -191 c 0
 1071 -214 986 -295 894 -327 c 1
 126 -327 203 -328 126 -328 c 0
 80 -328 81 -327 81 -320 c 0
 81 -288 204 -196 259 -185 c 0
 263 -184 440 -184 710 -184 c 2
EndSplineSet
EndChar

StartChar: braceleft
Encoding: 123 123 67
Width: 891
VWidth: 0
Flags: HW
LayerCount: 2
Fore
SplineSet
80 385 m 0
 80 414 213 520 271 520 c 0
 293 520 320 524 325 525 c 1
 435 727 364 1111 447 1344 c 0
 512 1526 729 1664 894 1664 c 0
 906 1664 911 1660 911 1654 c 0
 911 1621 773 1521 721 1521 c 0
 699 1521 672 1517 667 1516 c 1
 549 1300 640 885 526 650 c 0
 477 548 397 503 397 497 c 0
 397 491 469 484 525 373 c 0
 683 60 457 -608 892 -624 c 0
 904 -624 912 -623 912 -632 c 0
 912 -661 780 -768 721 -768 c 0
 143 -768 637 326 126 375 c 0
 89 379 80 373 80 385 c 0
EndSplineSet
EndChar

StartChar: bar
Encoding: 124 124 68
Width: 835
VWidth: 0
Flags: HW
LayerCount: 2
Fore
SplineSet
504 1663 m 0
 509 1663 513 1662 515 1660 c 1
 515 -636 l 1
 485 -697 367 -766 328 -766 c 0
 323 -766 320 -765 318 -763 c 1
 318 1533 l 1
 348 1591 464 1663 504 1663 c 0
EndSplineSet
EndChar

StartChar: brokenbar
Encoding: 166 166 69
Width: 835
VWidth: 0
Flags: HW
LayerCount: 2
Fore
SplineSet
504 339 m 0
 509 339 513 338 515 336 c 1
 515 -636 l 1
 485 -697 367 -766 328 -766 c 0
 323 -766 320 -765 318 -763 c 1
 318 209 l 1
 348 268 464 339 504 339 c 0
504 1663 m 0
 509 1663 513 1662 515 1660 c 1
 515 687 l 1
 490 638 375 557 330 557 c 0
 325 557 321 558 318 560 c 1
 318 1533 l 1
 348 1591 464 1663 504 1663 c 0
EndSplineSet
EndChar

StartChar: dagger
Encoding: 8224 8224 70
Width: 1311
VWidth: 0
Flags: HW
LayerCount: 2
Fore
SplineSet
742 1663 m 0
 747 1663 751 1662 753 1660 c 1
 753 977 l 1
 1006 977 1125 980 1181 980 c 0
 1230 980 1230 978 1230 970 c 0
 1230 947 1145 866 1053 834 c 1
 753 834 l 1
 753 -636 l 1
 723 -697 605 -766 566 -766 c 0
 561 -766 558 -765 556 -763 c 1
 556 834 l 1
 314 834 195 832 137 832 c 0
 81 832 81 834 81 842 c 0
 81 865 166 945 258 977 c 1
 556 977 l 1
 556 1533 l 1
 586 1591 702 1663 742 1663 c 0
EndSplineSet
EndChar

StartChar: daggerdbl
Encoding: 8225 8225 71
Width: 1311
VWidth: 0
Flags: HW
LayerCount: 2
Fore
SplineSet
742 1663 m 0
 747 1663 751 1662 753 1660 c 1
 753 977 l 1
 1006 977 1125 980 1181 980 c 0
 1230 980 1230 978 1230 970 c 0
 1230 947 1145 866 1053 834 c 1
 753 834 l 1
 753 63 l 1
 970 63 1089 64 1153 64 c 0
 1230 64 1230 62 1230 55 c 0
 1230 32 1145 -48 1053 -80 c 1
 753 -81 l 1
 753 -636 l 1
 723 -697 605 -766 566 -766 c 0
 561 -766 558 -765 556 -763 c 1
 556 -81 l 1
 340 -81 222 -82 158 -82 c 0
 81 -82 81 -80 81 -73 c 0
 81 -50 166 30 258 62 c 1
 556 63 l 1
 556 834 l 1
 314 834 195 832 137 832 c 0
 81 832 81 834 81 842 c 0
 81 865 166 945 258 977 c 1
 556 977 l 1
 556 1533 l 1
 586 1591 702 1663 742 1663 c 0
EndSplineSet
EndChar

StartChar: braceright
Encoding: 125 125 72
Width: 891
VWidth: 0
Flags: HW
LayerCount: 2
Fore
SplineSet
-21 1529 m 0
 -21 1560 115 1664 167 1664 c 0
 753 1664 250 571 765 522 c 0
 802 519 811 524 811 512 c 0
 811 483 678 377 620 377 c 0
 598 377 571 373 566 372 c 1
 456 170 526 -215 443 -448 c 0
 377 -633 157 -768 -5 -768 c 0
 -15 -768 -20 -765 -20 -759 c 0
 -20 -727 113 -624 169 -624 c 0
 191 -624 219 -621 224 -620 c 1
 342 -404 251 11 365 246 c 0
 414 348 494 393 494 399 c 0
 494 405 422 413 366 524 c 0
 211 831 434 1505 -1 1521 c 0
 -13 1521 -21 1520 -21 1529 c 0
EndSplineSet
EndChar

StartChar: asciitilde
Encoding: 126 126 73
Width: 1231
VWidth: 0
Flags: HW
LayerCount: 2
Fore
SplineSet
80 832 m 0
 80 873 306 1039 458 1039 c 0
 653 1039 770 898 939 898 c 0
 1043 898 1049 941 1120 964 c 0
 1142 971 1151 967 1151 960 c 0
 1151 925 942 754 762 754 c 0
 586 754 457 895 292 895 c 0
 188 895 182 852 111 829 c 0
 89 822 80 825 80 832 c 0
EndSplineSet
EndChar

StartChar: AE
Encoding: 198 198 74
Width: 1548
VWidth: 0
Flags: HW
LayerCount: 2
Fore
SplineSet
1392 145 m 0
 1468 145 1468 143 1468 136 c 0
 1468 113 1383 33 1291 1 c 1
 1098 1 991 0 931 0 c 0
 868 0 858 1 855 5 c 0
 854 6 701 821 701 824 c 0
 701 825 686 825 664 825 c 0
 619 825 542 824 484 824 c 1
 346 363 277 130 275 126 c 0
 251 77 127 1 91 1 c 0
 85 1 81 3 81 8 c 0
 81 14 558 1608 560 1611 c 0
 582 1652 690 1726 735 1735 c 0
 738 1736 738 1736 793 1736 c 2
 1167 1736 l 1
 1169 1734 1170 1732 1170 1729 c 0
 1170 1697 1056 1609 996 1594 c 0
 990 1593 977 1593 938 1593 c 2
 780 1593 l 1
 896 968 l 1
 1310 968 l 1
 1313 966 1314 963 1314 960 c 0
 1314 927 1189 838 1139 826 c 0
 1136 825 1126 825 1071 825 c 2
 923 825 l 1
 1051 144 l 1
 1231 144 1334 145 1392 145 c 0
567 968 m 0
 589 968 623 968 674 969 c 1
 618 1269 l 2
 617 1269 528 969 528 969 c 1
 528 969 538 968 567 968 c 0
EndSplineSet
EndChar

StartChar: Oslash
Encoding: 216 216 75
Width: 1470
VWidth: 0
Flags: HW
LayerCount: 2
Fore
SplineSet
80 753 m 0
 80 1409 581 1664 814 1664 c 0
 1017 1664 1117 1565 1173 1510 c 1
 1204 1553 1218 1576 1280 1618 c 0
 1317 1643 1360 1664 1379 1664 c 0
 1385 1664 1389 1662 1389 1657 c 0
 1389 1643 1235 1438 1235 1434 c 0
 1235 1429 1389 1233 1389 881 c 0
 1389 234 902 -30 647 -30 c 0
 417 -30 305 123 296 123 c 0
 293 123 274 73 189 15 c 0
 141 -18 109 -30 93 -30 c 0
 85 -30 81 -27 81 -22 c 0
 81 -6 234 194 234 199 c 0
 234 210 80 389 80 753 c 0
642 1522 m 0
 590 1522 541 1512 499 1493 c 0
 424 1460 277 1197 277 871 c 0
 277 600.140625 385.04375 411 386 411 c 2
 1030 1310 l 1
 929 1457 775 1522 642 1522 c 0
828 113 m 0
 880 113 929 122 970 141 c 1
 1042 172 1192 430 1192 758 c 0
 1192 904 1162 1063 1083 1223 c 1
 439 324 l 1
 535 179 692 113 828 113 c 0
EndSplineSet
EndChar

StartChar: Eth
Encoding: 208 208 76
Width: 1438
VWidth: 0
Flags: HW
LayerCount: 2
Fore
SplineSet
410 1664 m 0
 868 1664 1358 1478 1358 825 c 0
 1358 626 1308 386 961 176 c 0
 711 24 447 2 213 1 c 1
 208 5 l 1
 208 730 l 1
 100 730 39 729 3 729 c 0
 -45 729 -45 731 -45 738 c 0
 -45 771 76 858 129 871 c 0
 135 873 167 873 188 873 c 2
 208 873 l 1
 208 1533 l 1
 225 1567 330 1664 410 1664 c 0
405 730 m 1
 405 144 l 1
 452 144 748 144 950 238 c 0
 1102 308 1160 518 1160 693 c 0
 1160 1184 876 1458 405 1511 c 1
 405 873 l 1
 783 873 l 1
 785 870 786 867 786 864 c 0
 786 826 656 748 628 737 c 0
 611 731 615 730 546 730 c 2
 405 730 l 1
EndSplineSet
EndChar

StartChar: Thorn
Encoding: 222 222 77
Width: 1152
VWidth: 0
Flags: HW
LayerCount: 2
Fore
SplineSet
265 1664 m 0
 270 1664 274 1663 277 1660 c 1
 277 1440 l 1
 951 1440 1070 1071 1070 824 c 0
 1070 686 1032 577 912 470 c 0
 668 252 397 244 277 231 c 1
 277 132 l 1
 253 84 140 2 93 2 c 0
 88 2 83 3 80 5 c 1
 80 1533 l 1
 104 1580 222 1664 265 1664 c 0
277 1285 m 1
 277 368 l 1
 633 368 788 439 799 452 c 0
 861 523 873 624 873 699 c 0
 873 1044 651 1235 297 1283 c 0
 285 1285 281 1285 277 1285 c 1
EndSplineSet
EndChar

StartChar: T
Encoding: 84 84 78
Width: 1090
VWidth: 0
Flags: HW
LayerCount: 2
Fore
SplineSet
456 1445 m 2
 456 1512 l 1
 65 1512 -87 1494 -141 1494 c 0
 -163 1494 -169 1497 -169 1505 c 0
 -169 1547 -55 1681 -18 1681 c 0
 5 1681 274 1665 653 1665 c 0
 972 1665 1234 1681 1247 1681 c 0
 1255 1681 1260 1680 1260 1671 c 0
 1260 1636 1168 1517 1111 1495 c 1
 720 1512 709 1508 634 1511 c 1
 636 1065 638 841 647 395 c 0
 654 48 728 60 728 33 c 0
 728 7 605 18 460 -6 c 0
 423 -12 393 -15 370 -15 c 0
 343 -15 327 -10 327 -2 c 0
 327 16 386 29 394 38 c 0
 446 95 442 223 443 292 c 0
 455 895 456 1247 456 1445 c 2
EndSplineSet
EndChar

StartChar: f
Encoding: 102 102 79
Width: 663
VWidth: 0
Flags: HW
LayerCount: 2
Fore
SplineSet
18 723 m 0
 1 723 -9 725 -9 731 c 0
 -9 769 103 884 148 895 c 0
 154 896 173 896 211 896 c 1
 211 926 210 956 210 985 c 0
 210 1102 221 1213 331 1355 c 0
 448 1505 690 1664 861 1664 c 0
 1052 1664 1121 1542 1121 1461 c 0
 1121 1424 980 1324 934 1324 c 0
 911 1324 938 1356 901 1415 c 0
 854 1490 757 1520 676 1520 c 0
 637 1520 601 1513 576 1501 c 0
 562 1494 452 1379 425 1215 c 0
 420 1184 420 1214 419 896 c 1
 753 896 l 1
 755 894 756 893 756 889 c 0
 756 854 647 759 593 740 c 0
 582 736 491 736 418 734 c 1
 417 519 416 361 416 243 c 0
 416 -80 422 -99 447 -134 c 0
 448 -136 448 -137 448 -139 c 0
 448 -161 383 -196 370 -202 c 1
 370 -202 183 -374 65 -374 c 0
 56 -374 50 -372 50 -365 c 0
 50 -332 191 -305 211 -133 c 0
 213 -119 213 16 213 176 c 0
 213 423 212 728 211 729 c 1
 95 729 57 723 18 723 c 0
EndSplineSet
EndChar

StartChar: f.conl
Encoding: 65536 -1 80
Width: 663
VWidth: 0
Flags: HW
LayerCount: 2
Fore
SplineSet
693 897 m 0
 755 897 757 895 757 888 c 0
 757 852 637 751 589 739 c 0
 586 738 585 738 566 738 c 2
 418 738 l 1
 417 526 416 369 416 251 c 0
 416 -70 422 -97 447 -134 c 0
 448 -136 448 -137 448 -139 c 0
 448 -161 383 -196 370 -202 c 1
 370 -202 183 -374 65 -374 c 0
 56 -374 50 -372 50 -365 c 0
 50 -332 192 -303 211 -133 c 0
 212 -123 213 -32 213 88 c 0
 213 328 211 684 211 738 c 1
 85 738 11 737 -32 737 c 0
 -93 737 -93 739 -93 746 c 0
 -93 782 27 883 75 895 c 0
 78 896 82 896 105 896 c 2
 211 896 l 1
 211 926 210 956 210 985 c 0
 210 1102 221 1213 331 1355 c 0
 448 1505 690 1664 861 1664 c 0
 1052 1664 1121 1542 1121 1461 c 0
 1121 1424 980 1324 934 1324 c 0
 911 1324 938 1356 901 1415 c 0
 854 1490 757 1520 676 1520 c 0
 637 1520 601 1513 576 1501 c 0
 562 1494 452 1379 425 1215 c 0
 420 1184 420 1214 419 896 c 1
 562 896 645 897 693 897 c 0
EndSplineSet
EndChar

StartChar: f.dotlig
Encoding: 65537 -1 81
Width: 663
VWidth: 0
Flags: HW
LayerCount: 2
Fore
SplineSet
1044 1454 m 0
 1044 1286.3109375 825.360742188 1199 806 1199 c 0
 800 1199 796 1201 796 1207 c 0
 796 1240 846 1228 846 1333 c 0
 846 1437 751 1521 632 1521 c 0
 557 1521 551 1498 551 1498 c 1
 432 1362 418 1215 418 1054 c 0
 418 1003 419 950 419 896 c 1
 753 896 l 1
 755 894 756 893 756 889 c 0
 756 854 647 759 593 740 c 0
 582 736 491 736 418 734 c 1
 417 525 416 370 416 253 c 0
 416 -68 422 -95 447 -134 c 0
 448 -135 449 -136 449 -138 c 0
 449 -149 429 -173 368 -204 c 1
 368 -204 185 -374 65 -374 c 0
 56 -374 50 -372 50 -365 c 0
 50 -332 191 -304 211 -133 c 0
 212 -121 214 192 214 437 c 0
 214 597 213 729 211 729 c 0
 107 729 47 725 17 725 c 0
 -1 725 -9 726 -9 731 c 0
 -9 769 103 884 148 895 c 0
 154 896 174 896 211 896 c 1
 211 923 210 953 210 987 c 0
 210 1100 224 1248 353 1401 c 0
 466 1536 671 1664 809 1664 c 0
 961 1664 1044 1560 1044 1454 c 0
EndSplineSet
EndChar

StartChar: f.conl_dotlig
Encoding: 65538 -1 82
Width: 663
VWidth: 0
Flags: HW
LayerCount: 2
Fore
SplineSet
1044 1454 m 0
 1044 1286.3109375 825.360742188 1199 806 1199 c 0
 800 1199 796 1201 796 1207 c 0
 796 1240 846 1228 846 1333 c 0
 846 1437 751 1521 632 1521 c 0
 557 1521 551 1498 551 1498 c 1
 432 1362 418 1215 418 1054 c 0
 418 1003 419 950 419 896 c 1
 562 896 645 897 693 897 c 0
 755 897 757 895 757 888 c 0
 757 852 637 751 589 739 c 0
 586 738 585 738 566 738 c 2
 418 738 l 1
 417 520 416 360 416 242 c 0
 416 -80 422 -94 447 -134 c 0
 448 -135 449 -136 449 -138 c 0
 449 -149 429 -173 368 -204 c 1
 368 -204 185 -374 65 -374 c 0
 56 -374 50 -372 50 -365 c 0
 50 -332 192 -303 211 -133 c 0
 212 -123 213 -31 213 89 c 0
 213 329 211 685 211 738 c 1
 85 738 11 737 -32 737 c 0
 -93 737 -93 739 -93 746 c 0
 -93 782 27 883 75 895 c 0
 78 896 82 896 105 896 c 2
 211 896 l 1
 211 923 210 953 210 987 c 0
 210 1100 224 1248 353 1401 c 0
 466 1536 671 1664 809 1664 c 0
 961 1664 1044 1560 1044 1454 c 0
EndSplineSet
EndChar

StartChar: florin
Encoding: 402 402 83
Width: 663
VWidth: 0
Flags: HW
LayerCount: 2
Fore
SplineSet
211 896 m 1
 211 970 l 2
 211 1072 214 1124 247 1207 c 0
 358 1483 696 1664 855 1664 c 0
 1054 1664 1121 1543 1121 1462 c 0
 1121 1424 980 1324 934 1324 c 0
 915 1324 930 1342 914 1386 c 0
 880 1480 767 1521 675 1521 c 0
 626 1521 582 1509 561 1488 c 0
 434 1361 418 1216 418 1056 c 0
 418 1004 420 951 420 896 c 1
 753 896 l 1
 755 894 756 893 756 889 c 0
 756 854 647 759 593 740 c 0
 581 736 433 734 420 734 c 1
 420 552 419 -86 408 -175 c 0
 392 -304 342 -421 262 -517 c 0
 186 -609 -2 -767 -178 -767 c 0
 -208 -767 -296 -755 -296 -740 c 0
 -296 -706 -155 -604 -111 -604 c 0
 -95 -604 -69 -623 -5 -623 c 0
 34 -623 76 -615 86 -604 c 0
 130 -556 216 -430 216 -199 c 0
 216 -22 211 -76 211 729 c 1
 97 726 42 723 15 723 c 0
 -7 723 -9 725 -9 731 c 0
 -9 769 103 884 148 895 c 0
 154 896 174 896 211 896 c 1
EndSplineSet
EndChar

StartChar: longs
Encoding: 383 383 84
Width: 533
VWidth: 0
Flags: HW
LayerCount: 2
Fore
SplineSet
157 876 m 1
 157 907.666666667 157 939.333333333 157 971 c 0
 157 1138 176 1356 469 1552 c 0
 584 1628 692 1664 779 1664 c 0
 905 1664 989 1590 991 1456 c 1
 963 1400 842 1324 805 1324 c 0
 794 1324 794 1327 794 1334 c 0
 794 1433 719 1521 611 1521 c 0
 559 1521 523 1512 481 1495 c 1
 366 1371 354 1232 354 1105 c 0
 354 1074 355 1043 355 1014 c 0
 355 199 357 190 379 135 c 0
 381 131 382 127 382 126 c 0
 382 70 65 -21 42 -21 c 0
 33 -21 27 -18 27 -12 c 0
 27 9 97 44 109 56 c 0
 153 101 156 132 156 286 c 2
 156 392 l 2
 156 596 137 745 62 745 c 0
 47 745 7 722 7 741 c 0
 7 769 90 843 157 876 c 1
EndSplineSet
EndChar

StartChar: germandbls
Encoding: 223 223 85
Width: 1295
VWidth: 0
Flags: HW
LayerCount: 2
Fore
SplineSet
382 126 m 0
 382 70 65 -21 42 -21 c 0
 33 -21 27 -18 27 -12 c 0
 27 9 97 44 109 56 c 0
 153 101 156 132 156 286 c 2
 156 392 l 2
 156 596 137 745 62 745 c 0
 47 745 7 722 7 741 c 0
 7 768 90 844 157 876 c 1
 157 906 156 937 156 969 c 0
 156 1142 179 1349 474 1545 c 0
 642 1657 767 1664 808 1664 c 0
 991 1664 1035 1529 1035 1464 c 0
 1035 1319 871 1230 805 1163 c 0
 778 1135 765 1099 765 1065 c 0
 765 882 1228 828 1228 471 c 0
 1228 301 1123 176 976 83 c 0
 881 23 803 1 739 1 c 0
 591 1 524 117 524 125 c 0
 524 157 662 261 711 261 c 0
 718 261 719 259 724 251 c 0
 756 199 823 144 915 144 c 0
 977 144 976 155 982 165 c 0
 1010 210 1031 272 1031 343 c 0
 1031 690 568 739 568 937 c 0
 568 939 568 941 568 943 c 0
 568 967 571 1023 656 1109 c 0
 759 1214 838 1232 838 1333 c 0
 838 1431 758 1521 640 1521 c 0
 599 1521 505 1508 476 1478 c 0
 365 1362 354 1218 354 1102 c 0
 354 1073 355 1045 355 1020 c 0
 355 192 357 189 379 135 c 0
 381 131 382 127 382 126 c 0
EndSplineSet
EndChar

StartChar: uni25CC
Encoding: 9676 9676 86
Width: 1125
VWidth: 0
Flags: HW
LayerCount: 2
Fore
SplineSet
518 25 m 0
 518 38 517 70 563 70 c 0
 610 70 608 38 608 25 c 0
 608 10 608 -20 563 -20 c 0
 517 -20 518 10 518 25 c 0
677 57 m 0
 677 86 690 102 719 102 c 0
 751 102 767 93 767 57 c 0
 767 21 750 12 722 12 c 0
 695 12 677 19 677 57 c 0
359 57 m 0
 359 86 372 102 401 102 c 0
 433 102 449 93 449 57 c 0
 449 21 432 12 404 12 c 0
 377 12 359 19 359 57 c 0
812 148 m 0
 812 177 826 192 855 192 c 0
 887 192 902 183 902 147 c 0
 902 111 886 102 858 102 c 0
 831 102 812 110 812 148 c 0
223 148 m 0
 223 177 236 192 265 192 c 0
 297 192 313 183 313 147 c 0
 313 111 296 102 268 102 c 0
 241 102 223 110 223 148 c 0
903 284 m 0
 903 313 916 328 945 328 c 0
 989 328 993 307 993 283 c 0
 993 264 992 238 948 238 c 0
 921 238 903 246 903 284 c 0
132 284 m 0
 132 313 145 328 174 328 c 0
 206 328 222 319 222 283 c 0
 222 247 206 238 178 238 c 0
 151 238 132 246 132 284 c 0
934 442 m 0
 934 476 951 487 976 487 c 0
 1007 487 1025 478 1025 442 c 0
 1025 397 997 397 980 397 c 2
 979 397 l 2
 963 397 934 397 934 442 c 0
191 442 m 0
 191 397 165 397 146 397 c 2
 145 397 l 2
 129 397 101 397 101 442 c 0
 101 476 117 487 142 487 c 0
 173 487 191 478 191 442 c 0
903 602 m 0
 903 631 916 646 945 646 c 0
 989 646 993 625 993 601 c 0
 993 582 992 556 948 556 c 0
 921 556 903 564 903 602 c 0
132 602 m 0
 132 631 145 646 174 646 c 0
 206 646 222 637 222 601 c 0
 222 565 206 556 178 556 c 0
 151 556 132 564 132 602 c 0
812 738 m 0
 812 767 826 782 855 782 c 0
 887 782 902 773 902 737 c 0
 902 701 886 692 858 692 c 0
 831 692 812 700 812 738 c 0
223 738 m 0
 223 767 236 782 265 782 c 0
 297 782 313 773 313 737 c 0
 313 701 296 692 268 692 c 0
 241 692 223 700 223 738 c 0
677 828 m 0
 677 857 690 872 719 872 c 0
 751 872 767 863 767 827 c 0
 767 791 750 782 722 782 c 0
 695 782 677 790 677 828 c 0
359 828 m 0
 359 857 372 872 401 872 c 0
 433 872 449 863 449 827 c 0
 449 791 432 782 404 782 c 0
 377 782 359 790 359 828 c 0
518 859 m 0
 518 872 517 904 563 904 c 0
 610 904 608 872 608 859 c 0
 608 844 608 814 563 814 c 0
 517 814 518 844 518 859 c 0
EndSplineSet
EndChar

StartChar: uni0300.normal
Encoding: 65539 -1 87
Width: 0
VWidth: 0
Flags: HW
LayerCount: 2
Fore
SplineSet
-274 1396 m 0
 -274 1408 -238 1414 -195 1414 c 0
 -135 1414 -61 1403 -41 1382 c 0
 -31 1372 177 1000 177 986 c 0
 177 981 174 978 167 978 c 0
 136 978 45 1030 -20 1104 c 0
 -274 1390 -274 1391 -274 1396 c 0
EndSplineSet
EndChar

StartChar: uni0301.normal
Encoding: 65540 -1 88
Width: 0
VWidth: 0
Flags: HW
LayerCount: 2
Fore
SplineSet
-147 979 m 0
 -153 979 -157 981 -157 986 c 0
 -157 1002 53 1373 61 1382 c 0
 81 1403 152 1414 211 1414 c 0
 257 1414 295 1408 295 1395 c 0
 295 1390 294 1390 39 1103 c 0
 -24 1031 -117 979 -147 979 c 0
EndSplineSet
EndChar

StartChar: uni0302.normal
Encoding: 65541 -1 89
Width: 0
VWidth: 0
Flags: HW
LayerCount: 2
Fore
SplineSet
-1 1413 m 0
 67 1413 135 1403 155 1383 c 0
 167 1371 374 998 374 986 c 0
 374 980 370 978 364 978 c 0
 341 978 282 1011 246 1038 c 0
 179 1088 7 1303 0 1303 c 0
 -1 1303 -1 1302 -176 1105 c 0
 -252 1018 -334 980 -363 980 c 0
 -370 980 -374 982 -374 986 c 0
 -374 1000 -164 1374 -155 1383 c 0
 -134 1403 -67 1413 -1 1413 c 0
EndSplineSet
EndChar

StartChar: uni0303.normal
Encoding: 65542 -1 90
Width: 0
VWidth: 0
Flags: HW
LayerCount: 2
Fore
SplineSet
-243 1137 m 0
 -333 1137 -350 1073 -401 1073 c 0
 -407 1073 -410 1076 -410 1081 c 0
 -410 1120 -223 1296 -76 1296 c 0
 36 1296 139 1214 243 1214 c 0
 326 1214 329 1257 389 1275 c 0
 398 1278 410 1280 410 1270 c 0
 410 1235 229 1055 76 1055 c 0
 -38 1055 -137 1137 -243 1137 c 0
EndSplineSet
EndChar

StartChar: uni0303.narrow
Encoding: 65543 -1 91
Width: 0
VWidth: 0
Flags: HW
LayerCount: 2
Fore
SplineSet
-177 1115 m 0
 -211 1115 -263 1071 -283 1071 c 0
 -288 1071 -291 1074 -291 1081 c 0
 -291 1115 -130 1273 -8 1273 c 0
 58 1273 113 1236 179 1236 c 0
 212 1236 263 1280 282 1280 c 0
 287 1280 290 1277 290 1270 c 0
 290 1234 130 1077 8 1077 c 0
 -52 1077 -124 1115 -177 1115 c 0
EndSplineSet
EndChar

StartChar: uni0304.normal
Encoding: 65544 -1 92
Width: 0
VWidth: 0
Flags: HW
LayerCount: 2
Fore
SplineSet
-376 1080 m 0
 -411 1080 -416 1081 -416 1088 c 0
 -416 1120 -293 1212 -238 1223 c 0
 -234 1224 171 1224 370 1224 c 0
 415 1224 416 1224 416 1217 c 0
 416 1194 331 1113 239 1081 c 1
 -376 1081 -314 1080 -376 1080 c 0
EndSplineSet
EndChar

StartChar: uni0304.narrow
Encoding: 65545 -1 93
Width: 0
VWidth: 0
Flags: HW
LayerCount: 2
Fore
SplineSet
-297 1090 m 0
 -297 1126 -173 1209 -116 1224 c 1
 293 1224 l 1
 294 1223 297 1221 297 1216 c 0
 297 1188 181 1095 120 1082 c 0
 115 1081 115 1081 49 1081 c 2
 -293 1081 l 1
 -295 1083 -297 1087 -297 1090 c 0
EndSplineSet
EndChar

StartChar: uni0307.normal
Encoding: 65546 -1 94
Width: 0
VWidth: 0
Flags: HW
LayerCount: 2
Fore
SplineSet
-0 1283 m 0
 20 1283 40 1251 111 1184 c 0
 128 1168 129 1164 129 1152 c 0
 129 1130 120 1135 31 1041 c 0
 19 1029 9 1023 0 1023 c 0
 -25 1023 -48 1060 -104 1114 c 0
 -121 1130 -130 1141 -130 1152 c 0
 -130 1163 -122 1173 -104 1190 c 0
 -39 1251 -20 1283 -0 1283 c 0
EndSplineSet
EndChar

StartChar: uni0308.normal
Encoding: 65547 -1 95
Width: 0
VWidth: 0
Flags: HW
LayerCount: 2
Fore
SplineSet
205 1283 m 0
 225 1283 245 1251 316 1184 c 0
 333 1168 334 1164 334 1152 c 0
 334 1130 325 1135 236 1041 c 0
 224 1029 214 1023 205 1023 c 0
 180 1023 157 1060 101 1114 c 0
 83 1131 74 1141 74 1152 c 0
 74 1163 83 1173 101 1190 c 0
 166 1251 185 1283 205 1283 c 0
-205 1283 m 0
 -185 1283 -165 1251 -94 1184 c 0
 -77 1168 -76 1164 -76 1152 c 0
 -76 1130 -85 1135 -174 1041 c 0
 -186 1029 -196 1023 -205 1023 c 0
 -230 1023 -253 1060 -309 1114 c 0
 -326 1130 -335 1141 -335 1152 c 0
 -335 1163 -327 1173 -309 1190 c 0
 -244 1251 -225 1283 -205 1283 c 0
EndSplineSet
EndChar

StartChar: uni0308.narrow
Encoding: 65548 -1 96
Width: 0
VWidth: 0
Flags: HW
LayerCount: 2
Fore
SplineSet
179 1283 m 0
 199 1283 219 1251 290 1184 c 0
 307 1168 308 1164 308 1152 c 0
 308 1130 299 1135 210 1041 c 0
 198 1029 188 1023 179 1023 c 0
 154 1023 131 1060 75 1114 c 0
 58 1130 49 1141 49 1152 c 0
 49 1163 57 1173 75 1190 c 0
 140 1251 159 1283 179 1283 c 0
-179 1283 m 0
 -159 1283 -139 1251 -68 1184 c 0
 -51 1168 -50 1164 -50 1152 c 0
 -50 1130 -59 1135 -148 1041 c 0
 -160 1029 -170 1023 -179 1023 c 0
 -204 1023 -227 1060 -283 1114 c 0
 -301 1131 -310 1141 -310 1152 c 0
 -310 1163 -301 1173 -283 1190 c 0
 -218 1251 -199 1283 -179 1283 c 0
EndSplineSet
EndChar

StartChar: uni030A.normal
Encoding: 65549 -1 97
Width: 0
VWidth: 0
Flags: HW
LayerCount: 2
Fore
SplineSet
-244 1178 m 0
 -244 1306 -84 1413 25 1413 c 0
 179 1413 244 1308 244 1229 c 0
 244 1104 88 994 -28 994 c 0
 -161 994 -244 1084 -244 1178 c 0
104 1145 m 0
 104 1243 12 1308 -89 1308 c 0
 -95 1308 -104 1305 -104 1260 c 0
 -104 1157 -2 1099 87 1099 c 0
 95 1099 104 1101 104 1145 c 0
EndSplineSet
EndChar

StartChar: uni030C.normal
Encoding: 65550 -1 98
Width: 0
VWidth: 0
Flags: HW
LayerCount: 2
Fore
SplineSet
-374 1449 m 0
 -374 1452 -372 1457 -365 1457 c 0
 -327 1457 -245 1401 -208 1365 c 0
 -171 1330 -5 1133 0 1133 c 0
 1 1133 1 1133 176 1330 c 1
 250 1415 332 1457 362 1457 c 0
 370 1457 374 1454 374 1449 c 0
 374 1435 164 1061 155 1052 c 0
 135 1032 67 1022 -0 1022 c 0
 -67 1022 -135 1032 -155 1052 c 0
 -166 1063 -374 1437 -374 1449 c 0
EndSplineSet
EndChar

StartChar: uni0327.normal
Encoding: 65551 -1 99
Width: 0
VWidth: 0
Flags: HW
LayerCount: 2
Fore
SplineSet
-208 -328 m 0
 -214 -328 -218 -325 -218 -319 c 0
 -218 -310 -92 -48 -92 -48 c 1
 -65 -7 53 74 89 74 c 0
 95 74 99 71 99 65 c 0
 99 56 11 -125 11 -128 c 1
 11 -128 45 -112 88 -112 c 0
 169 -112 241 -171 241 -259 c 0
 241 -353 186 -423 91 -494 c 0
 13 -552 -68 -591 -143 -591 c 0
 -210 -591 -264 -558 -264 -550 c 0
 -264 -522 -138 -415 -71 -414 c 1
 -47 -430 -11 -448 30 -448 c 0
 40 -448 43 -398 43 -390 c 0
 43 -283 -55 -256 -74 -256 c 1
 -74 -256 -175 -328 -208 -328 c 0
EndSplineSet
EndChar

StartChar: uni0364.normal
Encoding: 65552 -1 100
Width: 0
VWidth: 0
Flags: HW
LayerCount: 2
Fore
SplineSet
212 1116 m 0
 217 1116 219 1113 219 1109 c 0
 219 1071 32 884 -149 884 c 0
 -211 884 -276 911 -276 984 c 0
 -276 1078 -106 1186 -21 1220 c 0
 46 1247 82 1251 82 1256 c 0
 82 1287 55 1324 -34 1334 c 1
 -34 1309 -29 1297 -29 1293 c 0
 -29 1259 -170 1158 -216 1158 c 0
 -226 1158 -231 1161 -231 1206 c 0
 -231 1244 -220 1306 -102 1394 c 0
 -5 1466 61 1480 102 1480 c 0
 224 1480 277 1440 277 1386 c 0
 277 1330 208.953463824 1198.89428394 -83 1106 c 0
 -84 1105 -84 1104 -84 1102 c 0
 -84 1086 -54 1037 20 1037 c 0
 128 1037 160 1116 212 1116 c 0
EndSplineSet
EndChar

StartChar: F
Encoding: 70 70 101
Width: 940
VWidth: 0
Flags: HW
LayerCount: 2
Fore
SplineSet
-3 1502 m 0
 -10 1502 -13 1505 -13 1510 c 0
 -13 1542 121 1664 204 1664 c 0
 306 1664 332 1518 355 1310 c 1
 460 1455 695 1664 975 1664 c 0
 1251 1664 1397 1467 1397 1460 c 0
 1397 1426 1257 1324 1210 1324 c 0
 1205 1324 1202 1324 1190 1339 c 0
 1080 1471 934 1521 805 1521 c 0
 694 1521 596 1484 545 1429 c 0
 513 1395 370 1231 370 934 c 1
 375 534 l 1
 377 532 898 532 903 525 c 0
 904 524 904 522 904 520 c 0
 904 490 803 393 741 372 c 0
 725 366 377 367 375 365 c 0
 374 364 373 341 373 304 c 0
 373 263 374 205 374 136 c 0
 374 -136 368 -565 307 -656 c 0
 265 -718 141 -765 96 -765 c 0
 86 -765 80 -762 80 -757 c 0
 80 -752 87 -743 102 -731 c 0
 132 -708 165 -579 172 363 c 1
 121 363 91 362 74 362 c 0
 54 362 51 363 51 370 c 0
 51 394 102 459 173 514 c 1
 170 979 173 1430 67 1502 c 0
 55 1510 46 1512 38 1512 c 0
 22 1512 12 1502 -3 1502 c 0
EndSplineSet
EndChar

StartChar: P
Encoding: 80 80 102
Width: 1625
VWidth: 0
Flags: HW
LayerCount: 2
Fore
SplineSet
360 1226 m 1
 514.681716889 1454.33818653 794.4 1664 1084 1664 c 0
 1410 1664 1545 1314 1545 981 c 0
 1545 489 1095 180 795 180 c 0
 584 180 421 296 421 307 c 0
 421 340 563 436 611 436 c 0
 629 436 751 323 968 323 c 0
 1019 323 1127 332 1180 388 c 0
 1304 521 1348 719 1348 854 c 0
 1348 1119 1243 1518 920 1518 c 0
 834 1518 703 1494 618 1425 c 0
 544 1366 426 1221 369 952 c 1
 371 846 375 688 375 423 c 0
 375 -608 335 -639 279 -685 c 0
 221 -732 130 -767 95 -767 c 0
 86 -767 80 -764 80 -759 c 0
 80 -751 93 -738 102 -731 c 0
 156 -690 173 -110 173 410 c 0
 173 767 165 1096 156 1200 c 0
 135 1447 84 1512 37 1512 c 0
 23 1512 -14 1491 -14 1510 c 0
 -14 1542 122 1664 204 1664 c 0
 296 1664 333 1549 356 1285 c 0
 356 1280 360 1228 360 1226 c 1
EndSplineSet
EndChar

StartChar: S
Encoding: 83 83 103
Width: 1272
VWidth: 0
Flags: HW
LayerCount: 2
Fore
SplineSet
1008 395 m 0
 1008 849 151 690 151 1156 c 0
 151 1223 164 1337 311 1465 c 0
 527 1653 720 1664 770 1664 c 0
 1076 1664 1161 1423 1161 1423 c 1
 1161 1391 1024 1289 975 1289 c 0
 966 1289 966 1290 960 1302 c 0
 891 1439 753 1522 601 1522 c 0
 548 1522 494 1512 441 1491 c 0
 421 1483 419 1482 404 1462 c 0
 368 1413 348 1353 348 1284 c 0
 348 831 1205 994 1205 521 c 0
 1205 363 1105 234 950 125 c 0
 832 43 679 -30 499 -30 c 0
 159 -30 55 276 55 303 c 0
 55 337 197 439 242 439 c 0
 252 439 252 434 254 426 c 0
 299 273 447 113 674 113 c 0
 771 113 894 144 924 175 c 0
 967 219 1008 299 1008 395 c 0
EndSplineSet
EndChar

StartChar: W
Encoding: 87 87 104
Width: 2168
VWidth: 0
Flags: HW
LayerCount: 2
Fore
SplineSet
-19 1488 m 0
 -41 1488 -60 1475 -60 1492 c 0
 -60 1520 46 1664 133 1664 c 0
 206 1664 296 1603 459 1253 c 0
 770 586 825 186 835 176 c 1
 835 176 995 381 1131 729 c 0
 1144 761 1156 762 1156 767 c 0
 1156 776 1069 1051 1054 1096 c 0
 989 1290 907 1488 808 1488 c 0
 789 1488 769 1475 769 1492 c 0
 769 1519 873 1664 960 1664 c 0
 1089 1664 1174 1419 1282 1062 c 0
 1435 555 1482 234 1488 229 c 1
 1488 229 1589 404 1704 683 c 0
 1855 1050 1876 1199 1876 1328 c 0
 1876 1409 1858 1519 1782 1519 c 0
 1763 1519 1730 1500 1714 1500 c 0
 1709 1500 1705 1502 1705 1508 c 0
 1705 1539 1840 1664 1949 1664 c 0
 2022 1664 2082 1608 2082 1431 c 0
 2082 958 1585 139 1526 73 c 0
 1484 26 1391 -32 1357 -32 c 0
 1329 -32 1352 42 1215 554 c 0
 1213 560 1212 566 1212 566 c 1
 1212 566 1126 399 956 183 c 0
 879 86 828 24 739 -18 c 0
 719 -28 706 -32 698 -32 c 0
 684 -32 682 -19 677 2 c 0
 545 582 300 1083 221 1231 c 0
 176 1314 77 1488 -19 1488 c 0
EndSplineSet
EndChar

StartChar: a
Encoding: 97 97 105
Width: 1061
VWidth: 0
Flags: HW
LayerCount: 2
Fore
SplineSet
310 738 m 0
 310 764.741599856 432.823832702 896 524 896 c 0
 642 896 703 774 881 372 c 0
 925 274 977 159 1041 159 c 0
 1052 159 1075 169 1075 157 c 0
 1075 123 951 1 875 1 c 0
 788 1 735 148 730 148 c 0
 722 148 537 -30 301 -30 c 0
 169 -30 68 47 68 163 c 0
 68 365 318 490 446 585 c 0
 468 602 479 614 495 637 c 1
 455 695 413 738 359 738 c 0
 349 738 330 731 319 731 c 0
 314 731 310 733 310 738 c 0
697 220 m 0
 697 225 535 578 529 578 c 0
 527 578 515 566 398 487 c 0
 358 461 265 418 265 290 c 0
 265 193 353 113 478 113 c 0
 537 113 600 128 638 147 c 0
 652 154 697 214 697 220 c 0
EndSplineSet
EndChar

StartChar: ordfeminine
Encoding: 170 170 106
Width: 690
VWidth: 0
Flags: HW
LayerCount: 2
Fore
SplineSet
372 1506 m 0
 522 1506 610 1028 705 1028 c 0
 716 1028 731 1036 731 1023 c 0
 731 990 606 869 540 869 c 0
 481 869 450 958 446 958 c 0
 438 958 313 851 164 851 c 0
 79 851 9 902 9 979 c 0
 9 1138 256 1251 286 1289 c 1
 260 1323 236 1348 203 1348 c 0
 191 1348 170 1335 170 1352 c 0
 170 1380 291 1506 372 1506 c 0
207 1107 m 0
 207 1043 266 995 342 995 c 0
 415 995 415 1013 419 1018 c 1
 396 1070 317 1239 315 1239 c 1
 245 1193 207 1180 207 1107 c 0
EndSplineSet
EndChar

StartChar: ae
Encoding: 230 230 107
Width: 1550
VWidth: 0
Flags: HW
LayerCount: 2
Fore
SplineSet
341 785 m 0
 341 812 472 927 563 927 c 0
 599 927 671 918 744 764 c 1
 953 902 1090 927 1176 927 c 0
 1320 927 1450 816 1450 653 c 0
 1450 592 1437 582 1417 562 c 0
 1386 531 1331 488 1265 466 c 0
 1067 400 917 375 917 372 c 1
 977 255 1057 113 1208 113 c 3
 1236 113 1284 121 1290 127 c 0
 1299 136 1301 150 1328 176 c 0
 1372 219 1460 268 1487 268 c 0
 1492 268 1495 266 1495 262 c 0
 1495 222 1263 -30 1031 -30 c 0
 926 -30 845 29 768 150 c 1
 596 20 441 -30 321 -30 c 0
 164 -30 67 55 67 162 c 0
 67 365 292 504 545 638 c 1
 503 719 451 784 389 784 c 0
 372 784 341 769 341 785 c 0
1251 557 m 0
 1251 619 1173 784 992 784 c 0
 930 784 855 765 767 714 c 1
 870 477 l 1
 955 490 1251 548 1251 557 c 0
265 295 m 27
 265 177.530273438 384 113 505 113 c 0
 600 113 695 147 735 208 c 1
 652 378 612 483 568 584 c 1
 538.5 565.5 514.5 552 455 522 c 0
 378.31265394 483.33411123 265 410.448242188 265 295 c 27
EndSplineSet
EndChar

StartChar: b
Encoding: 98 98 108
Width: 1197
VWidth: 0
Flags: HW
LayerCount: 2
Fore
SplineSet
172 822 m 0
 172 1348.79877619 134.078521468 1503 52 1503 c 0
 27 1503 -2 1482 -2 1500 c 0
 -2 1533 123 1664 215 1664 c 0
 355 1664 359 1345 366 1024 c 0
 367 964 369 782 370 722 c 1
 456 801 612 927 773 927 c 0
 966 927 1110 761 1110 556 c 0
 1110 245.964453125 770.069921875 -31 521 -31 c 0
 296 -31 165 168 165 213 c 0
 165 363 172 596 172 822 c 0
926 421 m 0
 926 598 800 761 611 761 c 0
 542 761 420 718 370 640 c 1
 368 423 367 392 365 330 c 1
 448 168 583 123 690 123 c 0
 765 123 826 146 843 166 c 0
 891 226 926 323 926 421 c 0
EndSplineSet
EndChar

StartChar: b.conl
Encoding: 65553 -1 109
Width: 1300
VWidth: 0
Flags: HW
LayerCount: 2
Fore
SplineSet
873 927 m 0
 1067 927 1214 760 1214 554 c 0
 1214 404 1136 233 940 90 c 0
 831 10 727 -30 619 -30 c 0
 356 -30 259 204 259 204 c 1
 259 204 258 204 258 539 c 0
 258 707 258 958 259 1335 c 1
 285 1386 402 1466 445 1466 c 0
 450 1466 454 1465 457 1462 c 1
 458 718 l 1
 462 714 658 927 873 927 c 0
787 121 m 0
 864 121 924 143 937 158 c 0
 977 204 1027 299 1027 423 c 0
 1027 589 913 761 705 761 c 0
 649 761 525 728 458 637 c 1
 458 332 l 1
 543 164 680 121 787 121 c 0
EndSplineSet
EndChar

StartChar: c
Encoding: 99 99 110
Width: 982
VWidth: 0
Flags: HW
LayerCount: 2
Fore
SplineSet
568 137 m 0
 791 137 849 284 908 284 c 0
 913 284 915 282 915 277 c 0
 915 230 689 -30 418 -30 c 0
 182 -30 58 191 58 383 c 0
 58 709 412 927 605 927 c 0
 837 927 927 754 927 754 c 1
 927 721 787 619 740 619 c 0
 723 619 692 707 568 758 c 0
 524 776 476 783 435 783 c 0
 384 783 344 773 334 762 c 0
 306 731 249 640 249 514 c 0
 249 299 393 137 568 137 c 0
EndSplineSet
EndChar

StartChar: cent
Encoding: 162 162 111
Width: 982
VWidth: 0
Flags: HW
LayerCount: 2
Fore
SplineSet
569 137 m 0
 788 137 850 284 908 284 c 0
 913 284 915 282 915 277 c 0
 915 231 697 -19 436 -30 c 0
 429 -30 423 -31 423 -31 c 1
 421 -33 346 -294 336 -320 c 0
 314 -375 219 -477 191 -477 c 0
 186 -477 184 -474 184 -467 c 0
 184 -458 315 -20 315 -15 c 0
 315 -12 151 26 82 235 c 0
 65 285 58 333 58 380 c 0
 58 676 358 909 593 927 c 1
 630 1052 677 1212 681 1220 c 0
 707 1280 798 1372 825 1372 c 0
 830 1372 832 1369 832 1363 c 0
 832 1346 703 928 703 917 c 0
 703 910 785 910 878 817 c 0
 905 790 927 759 927 754 c 0
 927 721 787 619 740 619 c 0
 734 619 732 621 727 628 c 0
 689 684 643 715 643 715 c 1
 642 714 629 671 476 152 c 1
 504 141 536 137 569 137 c 0
545 765 m 0
 545 774 489 783 434 783 c 0
 391 783 348 777 334 762 c 0
 306 731 249 640 249 514 c 0
 249 311 378 208 381 208 c 0
 382 208 545 764 545 765 c 0
EndSplineSet
EndChar

StartChar: d
Encoding: 100 100 112
Width: 1188
VWidth: 0
Flags: HW
LayerCount: 2
Fore
SplineSet
740 1504 m 0
 723 1504 700 1492 689 1492 c 0
 685 1492 682 1494 682 1499 c 0
 682 1531 804 1664 902 1664 c 0
 1010 1664 1027 1496 1030 1193 c 0
 1037 459 1018 170 1079 162 c 0
 1085 161 1087 158 1087 153 c 0
 1087 119 958 1 914 1 c 0
 856 1 844 142 840 180 c 1
 754 98 596 -30 433 -30 c 0
 252 -30 83 120 83 342 c 0
 83 456 118 586 208 693 c 0
 277 775 457 927 639 927 c 0
 764 927 831 865 833 868 c 0
 834 870 835 1048 835 1153 c 0
 835 1350 816 1504 740 1504 c 0
832 633 m 2
 832 697 l 1
 831 697 760 638 730 638 c 0
 713 638 646 783 452 783 c 0
 437 783 406 780 377 771 c 1
 369 761 276 655 276 470 c 0
 276 276 419 131 594 131 c 0
 677 131 781 174 835 261 c 1
 832 341 832 420 832 633 c 2
EndSplineSet
EndChar

StartChar: eth
Encoding: 240 240 113
Width: 1112
VWidth: 0
Flags: HW
LayerCount: 2
Fore
SplineSet
717 922 m 1
 674.188947181 1044.16105923 550.577220234 1234 544 1234 c 0
 541 1234 277 1067 261 1059 c 0
 251 1054 242 1053 242 1065 c 0
 242 1097 311 1189 361 1226 c 0
 370 1233 488 1304 488 1306 c 0
 488 1307 340 1502 170 1521 c 1
 164 1518 115 1492 94 1492 c 0
 88 1492 85 1494 85 1499 c 0
 85 1539 266 1664 346 1664 c 0
 415 1664 535 1622 692 1433 c 1
 894 1559 951 1598 966 1598 c 0
 971 1598 971 1595 971 1589 c 0
 971 1557 903 1466 853 1429 c 0
 839 1418 747 1363 747 1361 c 0
 747 1359 1031 983 1031 522 c 0
 1031 455 1034 239 727 53 c 0
 634 -3 551 -30 468 -30 c 0
 237 -30 80 168 80 385 c 0
 80 484 113 587 187 677 c 0
 261 767 449 927 646 927 c 0
 688 927 703 922 717 922 c 1
278 513 m 0
 278 297 439 113 643 113 c 0
 671 113 734 118 750 137 c 0
 792 186 834 276 834 391 c 0
 834 531 821 636 699 717 c 0
 624 767 533 783 465 783 c 0
 420 783 384 776 368 767 c 0
 354 759 278 658 278 513 c 0
EndSplineSet
EndChar

StartChar: e
Encoding: 101 101 114
Width: 1021
VWidth: 0
Flags: HW
LayerCount: 2
Fore
SplineSet
947 284 m 0
 952 284 954 282 954 277 c 0
 954 229 728 -30 442 -30 c 0
 196 -30 58 184 58 383 c 0
 58 697 411 928 635 928 c 0
 803 928 927 823 927 711 c 0
 927 657 906 622 846 577 c 0
 740 497 669 495 616 478 c 0
 511 445 326 361 286 342 c 1
 310 291 377 137 588 137 c 0
 830 137 893 284 947 284 c 0
460 784 m 0
 423 784 388 778 358 768 c 0
 307 752 249 627 249 517 c 0
 249 473 258 430 265 412 c 1
 306 430 525 535 722 604 c 1
 705 730 575 784 460 784 c 0
EndSplineSet
EndChar

StartChar: g
Encoding: 103 103 115
Width: 1111
VWidth: 0
Flags: HW
LayerCount: 2
Fore
SplineSet
402 67 m 0
 232 67 81 195 81 387 c 0
 81 719 439 927 617 927 c 0
 675 927 716 919 765 897 c 1
 1200 896 l 1
 1202 894 1203 891 1203 887 c 0
 1203 848 1071 738 1021 738 c 0
 1003 738 959 740 932 741 c 1
 977 662 992 581 992 513 c 0
 992 361 843 250 843 116 c 0
 843 -52 1063 -96 1063 -258 c 0
 1063 -505 658 -767 368 -767 c 0
 99 -767 9 -535 9 -519 c 0
 9 -486 150 -385 194 -385 c 0
 206 -385 205 -387 211 -401 c 0
 254 -509 368 -624 541 -624 c 0
 651 -624 773 -584 803 -550 c 0
 838 -510 866 -453 866 -388 c 0
 866 -233 645 -189 645 -13 c 0
 645 135 794 243 794 388 c 0
 794 581 658 783 447 783 c 0
 351 783 352 756 351 754 c 0
 309 696 278 609 278 512 c 0
 278 341 421 210 576 210 c 0
 621 210 635 219 635 205 c 0
 635 179 539 100 472 75 c 0
 455 69 438 67 402 67 c 0
EndSplineSet
EndChar

StartChar: h
Encoding: 104 104 116
Width: 1108
VWidth: 0
Flags: HW
LayerCount: 2
Fore
SplineSet
372 126 m 0
 372 75 70 -21 42 -21 c 0
 33 -21 27 -18 27 -12 c 0
 27 24 131 30 152 135 c 0
 156 154 156 1010 156 1112 c 0
 156 1371.5109375 137.8 1513 65 1513 c 0
 46 1513 30 1501 15 1501 c 0
 9 1501 7 1504 7 1508 c 0
 7 1539 140 1664 227 1664 c 0
 349 1664 357 1465 357 1200 c 0
 357 1106 357.298697267 776.987283142 358 730 c 1
 374 743.333333333 511 896 723 896 c 0
 860 896 968 804 987 682 c 0
 991 653 992 558 992 467 c 0
 992 378 991 293 991 281 c 0
 991 137 1038 168 1038 155 c 0
 1038 120 908 1 863 1 c 0
 800 1 789 117 789 271 c 0
 789 348 792 434 792 520 c 0
 792 655 674 750 552 750 c 0
 422 750 388 680 357 630 c 1
 359 272 358 215 369 145 c 0
 371 134 372 129 372 126 c 0
EndSplineSet
EndChar

StartChar: h.conl
Encoding: 65554 -1 117
Width: 1211
VWidth: 0
Flags: HW
LayerCount: 2
Fore
SplineSet
474 126 m 0
 474 75 174 -21 144 -21 c 0
 135 -21 130 -18 130 -12 c 0
 130 9 199 44 210 55 c 0
 252 97 255 134 255 173 c 2
 255 196 l 2
 255 204 258 761 260 1335 c 1
 285 1385 402 1466 445 1466 c 0
 450 1466 454 1465 457 1462 c 1
 458 949 459 876 460 729 c 1
 521 782 655 896 825 896 c 0
 955 896 1089 806 1092 643 c 0
 1094 563 1094 496 1094 439 c 2
 1094 329 l 2
 1094 209 1097 165 1130 162 c 0
 1137 161 1140 160 1140 155 c 0
 1140 120 1011 1 966 1 c 0
 902 1 892 121 892 277 c 0
 892 352 894 437 894 519 c 0
 894 654 777 750 654 750 c 0
 524 750 491 680 460 631 c 1
 461 346 459 213 473 137 c 0
 474 132 474 127 474 126 c 0
EndSplineSet
EndChar

StartChar: dotlessi
Encoding: 305 305 118
Width: 537
VWidth: 0
Flags: HW
LayerCount: 2
Fore
SplineSet
241 1 m 0
 174 1 169 118 169 207 c 2
 169 251 l 2
 169 422 171 479 171 536 c 0
 171 649 133 736 81 736 c 0
 70 736 40 718 40 736 c 0
 40 768 166 896 241 896 c 0
 316 896 360 803 366 675 c 0
 369 602 370 536 370 477 c 0
 370 417 369 364 369 320 c 0
 369 218 374 162 404 162 c 0
 412 162 415 158 415 153 c 0
 415 120 289 1 241 1 c 0
EndSplineSet
EndChar

StartChar: dotlessi.conl
Encoding: 65555 -1 119
Width: 537
VWidth: 0
Flags: HW
LayerCount: 2
Fore
SplineSet
241 1 m 0
 179 1 168 96 168 247 c 0
 168 332 171 434 171 547 c 0
 171 591 157 709 75 732 c 0
 67 735 47 735 23 735 c 2
 -12 735 l 2
 -53 735 -93 736 -93 746 c 0
 -93 776 25 893 93 897 c 1
 122 897 148 898 172 898 c 0
 247 898 297 888 336 807 c 0
 368 740 369 699 370 356 c 0
 370 205 373 162 404 162 c 0
 412 162 415 158 415 153 c 0
 415 120 289 1 241 1 c 0
EndSplineSet
EndChar

StartChar: uni0237
Encoding: 567 567 120
Width: 513
VWidth: 0
Flags: HW
LayerCount: 2
Fore
SplineSet
260 896 m 0
 366 896 392 757 392 215 c 2
 392 141 l 2
 392 -251 388 -374 263 -524 c 0
 185 -618 -4 -768 -182 -768 c 0
 -303 -768 -360 -665 -360 -658 c 0
 -360 -626 -215 -539 -164 -539 c 0
 -145 -539 -117 -625 -4 -625 c 0
 86 -625 92 -596 92 -596 c 1
 139 -534 171 -447 180 -357 c 0
 185 -300 194 -12 194 218 c 0
 194 450 194 596 161 678 c 0
 143 724 119 736 98 736 c 0
 76 736 56 724 47 724 c 0
 43 724 41 726 41 731 c 0
 41 764 163 896 260 896 c 0
EndSplineSet
EndChar

StartChar: uni0237.conl
Encoding: 65556 -1 121
Width: 513
VWidth: 0
Flags: HW
LayerCount: 2
Fore
SplineSet
393 276 m 0
 393 254.666666667 393 233.333333333 393 212 c 0
 393 -248 392 -369 263 -524 c 0
 185 -618 -4 -768 -182 -768 c 0
 -303 -768 -360 -665 -360 -658 c 0
 -360 -626 -215 -539 -164 -539 c 0
 -145 -539 -117 -625 -4 -625 c 0
 86 -625 92 -596 92 -596 c 1
 140 -534 172 -447 180 -357 c 0
 187 -285 195 78 195 368 c 0
 195 697.00703125 133 734 40 734 c 2
 -23 734 l 2
 -60 734 -93 735 -93 745 c 0
 -93 775 27 893 93 897 c 0
 96 897 124 898 155 898 c 0
 188 898 225 897 244 893 c 0
 390 863 393 636 393 276 c 0
EndSplineSet
EndChar

StartChar: k
Encoding: 107 107 122
Width: 1073
VWidth: 0
Flags: HW
LayerCount: 2
Fore
SplineSet
372 126 m 0
 372 75 71 -21 42 -21 c 0
 33 -21 27 -18 27 -12 c 0
 27 24 131 30 152 135 c 0
 156 154 156 1010 156 1112 c 0
 156 1287.82276845 154.435799979 1435.51391541 102 1494 c 0
 89 1508 76 1513 65 1513 c 0
 46 1513 30 1501 15 1501 c 0
 9 1501 7 1504 7 1508 c 0
 7 1539 140 1664 227 1664 c 0
 349 1664 357 1463 357 1196 c 2
 357 1077 l 2
 357 1076 358 737 358 737 c 1
 358 737 568 896 725 896 c 0
 868 896 944 798 944 702 c 0
 944 544 742 460 720 452 c 1
 742 434 740 459 887 265 c 0
 941 193 980 141 1008 141 c 0
 1014 141 1038 147 1038 135 c 0
 1038 106 906 0 847 0 c 0
 732 0 658 256 474 369 c 0
 460 378 458 380 458 383 c 0
 458 398 520 458 671 490 c 1
 707 529 724 574 724 618 c 0
 724 705 656 783 535 784 c 1
 475 753 390 681 357 618 c 1
 359 276 358 214 369 145 c 0
 371 134 372 129 372 126 c 0
EndSplineSet
EndChar

StartChar: k.conl
Encoding: 65557 -1 123
Width: 1176
VWidth: 0
Flags: HW
LayerCount: 2
Fore
SplineSet
474 126 m 0
 474 75 174 -21 144 -21 c 0
 135 -21 130 -18 130 -12 c 0
 130 9 199 44 210 55 c 0
 252 97 255 134 255 173 c 2
 255 196 l 2
 255 204 258 761 260 1335 c 1
 285 1385 402 1466 445 1466 c 0
 450 1466 454 1465 457 1462 c 1
 458 954 458 881 460 736 c 1
 611 849 753 896 827 896 c 0
 974 896 1047 793 1047 704 c 0
 1047 540 823 457 823 452 c 0
 823 446 857 437 951 317 c 1
 1037 203 1078 141 1110 141 c 0
 1116 141 1141 147 1141 135 c 0
 1141 106 1009 0 950 0 c 0
 834 0 760 256 576 369 c 0
 562 378 561 380 561 383 c 0
 561 395 614 456 773 490 c 1
 810 529 827 574 827 618 c 0
 827 705 758 783 638 784 c 1
 573 750 485 671 460 617 c 1
 461 340 459 211 473 137 c 0
 474 132 474 127 474 126 c 0
EndSplineSet
EndChar

StartChar: l
Encoding: 108 108 124
Width: 512
VWidth: 0
Flags: HW
LayerCount: 2
Fore
SplineSet
63 1504 m 0
 47 1504 24 1492 12 1492 c 0
 7 1492 5 1494 5 1499 c 0
 5 1531 127 1664 225 1664 c 0
 326 1664 350.868109518 1502.06409383 352 1317 c 2
 356 594 l 2
 356 328 361 168 403 162 c 0
 409 161 411 158 411 153 c 0
 411 119 281 1 237 1 c 0
 167 1 155 184 155 503 c 0
 155 677 158 890 158 1137 c 0
 158 1354 139 1504 63 1504 c 0
EndSplineSet
EndChar

StartChar: l.conl
Encoding: 65558 -1 125
Width: 615
VWidth: 0
Flags: HW
LayerCount: 2
Fore
SplineSet
345 1 m 0
 288 1 255 136 255 830 c 0
 255 973 256 1140 259 1335 c 1
 285 1386 402 1466 445 1466 c 0
 450 1466 454 1465 457 1462 c 1
 459 1302 460 1155 460 1022 c 0
 460 903 459 796 459 700 c 0
 459 360 464 169 511 162 c 0
 516 161 518 158 518 154 c 0
 518 121 392 1 345 1 c 0
EndSplineSet
EndChar

StartChar: m
Encoding: 109 109 126
Width: 1663
VWidth: 0
Flags: HW
LayerCount: 2
Fore
SplineSet
753 503 m 0
 753 644 676 749 561 749 c 0
 427 749 371 679 351 656 c 1
 360 604 350 192 372 125 c 1
 338 60 164 17 135 5 c 1
 93 -14 63 -21 45 -21 c 0
 33 -21 27 -18 27 -12 c 0
 27 9 97 44 109 56 c 0
 161.730453715 109.928873118 156 149.021449552 156 392 c 0
 156 596 137 745 62 745 c 0
 47 745 7 722 7 741 c 0
 7 776 146 896 227 896 c 0
 337 896 338 729 344 727 c 1
 352 727 509 896 730 896 c 1
 896.304613986 900.147866783 930.865012944 744.902749178 940 725 c 1
 964 742 1115 896 1323 896 c 0
 1460 896 1544 796.166992188 1544 674 c 27
 1544 520.727539062 1546 301.119284779 1546 281 c 3
 1546 154 1594 168 1594 155 c 0
 1594 120 1464 1 1419 1 c 0
 1355 1 1345 121 1345 275 c 0
 1345 348 1347 428 1347 507 c 0
 1347 687 1232 750 1155 750 c 0
 1021 750 964 672 950 656 c 1
 956 103 l 1
 934 55 802 -15 760 -15 c 0
 750 -15 747 -14 747 24 c 0
 747 77 753 204 753 503 c 0
EndSplineSet
EndChar

StartChar: m.conl
Encoding: 65559 -1 127
Width: 1663
VWidth: 0
Flags: HW
LayerCount: 2
Fore
SplineSet
354 654 m 0
 354 610 354 234 372 125 c 1
 341 61 155 15 138 7 c 0
 110 -6 66 -21 43 -21 c 0
 33 -21 27 -19 27 -12 c 0
 27 9 97 44 109 56 c 0
 152 99 156 119 156 318 c 2
 156 465 l 2
 156 581 136 740 19 740 c 0
 -36 740 -64 738 -78 738 c 0
 -91 738 -93 740 -93 746 c 0
 -93 777 30 896 91 896 c 2
 128 896 l 2
 219 896 282 890 325 787 c 0
 338 755 344 725 344 725 c 1
 351 725 515 896 727 896 c 0
 900 896 937 728 940 725 c 1
 946 725 1114 896 1323 896 c 0
 1460 896 1534 785 1544 674 c 0
 1547 635 1548 564 1548 493 c 0
 1548 387 1546 281 1546 281 c 1
 1546 137 1594 168 1594 155 c 0
 1594 120 1464 1 1419 1 c 0
 1355 1 1345 121 1345 275 c 0
 1345 348 1347 428 1347 507 c 0
 1347 687 1232 750 1155 750 c 0
 1020 750 964 671 950 656 c 1
 956 103 l 1
 935 55 803 -15 761 -15 c 0
 751 -15 748 -15 748 24 c 0
 748 76 753 197 753 483 c 0
 753 512 753 533 752 540 c 0
 742 655 664 749 561 749 c 0
 412 749 354 655 354 654 c 0
EndSplineSet
EndChar

StartChar: n
Encoding: 110 110 128
Width: 1108
VWidth: 0
Flags: HW
LayerCount: 2
Fore
SplineSet
372 126 m 0
 372 75 70 -21 42 -21 c 0
 33 -21 27 -18 27 -12 c 0
 27 9 97 44 109 56 c 0
 161.730453715 109.928873118 156 149.021449552 156 392 c 0
 156 596 137 745 62 745 c 0
 47 745 7 722 7 741 c 0
 7 776 146 896 227 896 c 0
 316 896 344 754 345 723 c 1
 396 772 512 896 723 896 c 0
 860 896 968 804 987 682 c 0
 994.446003647 628.016473557 991 425.840163642 991 281 c 0
 991 137 1038 168 1038 155 c 0
 1038 120 908 1 863 1 c 0
 800 1 789 117 789 271 c 0
 789 348 792 434 792 520 c 0
 792 651 679 750 551 750 c 0
 412 750 373 664 353 634 c 1
 361 500 352 253 369 145 c 0
 371 134 372 129 372 126 c 0
EndSplineSet
EndChar

StartChar: n.conl
Encoding: 65560 -1 129
Width: 1108
VWidth: 0
Flags: HW
LayerCount: 2
Fore
SplineSet
551 750 m 0
 417 750 379 673 355 634 c 1
 361 273 353 237 372 125 c 1
 341 61 155 15 138 7 c 0
 110 -6 66 -21 43 -21 c 0
 33 -21 27 -19 27 -12 c 0
 27 9 97 44 109 56 c 0
 152 99 156 119 156 318 c 2
 156 465 l 2
 156 581 136 740 19 740 c 0
 -36 740 -64 738 -78 738 c 0
 -91 738 -93 740 -93 746 c 0
 -93 777 30 896 91 896 c 2
 137 896 l 2
 219 896 283 888 325 787 c 0
 343 743 340 722 345 722 c 0
 351 722 511 896 722 896 c 0
 859 896 968 804 987 682 c 0
 991 653 992 558 992 467 c 0
 992 378 991 293 991 281 c 0
 991 137 1038 168 1038 155 c 0
 1038 120 908 1 863 1 c 0
 800 1 789 117 789 271 c 0
 789 348 792 434 792 520 c 0
 792 651 679 750 551 750 c 0
EndSplineSet
EndChar

StartChar: eng
Encoding: 331 331 130
Width: 1108
VWidth: 0
Flags: HW
LayerCount: 2
Fore
SplineSet
334 -489 m 0
 348 -489 385 -603 543 -603 c 0
 638 -603 727 -560 738 -544 c 0
 797 -461 798 -370 798 -323 c 2
 798 -318 l 2
 798 -316 794 434 790 472 c 0
 776 597 702 750 551 750 c 0
 504 750 446 734 416 712 c 0
 400 700 380 676 352 634 c 1
 362 533 347 274 372 125 c 1
 338 60 164 17 135 5 c 1
 93 -14 63 -21 45 -21 c 0
 33 -21 27 -18 27 -12 c 0
 27 9 97 44 109 56 c 0
 153 101 156 132 156 286 c 2
 156 392 l 2
 156 596 137 745 62 745 c 0
 47 745 7 722 7 741 c 0
 7 776 146 896 227 896 c 0
 340 896 338 722 345 722 c 0
 354 722 503 896 719 896 c 0
 864 896 989 770 989 553 c 0
 989 414 985 -195 982 -231 c 0
 960 -480 649 -767 366 -767 c 0
 218 -767 170 -655 170 -653 c 0
 170 -616 293 -489 334 -489 c 0
EndSplineSet
EndChar

StartChar: o
Encoding: 111 111 131
Width: 1112
VWidth: 0
Flags: HW
LayerCount: 2
Fore
SplineSet
463 -29 m 0
 233 -29 80 175 80 381 c 0
 80 559 172 705 355 826 c 0
 461 897 560 926 648 926 c 0
 878 926 1031 722 1031 516 c 0
 1031 338 939 192 756 71 c 0
 650 1 551 -29 463 -29 c 0
833 377 m 0
 833 575 699 783 462 783 c 0
 425 783 386 775 369 768 c 0
 359 764 278 663 278 513 c 0
 278 297 438 113 643 113 c 0
 671 113 734 118 750 137 c 0
 806 202 833 289 833 377 c 0
EndSplineSet
EndChar

StartChar: ordmasculine
Encoding: 186 186 132
Width: 722
VWidth: 0
Flags: HW
LayerCount: 2
Fore
SplineSet
18 1123 m 0
 18 1360 317 1523 444 1523 c 0
 607 1523 704 1394 704 1253 c 0
 704 1192 686 1129 647 1073 c 0
 594 996 423 851 274 851 c 0
 124 851 18 979 18 1123 c 0
507 1129 m 0
 507 1271 396 1380 273 1380 c 0
 264 1380 256 1379 247 1378 c 1
 228 1338 215 1303 215 1252 c 0
 215 1130 302 995 455 995 c 0
 469 995 471 995 475 996 c 1
 497 1042 507 1087 507 1129 c 0
EndSplineSet
EndChar

StartChar: oslash
Encoding: 248 248 133
Width: 1112
VWidth: 0
Flags: HW
LayerCount: 2
Fore
SplineSet
1032 510 m 0
 1032 205.794058204 686.350481886 -31 463 -31 c 0
 321 -31 243 50 235 50 c 0
 230 50 203 17 137 -15 c 0
 115 -26 101 -30 92 -30 c 0
 84 -30 81 -27 81 -23 c 0
 81 -9 108 18 184 100 c 1
 124 171 80 274 80 388 c 0
 80 539 158 707 384 844 c 0
 470 896 558 927 645 927 c 0
 724 927 801 902 876 845 c 1
 946 904 997 927 1019 927 c 0
 1027 927 1031 924 1031 919 c 0
 1031 900 972 849 927 796 c 1
 994 713 1032 613 1032 510 c 0
465 783 m 0
 423 783 389 776 369 768 c 0
 353 762 277 654 277 509 c 0
 277 438 295 358 348 278 c 1
 717 676 l 1
 635 760 538 783 465 783 c 0
833 384 m 0
 833 514 767 618 763 618 c 0
 761 618 396 221 395 220 c 1
 476 136 573 113 646 113 c 0
 701 113 741 126 750 137 c 0
 782 174 833 261 833 384 c 0
EndSplineSet
EndChar

StartChar: p
Encoding: 112 112 134
Width: 1205
VWidth: 0
Flags: HW
LayerCount: 2
Fore
SplineSet
822 927 m 0
 1039 927 1124 695 1124 516 c 0
 1124 352 1044 220 892 105 c 0
 765 10 657 -30 556 -30 c 0
 487 -30 422 -11 358 20 c 1
 358 -108 357 -207 357 -283 c 0
 357 -558.01714756 390 -535.825396427 390 -554 c 0
 390 -564 371 -583 323 -610 c 0
 280 -634 246 -691 121 -752 c 0
 69 -777 29 -789 8 -789 c 0
 -3 -789 -9 -786 -9 -780 c 0
 -9 -746 130 -723 152 -551 c 0
 155 -531 156 323 156 328 c 0
 156 605.215625 137.8 745 65 745 c 0
 46 745 30 733 15 733 c 0
 10 733 7 736 7 740 c 0
 7 771 136 896 232 896 c 0
 332 896 341 732 348 692 c 1
 433 774 604 927 822 927 c 0
650 780 m 0
 473 780 401 666 355 589 c 1
 357 519 356 309 357 146 c 1
 416 185 458 203 478 203 c 0
 494 203 568 114 724 114 c 0
 776 114 833 127 840 136 c 0
 899 205 927 303 927 402 c 0
 927 590 826 780 650 780 c 0
EndSplineSet
EndChar

StartChar: p.conl
Encoding: 65561 -1 135
Width: 1205
VWidth: 0
Flags: HW
LayerCount: 2
Fore
SplineSet
154 -487 m 0
 154 -298 156 81 156 459 c 0
 156 537 152 740 19 740 c 0
 -36 740 -64 738 -78 738 c 0
 -91 738 -93 740 -93 746 c 0
 -93 778 32 896 91 896 c 0
 204 896 251 895 294 840 c 0
 344 776 347 692 349 692 c 0
 354 692 557 927 820 927 c 0
 1039 927 1124 698 1124 514 c 0
 1124 397 1084 228 844 71 c 0
 738 2 640 -30 549 -30 c 0
 481 -30 417 -12 357 21 c 1
 359 -462 354 -497 387 -548 c 0
 388 -550 388 -552 388 -554 c 0
 388 -572 353 -595 316 -614 c 0
 285 -631 245 -692 121 -752 c 0
 69 -777 29 -789 8 -789 c 0
 -3 -789 -9 -786 -9 -780 c 0
 -9 -731 154 -742 154 -487 c 0
652 780 m 0
 467 780 396 658 356 588 c 1
 357 155 356 147 357 146 c 0
 358 145 437 203 479 203 c 0
 489 203 584 112 722 112 c 0
 755 112 791 117 828 130 c 0
 854 139 927 244 927 388 c 0
 927 545 853 780 652 780 c 0
EndSplineSet
EndChar

StartChar: thorn
Encoding: 254 254 136
Width: 1205
VWidth: 0
Flags: HW
LayerCount: 2
Fore
SplineSet
358 -253 m 2
 358 -468 361 -509 388 -549 c 0
 389 -550 390 -552 390 -554 c 0
 390 -564 371 -583 323 -610 c 0
 280 -634 246 -691 121 -752 c 0
 69 -777 29 -789 8 -789 c 0
 -3 -789 -9 -786 -9 -780 c 0
 -9 -746 129 -724 152 -551 c 0
 154 -532 156 1118 156 1125 c 0
 156 1373 138 1512 64 1512 c 0
 38 1512 7 1490 7 1509 c 0
 7 1543 145 1664 227 1664 c 0
 348 1664 356 1476 356 1184 c 2
 356 1033 l 2
 356 1000 356 966 357 698 c 1
 569 907 739 927 826 927 c 0
 1039 927 1124 694 1124 515 c 0
 1124 484 1127 346 1003 206 c 0
 909 99 728 -30 544 -30 c 0
 481 -30 418 -15 358 21 c 1
 358 -253 l 2
927 391 m 0
 927 551 849 780 652 780 c 0
 470 780 401 663 357 587 c 1
 358 147 357 147 358 146 c 0
 360 144 435 203 480 203 c 0
 488 203 589 111 725 111 c 0
 759 111 794 117 831 131 c 0
 847 137 927 231 927 391 c 0
EndSplineSet
EndChar

StartChar: q
Encoding: 113 113 137
Width: 1188
VWidth: 0
Flags: HW
LayerCount: 2
Fore
SplineSet
80 342 m 0
 80 672 430 896 637 896 c 0
 703 896 783 879 866 823 c 1
 939 865 1028 891 1067 891 c 0
 1080 891 1088 888 1088 882 c 0
 1088 866 1059 851 1053 838 c 0
 1037 802 1035 794 1035 484 c 2
 1035 132 l 2
 1035 -133 1036 -385 1037 -407 c 0
 1043 -493 1066 -513 1066 -521 c 0
 1066 -534 1033 -561 983 -586 c 0
 952 -601 906 -676 776 -743 c 0
 716 -774 668 -789 644 -789 c 0
 634 -789 628 -787 628 -781 c 0
 628 -770 653 -747 689 -727 c 0
 689.003100236 -726.998256117 807.98216157 -658.124869009 828 -518 c 0
 830 -506 830 -168 830 33 c 2
 830 168 l 1
 827 168 633 -30 424 -30 c 0
 234 -30 80 133 80 342 c 0
725 649 m 0
 705 649 636 753 452 753 c 0
 364 753 357 723 357 723 c 1
 297 643 278 540 278 471 c 0
 278 263 435 116 593 116 c 0
 681 116 769 161 831 267 c 1
 825 691 l 1
 777.903073983 663.526793157 745 649 725 649 c 0
EndSplineSet
EndChar

StartChar: r
Encoding: 114 114 138
Width: 928
VWidth: 0
Flags: HW
LayerCount: 2
Fore
SplineSet
348 691 m 1
 386 736 550.088041501 896.115723578 750 896 c 1
 850 896 890 787 961 787 c 0
 972 787 990 793 990 781 c 0
 990 757 869 645 787 645 c 0
 697 645 661 749 579 749 c 7
 448 749 372 632 354 588 c 1
 354.666666667 573.333333333 356 554.085234574 356 410 c 3
 356 132 382 146 382 126 c 0
 382 70 65 -21 42 -21 c 0
 33 -21 27 -18 27 -12 c 0
 27 9 97 44 109 56 c 0
 161.730453715 109.928873118 156 149.021449552 156 392 c 0
 156 596 137 745 62 745 c 0
 47 745 7 722 7 741 c 0
 7 776 146 896 227 896 c 0
 323.8 896 337.65553358 773.755731358 348 691 c 1
EndSplineSet
EndChar

StartChar: r.conl
Encoding: 65562 -1 139
Width: 928
VWidth: 0
Flags: HW
LayerCount: 2
Fore
SplineSet
-93 746 m 0
 -93 777 30 896 91 896 c 0
 204 896 251 895 294 840 c 0
 345 774 345 692 350 692 c 0
 353 692 549 896 750 896 c 0
 851 896 890 787 961 787 c 0
 972 787 990 793 990 781 c 0
 990 757 869 645 787 645 c 0
 698 645 660 749 579 749 c 0
 490 749 410 695 356 590 c 1
 360 311 352 206 378 139 c 0
 378 138 382 129 382 126 c 0
 382 114 335 58 169 15 c 0
 141 8 72 -21 42 -21 c 0
 33 -21 27 -18 27 -12 c 0
 27 9 97 44 109 56 c 0
 152 99 156 119 156 318 c 2
 156 465 l 2
 156 581 136 740 19 740 c 0
 -36 740 -64 738 -78 738 c 0
 -91 738 -93 740 -93 746 c 0
EndSplineSet
EndChar

StartChar: r.round
Encoding: 65563 -1 140
Width: 678
VWidth: 0
Flags: HW
LayerCount: 2
Fore
SplineSet
692 171 m 0
 692 150 567 -17 372 -17 c 0
 304 -17 215 -4 26 -4 c 0
 -65 -4 -107 -7 -127 -7 c 0
 -142 -7 -144 -5 -144 1 c 0
 -144 28 -65 104 -5 137 c 0
 12 146 202 222 297 298 c 0
 360 349 407 449 407 554 c 0
 407 690 288 776 163 776 c 0
 138 776 79 773 49 744 c 0
 7 703 -60 656 -84 656 c 0
 -89 656 -93 658 -93 664 c 0
 -93 700 125 934 324 934 c 0
 500 934 593 817 593 696 c 0
 593 588 554 394 193 155 c 1
 467 150 466 141 535 141 c 0
 649 141 645 179 682 179 c 0
 688 179 692 176 692 171 c 0
EndSplineSet
EndChar

StartChar: s
Encoding: 115 115 141
Width: 955
VWidth: 0
Flags: HW
LayerCount: 2
Fore
SplineSet
242 284 m 0
 260 284 320 113 538 113 c 0
 579 113 625 119 677 133 c 1
 687 158 690 175 690 198 c 0
 690 482 119 295 119 594 c 0
 119 633 123 718 300 833 c 0
 379 884 477 927 594 927 c 0
 781 927 858 801 858 797 c 0
 858 765 721 662 672 662 c 0
 654 662 593 784 423 784 c 0
 380 784 326 774 324 772 c 0
 322 770 316 746 316 723 c 0
 316 438 887 626 887 326 c 0
 887 262 862 215 808 161 c 0
 713 66 555 -30 357 -30 c 0
 133 -30 55 145 55 149 c 0
 55 179 191 284 242 284 c 0
EndSplineSet
EndChar

StartChar: t
Encoding: 116 116 142
Width: 853
VWidth: 0
Flags: HW
LayerCount: 2
Fore
SplineSet
591 123 m 0
 731 123 776 238 830 238 c 0
 835 238 838 236 838 231 c 0
 838 193 658 -30 437 -30 c 0
 304 -30 215 74 215 201 c 0
 215 308 224 308 224 734 c 1
 202 733 24 724 2 724 c 0
 -7 724 -9 726 -9 731 c 0
 -9 769 103 884 148 895 c 1
 168.984450235 898.497408372 205.6 896 220 896 c 1
 212 1013 192 1057 173 1057 c 0
 167 1057 164 1060 164 1064 c 0
 164 1093 291 1203 348 1203 c 0
 390 1203 419 1142 419 896 c 1
 653 896 760 899 809 899 c 0
 850 899 850 897 850 889 c 0
 850 863 755 784 688 759 c 0
 658 748 530 749 421 742 c 1
 421 402 416 359 416 317 c 0
 416 225 481 123 591 123 c 0
EndSplineSet
EndChar

StartChar: t.conl
Encoding: 65564 -1 143
Width: 853
VWidth: 0
Flags: HW
LayerCount: 2
Fore
SplineSet
224 678 m 0
 224 706 225 722 225 731 c 0
 225 743 223 744 216 744 c 2
 215 744 l 2
 177 744 18 738 -82 738 c 0
 -88 738 -93 738 -93 745 c 0
 -93 773 2 869 76 896 c 1
 220 896 l 1
 212 1013 192 1057 173 1057 c 0
 167 1057 164 1060 164 1064 c 0
 164 1093 291 1203 348 1203 c 0
 390 1203 419 1142 419 896 c 1
 653 896 760 899 809 899 c 0
 850 899 850 897 850 889 c 0
 850 863 755 784 688 759 c 0
 661 749 423 748 421 748 c 1
 421 403 416 360 416 317 c 0
 416 224 482 123 591 123 c 0
 731 123 776 238 830 238 c 0
 835 238 838 236 838 231 c 0
 838 193 658 -30 437 -30 c 0
 304 -30 215 74 215 201 c 0
 215 296 224 344 224 678 c 0
EndSplineSet
EndChar

StartChar: t.conr
Encoding: 65565 -1 144
Width: 828
VWidth: 0
Flags: HW
LayerCount: 2
Fore
SplineSet
591 123 m 0
 731 123 776 238 830 238 c 0
 835 238 838 236 838 231 c 0
 838 193 658 -30 437 -30 c 0
 304 -30 215 74 215 201 c 0
 215 294 224 350 224 728 c 1
 201 728 41 724 -5 724 c 1
 -7 726 -8 728 -8 732 c 0
 -8 770 100 884 148 895 c 0
 154 896 165 897 178 897 c 0
 196 897 216 896 220 896 c 1
 212 1013 192 1057 173 1057 c 0
 167 1057 164 1060 164 1064 c 0
 164 1093 291 1203 348 1203 c 0
 390 1203 419 1142 419 896 c 1
 637 896 760 897 830 897 c 0
 921 897 921 895 921 888 c 0
 921 858 821 762 758 740 c 0
 745 735 424 732 421 732 c 1
 421 400 416 359 416 317 c 0
 416 225 481 123 591 123 c 0
EndSplineSet
EndChar

StartChar: t.conb
Encoding: 65566 -1 145
Width: 828
VWidth: 0
Flags: HW
LayerCount: 2
Fore
SplineSet
591 123 m 0
 731 123 776 238 830 238 c 0
 835 238 838 236 838 231 c 0
 838 193 658 -30 437 -30 c 0
 304 -30 215 74 215 201 c 0
 215 308 224 308 224 738 c 1
 89 738 11 737 -33 737 c 0
 -93 737 -93 739 -93 746 c 0
 -93 782 27 883 75 895 c 0
 78 896 79 896 99 896 c 2
 220 896 l 1
 212 1013 192 1057 173 1057 c 0
 167 1057 164 1060 164 1064 c 0
 164 1093 291 1203 348 1203 c 0
 390 1203 419 1142 419 896 c 1
 637 896 760 897 830 897 c 0
 921 897 921 895 921 888 c 0
 921 856 808 753 754 739 c 0
 750 738 719 737 674 737 c 0
 609 737 514 738 421 738 c 1
 421 401 416 359 416 317 c 0
 416 225 481 123 591 123 c 0
EndSplineSet
EndChar

StartChar: u
Encoding: 117 117 146
Width: 1147
VWidth: 0
Flags: HW
LayerCount: 2
Fore
SplineSet
163 543 m 0
 163 705.734375 112.6 736 79 736 c 0
 63 736 51 729 44 729 c 0
 40 729 38 731 38 737 c 0
 38 769 158 896 238 896 c 0
 303 896 354 825 358 729 c 0
 363.560413589 584.429246677 357 439.4 357 367 c 0
 357 211 466 113 574 113 c 0
 660 113 790 190 790 401 c 2
 790 497 l 2
 790 768.572292824 759 746.000756198 759 765 c 0
 759 808 964 892 1028 892 c 0
 1040 892 1047 889 1047 882 c 0
 1047 870 1016 848 1012 840 c 0
 995 807 991 803 991 307 c 0
 991 226 994 157 1050 153 c 0
 1061 152 1063 151 1063 145 c 0
 1063 110 926 1 881 1 c 0
 782 1 796 156 791 181 c 1
 714 94 564 -30 414 -30 c 0
 258 -30 155 97 155 240 c 0
 155 360 163 462 163 543 c 0
EndSplineSet
EndChar

StartChar: u.conl
Encoding: 65567 -1 147
Width: 1147
VWidth: 0
Flags: HW
LayerCount: 2
Fore
SplineSet
790 497 m 2
 790 768.572292824 759 746.000756198 759 765 c 0
 759 808 964 892 1028 892 c 0
 1040 892 1047 889 1047 882 c 0
 1047 870 1016 848 1012 840 c 0
 995 807 991 803 991 307 c 0
 991 226 994 157 1050 153 c 0
 1061 152 1063 151 1063 145 c 0
 1063 110 926 1 881 1 c 0
 782 1 796 156 791 181 c 1
 714 94 564 -30 414 -30 c 0
 253 -30 155 103 155 238 c 0
 155 246 163 435 163 580 c 0
 163 724 85 735 5 735 c 0
 -10 735 -25 735 -40 735 c 0
 -70 735 -93 737 -93 746 c 0
 -93 776 27 893 93 897 c 1
 121 897 146 898 170 898 c 0
 208 898 240 895 268 882 c 0
 347 843 361 767 361 633 c 0
 361 561 357 472 357 363 c 0
 357 237 446 113 574 113 c 0
 660 113 790 190 790 401 c 2
 790 497 l 2
EndSplineSet
EndChar

StartChar: v
Encoding: 118 118 148
Width: 1136
VWidth: 0
Flags: HW
LayerCount: 2
Fore
SplineSet
795 781 m 0
 781 781 748 762 748 779 c 0
 748 814 876 927 965 927 c 0
 1012 927 1048 895 1048 803 c 0
 1048 545 774 221 718 159 c 0
 574.808298429 -1.37470575986 494.826647323 -32 468 -32 c 0
 454 -32 454 -20 450 -4 c 0
 380 240 172 720 49 720 c 0
 31 720 18 709 18 725 c 0
 18 756 129 896 203 896 c 0
 264 896 318 821 355 759 c 0
 540 455 604 172 608 172 c 1
 608 172 845 482 845 693 c 0
 845 731 836 781 795 781 c 0
EndSplineSet
EndChar

StartChar: v.conl
Encoding: 65568 -1 149
Width: 1136
VWidth: 0
Flags: HW
LayerCount: 2
Fore
SplineSet
-93 745 m 0
 -93 769 16 898 107 898 c 0
 202 898 234 897 287 845 c 0
 384 751 533 433 601 193 c 0
 602 189 607 172 608 172 c 2
 608 172 845 482 845 693 c 0
 845 731 836 781 795 781 c 0
 781 781 748 762 748 779 c 0
 748 814 876 927 965 927 c 0
 1012 927 1048 895 1048 803 c 0
 1048 545 774 221 718 159 c 0
 643 75 591 23 516 -15 c 0
 494 -26 478 -32 468 -32 c 0
 454 -32 459 -30 425 76 c 0
 355 294 245 504 182 599 c 0
 111 707 58 719 25 721 c 0
 -19 724 -29 730 -84 738 c 0
 -90 739 -93 740 -93 745 c 0
EndSplineSet
EndChar

StartChar: w
Encoding: 119 119 150
Width: 1723
VWidth: 0
Flags: HW
LayerCount: 2
Fore
SplineSet
1055 -32 m 0
 1029 -32 1043 23 934 295 c 1
 773 124 572 -32 512 -32 c 0
 486 -32 460 174 223 554 c 0
 154 665 99 720 51 720 c 0
 35 720 20 709 20 725 c 0
 20 756 131 896 205 896 c 0
 291 896 372 753 435 645 c 0
 526 487 599 325 658 153 c 1
 675 137 l 1
 759 217 826 305 893 401 c 1
 854 492 768 720 703 720 c 0
 695 720 682 713 682 727 c 0
 682 763 797 896 856 896 c 0
 916 896 968 779 1005 692 c 0
 1178 288 1178.99996486 221.999993384 1197 161 c 1
 1283.99996173 239.999992847 1437 464.094726562 1437 691 c 3
 1437 741.089899661 1407 781 1387 781 c 0
 1373 781 1338 762 1338 779 c 0
 1338 810 1468 928 1558 928 c 0
 1605 928 1641 895 1641 800 c 0
 1641 453 1178 -32 1055 -32 c 0
EndSplineSet
EndChar

StartChar: w.conl
Encoding: 65569 -1 151
Width: 1723
VWidth: 0
Flags: HW
LayerCount: 2
Fore
SplineSet
1055 -32 m 0
 1029 -32 1043 23 934 295 c 1
 773 124 572 -32 512 -32 c 0
 502 -32 504 -29 475 47 c 0
 386 282 218 603 117 683 c 0
 59 729 42 713 -43 730 c 0
 -85 738 -93 736 -93 745 c 0
 -93 769 17 898 108 898 c 0
 253 898 291 893 435 645 c 0
 516 505 587 356 658 153 c 1
 675 137 l 1
 759 217 826 305 893 401 c 1
 854 492 768 720 703 720 c 0
 695 720 682 713 682 727 c 0
 682 763 797 896 856 896 c 0
 916 896 968 779 1005 692 c 0
 1178 288 1187 161 1197 161 c 0
 1199 161 1437 467 1437 691 c 0
 1437 769 1407 781 1387 781 c 0
 1373 781 1338 762 1338 779 c 0
 1338 810 1468 928 1558 928 c 0
 1605 928 1641 895 1641 800 c 0
 1641 453 1178 -32 1055 -32 c 0
EndSplineSet
EndChar

StartChar: x
Encoding: 120 120 152
Width: 1021
VWidth: 0
Flags: HW
LayerCount: 2
Fore
SplineSet
427 382 m 1
 201.116113528 678.303640413 127.187485757 718 66 718 c 0
 54 718 45 716 39 716 c 0
 34 716 32 718 32 724 c 0
 32 758 146 896 231 896 c 0
 330.577756044 896 420.518985104 745.47809411 544 603 c 1
 569 632 656.533797404 769.865842247 832 874 c 4
 895 912 944 925 980 925 c 0
 1064 925 1085 855 1085 855 c 1
 1085 823 948 720 899 720 c 0
 883 720 872 776 811 776 c 0
 802 776 791 775 780 772 c 1
 657 649 611 541 611 519 c 1
 611 517 656 460 776 309 c 1
 868 198 922 178 959 178 c 0
 983 178 998 187 998 173 c 0
 998 145 888 0 798 0 c 0
 709.836184338 0 636.949715989 115.085847283 494 298 c 1
 474 272 351 94 158 0 c 0
 114 -21 79 -29 50 -29 c 0
 -38 -29 -64 43 -64 45 c 0
 -64 77 76 180 123 180 c 0
 141 180 150 119 217 119 c 0
 250 119 260 131 272 143 c 0
 364 233 427 350 427 382 c 1
EndSplineSet
EndChar

StartChar: y
Encoding: 121 121 153
Width: 1136
VWidth: 0
Flags: HW
LayerCount: 2
Fore
SplineSet
821 779 m 0
 797 779 763 758 763 776 c 0
 763 807 888 927 989 927 c 0
 1064 927 1078 862 1078 787 c 0
 1078 580 901 120 625 -248 c 1
 516 -388 405 -546 236 -657 c 0
 149 -714 42 -767 -34 -767 c 0
 -93 -767 -132 -735 -132 -728 c 0
 -132 -696 4 -593 56 -593 c 0
 70 -593 86 -629 158 -635 c 1
 354 -440 539.999983907 -170.999994904 600 -47 c 1
 511.731082854 140.551652715 443.999986768 272.999991864 321 462 c 0
 242.322677315 582.894440873 120 720 56 720 c 0
 40 720 23 710 23 725 c 0
 23 755 132 896 210 896 c 0
 264 896 327 846 412 733 c 0
 561 534 651 371 730 194 c 1
 839 428 878 584 878 676 c 0
 878 747 854 779 821 779 c 0
EndSplineSet
EndChar

StartChar: y.conl
Encoding: 65570 -1 154
Width: 1136
VWidth: 0
Flags: HW
LayerCount: 2
Fore
SplineSet
821 779 m 0
 797 779 763 758 763 776 c 0
 763 807 888 927 989 927 c 0
 1064 927 1078 862 1078 787 c 0
 1078 580 901 120 625 -248 c 1
 516 -388 405 -546 236 -657 c 0
 149 -714 42 -767 -34 -767 c 0
 -93 -767 -132 -735 -132 -728 c 0
 -132 -696 4 -593 56 -593 c 0
 70 -593 86 -629 158 -635 c 1
 352 -442 600 -62 600 -50 c 0
 600 -42 491 236 264 540 c 0
 112 743 68 710 -43 731 c 0
 -87 739 -93 736 -93 745 c 0
 -93 775 13 875 73 894 c 0
 76 895 103 898 137 898 c 0
 247 898 307 873 421 721 c 0
 568 525 665 345 730 194 c 1
 839 428 878 584 878 676 c 0
 878 747 854 779 821 779 c 0
EndSplineSet
EndChar

StartChar: z
Encoding: 122 122 155
Width: 1090
VWidth: 0
Flags: HW
LayerCount: 2
Fore
SplineSet
267 3 m 0
 70 3 142 -8 70 -8 c 0
 41 -8 29 -1 29 9 c 0
 29 27 63 56 97 83 c 1
 688 743 l 17
 550 737 286 741 96 736 c 0
 92 735 59 716 43 716 c 0
 38 716 35 718 35 723 c 0
 35 748 145 877 269 897 c 1
 514.741311576 895.634770491 671.431030386 896 901 896 c 1
 936 902 961 905 979 905 c 0
 1007 905 1017 898 1017 888 c 0
 1017 874 986 839 946 807 c 1
 355 150 l 1
 435 150 481 156 774 158 c 0
 979 159 942 163 1004 199 c 0
 1037 218 1054 218 1054 207 c 0
 1054 172 895 13 750 1 c 1
 653.4 1 556.8 3 267 3 c 0
EndSplineSet
EndChar

StartChar: z.conl
Encoding: 65571 -1 156
Width: 1090
VWidth: 0
Flags: HW
LayerCount: 2
Fore
SplineSet
267 3 m 0
 70 3 142 -8 70 -8 c 0
 41 -8 29 -1 29 9 c 0
 29 27 63 56 97 83 c 1
 690 745 l 1
 -78 738 l 2
 -89 738 -93 737 -93 745 c 0
 -93 773 2 869 76 896 c 1
 907 897 l 1
 935 903 958 905 975 905 c 0
 1003 905 1017 899 1017 888 c 0
 1017 874 986 839 946 807 c 1
 355 150 l 1
 1007 162 917 148 1004 199 c 0
 1037 218 1054 218 1054 207 c 0
 1054 172 895 13 750 1 c 1
 728 1 l 2
 674 1 524 3 267 3 c 0
EndSplineSet
EndChar

StartChar: interpunctdot
Encoding: 65572 -1 157
Width: 0
VWidth: 0
Flags: HW
LayerCount: 2
Fore
SplineSet
0 146 m 0
 21 146 42 109 122 35 c 0
 142 17 144 14 144 0 c 0
 144 -26 131 -17 34 -122 c 0
 16 -142 14 -143 0 -143 c 0
 -26 -143 -17 -131 -122 -34 c 0
 -137 -20 -145 -10 -145 1 c 0
 -145 11 -138 21 -122 35 c 0
 -42 109 -21 146 0 146 c 0
EndSplineSet
EndChar

StartChar: bullet
Encoding: 8226 8226 158
Width: 635
VWidth: 0
Flags: HW
LayerCount: 2
Fore
SplineSet
317 1066 m 0
 343 1066 375 1006 532 860 c 0
 550 843 552 841 552 832 c 0
 552 811 513 799 345 618 c 0
 328 600 326 598 317 598 c 0
 296 598 284 636 103 804 c 0
 85 821 83 823 83 832 c 0
 83 853 121 866 289 1047 c 0
 300 1059 308 1066 317 1066 c 0
EndSplineSet
EndChar

StartChar: interpunctcomma
Encoding: 65573 -1 159
Width: 0
VWidth: 0
Flags: HW
LayerCount: 2
Fore
SplineSet
-53 -66 m 0
 -53 61 -145 105 -145 116 c 0
 -145 149 -6 251 41 251 c 0
 63 251 145 171 145 62 c 0
 145 -116 -86 -249 -136 -249 c 0
 -142 -249 -145 -247 -145 -243 c 0
 -145 -202 -53 -191 -53 -66 c 0
EndSplineSet
EndChar

StartChar: interpunctinvcomma
Encoding: 65574 -1 160
Width: 0
VWidth: 0
Flags: HW
LayerCount: 2
Fore
SplineSet
53 64 m 0
 53 -58 145 -105 145 -114 c 0
 145 -150 5 -250 -41 -250 c 0
 -63 -250 -145 -171 -145 -62 c 0
 -145 115 87 250 136 250 c 0
 142 250 145 248 145 244 c 0
 145 204 53 192 53 64 c 0
EndSplineSet
EndChar

StartChar: parenleft
Encoding: 40 40 161
Width: 635
VWidth: 0
Flags: HW
LayerCount: 2
Fore
SplineSet
159 536 m 0
 159 830 208 1125 306 1327 c 0
 413 1547 604 1653 646 1653 c 0
 652 1653 655 1650 655 1645 c 0
 655 1632 632 1602 590 1571 c 0
 507 1509 356 1190 356 659 c 0
 356 252 450 -159 646 -308 c 0
 656 -315 657 -317 657 -319 c 0
 657 -347 535 -450 465 -455 c 1
 262 -319 159 108 159 536 c 0
EndSplineSet
EndChar

StartChar: parenright
Encoding: 41 41 162
Width: 635
VWidth: 0
Flags: HW
LayerCount: 2
Fore
SplineSet
-22 1517 m 0
 -22 1551 118 1653 164 1653 c 0
 181 1653 240 1598 284 1531 c 0
 409 1340 477 1003 477 661 c 0
 477 280 393 -107 213 -301 c 0
 144 -376 32 -455 -11 -455 c 0
 -17 -455 -20 -453 -20 -448 c 0
 -20 -435 5 -404 43 -375 c 0
 139 -301 279 34 279 537 c 0
 279 966 174 1367 -10 1505 c 0
 -20 1512 -22 1514 -22 1517 c 0
EndSplineSet
EndChar

StartChar: less
Encoding: 60 60 163
Width: 1018
VWidth: 0
Flags: HW
LayerCount: 2
Fore
SplineSet
891 39 m 0
 891 11 748 -48 690 -48 c 0
 683 -48 676 -47 672 -45 c 0
 670 -44 156 393 141 411 c 1
 142 466 217 565 254 593 c 1
 254 593 872 995 883 995 c 0
 887 995 889 992 889 986 c 0
 889 955 830 849 777 809 c 0
 756 793 348 532 348 531 c 0
 348 527 352 528 367 491 c 1
 890 43 891 44 891 39 c 0
EndSplineSet
EndChar

StartChar: greater
Encoding: 62 62 164
Width: 1018
VWidth: 0
Flags: HW
LayerCount: 2
Fore
SplineSet
128 858 m 0
 128 888 274 945 330 945 c 0
 337 945 342 944 346 942 c 0
 351 940 821 554 824 550 c 0
 826 547 827 542 827 537 c 0
 827 503 787 429 749 380 c 0
 720 343 148 -103 136 -103 c 0
 131 -103 128 -98 128 -91 c 0
 128 -61 166 18 204 66 c 0
 239 111 630 404 630 410 c 0
 630 415 616 424 599 468 c 1
 128 854 128 853 128 858 c 0
EndSplineSet
EndChar

StartChar: hyphen
Encoding: 45 45 165
Width: 760
VWidth: 0
Flags: HW
LayerCount: 2
Fore
SplineSet
286 528 m 2
 656 528 l 2
 751 528 751 527 751 520 c 0
 751 488 637 385 583 371 c 0
 572 369 574 369 372 369 c 2
 14 369 l 1
 12 371 10 372 10 377 c 0
 10 409 123 512 177 526 c 0
 186 528 190 528 286 528 c 2
EndSplineSet
EndChar

StartChar: endash
Encoding: 8211 8211 166
Width: 896
VWidth: 0
Flags: HW
LayerCount: 2
Fore
SplineSet
369 369 m 0
 -93.9875 369 -94 366.8125 -94 378 c 0
 -94 408 22 512 74 526 c 0
 80 527 302 528 526 528 c 0
 989.9 528 990 530.2 990 519 c 0
 990 489 874 385 821 371 c 0
 815 370 593 369 369 369 c 0
EndSplineSet
EndChar

StartChar: emdash
Encoding: 8212 8212 167
Width: 1343
VWidth: 0
Flags: HW
LayerCount: 2
Fore
SplineSet
365 369 m 0
 -94 369 -94 365.0625 -94 378 c 0
 -94 408 22 512 74 526 c 0
 80 527 433 528 778 528 c 0
 1109 528 1431 527 1434 526 c 0
 1437 525 1438 522 1438 519 c 0
 1438 489 1322 385 1269 371 c 0
 1264 370 758 369 365 369 c 0
EndSplineSet
EndChar

StartChar: quotesingle
Encoding: 39 39 168
Width: 476
VWidth: 0
Flags: HW
LayerCount: 2
Fore
SplineSet
135 1401 m 0
 135 1438 284 1524 329 1524 c 0
 337 1524 342 1521 342 1515 c 0
 342 1489 304 1191 300 1177 c 0
 281 1106 209 997 182 997 c 0
 174 997 174 1009 172 1025 c 0
 157 1148 135 1367 135 1401 c 0
EndSplineSet
EndChar

StartChar: quotedbl
Encoding: 34 34 169
Width: 713
VWidth: 0
Flags: HW
LayerCount: 2
Fore
SplineSet
412 1392 m 0
 412 1435 560 1530 599 1530 c 0
 605 1530 609 1528 609 1523 c 0
 609 1494 574 1187 572 1177 c 0
 559 1119 484 997 454 997 c 0
 445 997 446 1010 439 1078 c 0
 433 1141 412 1361 412 1392 c 0
291 1531 m 0
 301 1531 302 1528 302 1521 c 0
 302 1491 268 1190 267 1182 c 0
 257 1119 175 997 148 997 c 0
 139 997 129 1059 105 1399 c 1
 134 1457 255 1531 291 1531 c 0
EndSplineSet
EndChar

StartChar: exclam
Encoding: 33 33 170
Width: 635
VWidth: 0
Flags: HW
LayerCount: 2
Fore
SplineSet
317 250 m 0
 336 250 356 219 422 157 c 0
 439 141 448 130 448 119 c 0
 448 97 413 77 351 10 c 0
 334 -9 330 -10 317 -10 c 0
 293 -10 304 -4 213 82 c 0
 195 99 187 110 187 120 c 0
 187 131 196 141 213 157 c 0
 279 219 298 250 317 250 c 0
417 1664 m 0
 422 1664 426 1663 429 1660 c 1
 423 1330 396 650 396 554 c 0
 396 488 306 345 274 345 c 0
 257 345 252 719 231 1532 c 1
 256 1584 374 1664 417 1664 c 0
EndSplineSet
EndChar

StartChar: exclamdown
Encoding: 161 161 171
Width: 635
VWidth: 0
Flags: HW
LayerCount: 2
Fore
SplineSet
219 2 m 0
 214 2 209 3 206 5 c 1
 207 36 236 1114 245 1148 c 0
 264 1218 338 1320 361 1320 c 0
 378 1320 383 949 404 133 c 1
 382 87 266 2 219 2 c 0
317 1676 m 0
 336 1676 356 1645 422 1583 c 0
 440 1566 448 1555 448 1545 c 0
 448 1524 415 1505 351 1436 c 0
 334 1417 330 1416 317 1416 c 0
 293 1416 304 1422 213 1508 c 0
 196 1524 187 1535 187 1546 c 0
 187 1557 196 1567 213 1583 c 0
 279 1645 298 1676 317 1676 c 0
EndSplineSet
EndChar

StartChar: question
Encoding: 63 63 172
Width: 1061
VWidth: 0
Flags: HW
LayerCount: 2
Fore
SplineSet
531 250 m 0
 551 250 570 219 634 158 c 0
 652 141 661 130 661 119 c 0
 661 99 629 80 568 15 c 0
 552 -2 541 -11 530 -11 c 0
 508 -11 487 24 419 88 c 0
 406 100 400 111 400 120 c 0
 400 132 410 143 426 158 c 0
 491 220 511 250 531 250 c 0
1006 1355 m 0
 1006 1039 576 906 576 621 c 0
 576 534 644 484 700 476 c 0
 708 475 711 471 711 466 c 0
 711 433 573 332 526 332 c 0
 492 332 379 366 379 495 c 0
 379 697 587 857 692 973 c 0
 759 1047 809 1125 809 1227 c 0
 809 1402 653 1521 470 1521 c 0
 408 1521 316 1502 299 1480 c 0
 268 1441 253 1392 253 1343 c 0
 253 1259 298 1176 388 1146 c 0
 398 1143 402 1141 402 1136 c 0
 402 1103 261 1000 216 1000 c 0
 193 1000 55 1057 55 1208 c 0
 55 1278 80 1342 130 1404 c 0
 197 1487 402 1664 651 1664 c 0
 873 1664 1006 1515 1006 1355 c 0
EndSplineSet
EndChar

StartChar: questiondown
Encoding: 191 191 173
Width: 1061
VWidth: 0
Flags: HW
LayerCount: 2
Fore
SplineSet
682 1170 m 0
 682 861 253 722 253 437 c 0
 253 270 405 144 583 144 c 0
 658 144 747 164 763 185 c 0
 794 226 809 275 809 322 c 0
 809 407 761 489 673 518 c 0
 663 521 659 524 659 529 c 0
 659 563 801 664 845 664 c 0
 870 664 1006 608 1006 457 c 0
 1006 335 930 238 817 153 c 0
 674 45 534 0 414 0 c 0
 204 0 55 137 55 310 c 0
 55 620 485 770 485 1034 c 0
 485 1119 434 1179 361 1189 c 0
 350 1191 347 1193 349 1201 c 0
 359 1237 488 1333 534 1333 c 0
 568 1333 682 1300 682 1170 c 0
531 1676 m 0
 551 1676 570 1644 634 1583 c 0
 652 1566 661 1555 661 1545 c 0
 661 1525 628 1505 568 1441 c 0
 551 1423 541 1414 530 1414 c 0
 509 1414 488 1449 419 1514 c 0
 405 1527 400 1536 400 1545 c 0
 400 1558 411 1568 426 1583 c 0
 491 1645 512 1676 531 1676 c 0
EndSplineSet
EndChar

StartChar: uni204A
Encoding: 8266 8266 174
Width: 940
VWidth: 0
Flags: HW
LayerCount: 2
Fore
SplineSet
-6 436 m 0
 -19 436 -20 438 -20 461 c 0
 -20 537 3 627 141 742 c 0
 292 868 368 887 575 887 c 0
 647 887 734 885 846 884 c 1
 849 880 850 863 850 830 c 0
 850 751 844 578 844 262 c 0
 844 84 858 70 858 55 c 0
 858 31 771 -12 764 -18 c 0
 711 -64 684 -129 532 -205 c 0
 476 -233 431 -246 409 -246 c 0
 399 -246 393 -244 393 -238 c 0
 393 -227 412 -208 452 -185 c 0
 483 -167 516 -125 558 -84 c 0
 587 -56 632 35 637 126 c 0
 639 165 651 674 651 717 c 1
 440 722 333 725 277 725 c 0
 221 725 217 722 213 714 c 0
 191 669 186 631 186 602 c 0
 186 583 188 567 188 556 c 0
 188 526 49 436 -6 436 c 0
EndSplineSet
EndChar

StartChar: uni200C
Encoding: 8204 8204 296
Width: 0
VWidth: 0
Flags: HW
LayerCount: 2
Fore
SplineSet
-43 0 m 1
 -43 1980 l 1
 43 1980 l 1
 43 0 l 1
 -43 0 l 1
EndSplineSet
EndChar

StartChar: uni200D
Encoding: 8205 8205 297
Width: 0
VWidth: 0
Flags: HW
LayerCount: 2
Fore
SplineSet
-128 2146 m 0
 -127 2146 -125 2144 0 2019 c 1
 128 2147 l 1
 188 2087 l 1
 60 1959 l 1
 188 1831 l 1
 128 1771 l 1
 43 1856 l 1
 43 0 l 1
 -43 0 l 1
 -43 1856 l 1
 -128 1771 l 1
 -188 1831 l 1
 -60 1959 l 1
 -188 2087 l 1
 -129 2146 -129 2146 -128 2146 c 0
EndSplineSet
EndChar

StartChar: uniE02C
Encoding: 57388 57388 298
Width: 615
VWidth: 0
Flags: HW
LayerCount: 2
Fore
SplineSet
139 731 m 0
 122 731 85 709 85 727 c 0
 85 758 217 883 309 883 c 0
 426 883 434 657 434 454 c 2
 434 361 l 1
 434 361 435 -395 437 -435 c 0
 440 -514 462 -527 462 -535 c 0
 462 -552 413 -591 360 -620 c 0
 345 -628 139 -819 46 -819 c 0
 37 -819 33 -816 33 -811 c 0
 33 -767 193 -731 225 -553 c 0
 230 -527 234 394 234 394 c 1
 234 588 214 731 139 731 c 0
EndSplineSet
EndChar

StartChar: uniE02C.conl
Encoding: 65593 -1 299
Width: 615
VWidth: 0
Flags: HW
LayerCount: 2
Fore
SplineSet
461 -568 m 0
 461 -584 418 -620 369 -648 c 0
 351 -659 166 -819 84 -819 c 0
 76 -819 72 -816 72 -811 c 0
 72 -772 196 -749 225 -588 c 0
 230 -563 232 46 232 367 c 0
 232 602 219 731 93 737 c 0
 51 739 50 739 -13 740 c 5
 -13 884 l 1
 285 883 l 1
 347 871 423 848 433 586 c 0
 436 504 435 -460 438 -486 c 0
 444 -549 461 -560 461 -568 c 0
EndSplineSet
EndChar

StartChar: uniE02D
Encoding: 57389 57389 300
Width: 615
VWidth: 0
Flags: HW
LayerCount: 2
Fore
SplineSet
447 130 m 0
 447 87.684375 157.6859375 -28 121 -28 c 0
 112 -28 107 -25 107 -19 c 0
 107 0 166 31 174 40 c 0
 239 111 224 131 228 560 c 0
 232 957 234 1155 234 1221 c 0
 234 1402 218 1550 140 1550 c 0
 123 1550 87 1528 87 1546 c 0
 87 1577 217 1703 310 1703 c 0
 378 1703 413 1628 426 1488 c 0
 445 1287 429 264 445 150 c 0
 447 139 447 133 447 130 c 0
EndSplineSet
EndChar

StartChar: uniE02E
Encoding: 57390 57390 301
Width: 615
VWidth: 0
Flags: HW
LayerCount: 2
Fore
SplineSet
446 138 m 0
 446 98 186 -22 122 -22 c 0
 113 -22 108 -19 108 -14 c 0
 108 18 207 31 226 142 c 0
 230 166 233 454 233 460 c 0
 233 675 172 732 132 732 c 0
 121 732 86 713 86 730 c 0
 86 761 213 883 301 883 c 0
 403 883 425 710 429 668 c 0
 439 571 430 235 445 151 c 0
 446 146 446 139 446 138 c 0
EndSplineSet
EndChar

StartChar: uniE02E.conl
Encoding: 65594 -1 302
Width: 615
VWidth: 0
Flags: HW
LayerCount: 2
Fore
SplineSet
435 317 m 0
 435 173.8 446 155.9 446 138 c 0
 446 96 185 -21 122 -21 c 0
 113 -21 108 -19 108 -14 c 0
 108 -2 135 20 166 38 c 0
 185 49 222 99 228 152 c 0
 230 167 232 466 232 466 c 2
 232 501 233 719 109 735 c 0
 97 737 36 740 -13 740 c 1
 -13 884 l 1
 69 884 133 885 183 885 c 0
 351.377192694 885 436 879.809920674 436 499 c 0
 436 438 435 376 435 317 c 0
EndSplineSet
EndChar

StartChar: uniE02E.conr
Encoding: 65595 -1 303
Width: 615
VWidth: 0
Flags: HW
LayerCount: 2
Fore
SplineSet
85 731 m 0
 85 761 217 883 301 883 c 0
 405 883 426 707 431 644 c 0
 433 610 436 373 436 272 c 0
 436 231 432 181 374 111 c 1
 382 111 486 141 627 144 c 1
 627 0 l 1
 554 0 418 1 367 1 c 0
 231 1 152 -22 122 -22 c 0
 113 -22 108 -19 108 -14 c 0
 108 6 167 35 180 50 c 0
 231 108 233 121 233 460 c 0
 233 678 172 732 132 732 c 0
 120 732 85 712 85 731 c 0
EndSplineSet
EndChar

StartChar: uniE02E.conb
Encoding: 65596 -1 304
Width: 615
VWidth: 0
Flags: HW
LayerCount: 2
Fore
SplineSet
436 267 m 0
 436 174 371 111 375 111 c 0
 385 111 491 144 627 144 c 1
 627 0 l 1
 417 0 390 2 364 2 c 0
 235 2 153 -21 122 -21 c 0
 113 -21 108 -19 108 -14 c 0
 108 17 216 33 228 152 c 0
 230 167 232 469 232 470 c 0
 232 520 228 719 109 735 c 0
 97 737 36 740 -13 740 c 1
 -13 884 l 1
 77 884 142 885 192 885 c 0
 308 885 335 878 371 833 c 0
 435 754 436 664 436 267 c 0
EndSplineSet
EndChar

StartChar: uniE036
Encoding: 57398 57398 305
Width: 1211
VWidth: 0
Flags: HW
LayerCount: 2
Fore
SplineSet
428 0 m 0
 245 0 130 145 130 311 c 0
 130 399 160 487 160 563 c 0
 160 679 103 732 65 732 c 0
 51 732 27 720 15 720 c 0
 10 720 7 722 7 728 c 0
 7 759 139 883 232 883 c 0
 311 883 359 786 359 685 c 0
 359 601 331 514 331 433 c 0
 331 281 439 144 589 144 c 0
 706 144 783 187 881 374 c 1
 880 748 861 740 861 747 c 0
 861 773 1004 868 1129 868 c 0
 1178 868 1195 863 1195 855 c 0
 1195 841 1142 819 1127 804 c 0
 1085 763 1081 748 1081 557 c 2
 1081 411 l 2
 1081 195 1128 152 1159 152 c 0
 1170 152 1205 172 1205 153 c 0
 1205 121 1073 1 991 1 c 0
 932 1 891 64 883 244 c 1
 810 164 625 0 428 0 c 0
EndSplineSet
EndChar

StartChar: uniE036.conl
Encoding: 65664 -1 306
Width: 1211
VWidth: 0
Flags: HW
LayerCount: 2
Fore
SplineSet
428 0 m 0
 245 0 130 144 130 313 c 0
 130 396 169 484 169 567 c 0
 169 611 153 730 44 737 c 0
 21 739 39 738 -13 740 c 1
 -13 884 l 1
 52 884 104 885 146 885 c 0
 258 885 296 877 333 818 c 0
 359 777 367 734 367 690 c 0
 367 600 331 509 331 432 c 0
 331 292 429 144 590 144 c 0
 746 144 803 236 881 374 c 1
 880 748 861 740 861 747 c 0
 861 773 1004 868 1129 868 c 0
 1178 868 1195 863 1195 855 c 0
 1195 841 1142 819 1127 804 c 0
 1085 763 1081 748 1081 557 c 2
 1081 411 l 2
 1081 195 1128 152 1159 152 c 0
 1170 152 1205 172 1205 153 c 0
 1205 121 1073 1 991 1 c 0
 932 1 891 64 883 244 c 1
 791 143 610 0 428 0 c 0
EndSplineSet
EndChar

StartChar: uniE036.dec
Encoding: 65665 -1 307
Width: 1515
VWidth: 0
Flags: HW
LayerCount: 2
Fore
SplineSet
1184 586 m 0
 1184 735 1189 882 1206 943 c 1
 1098 882 l 1
 1098 823 1100 839 1100 649 c 0
 1100 553 1097 467 1097 393 c 0
 1097 295 1102 221 1125 180 c 1
 1131 185 1157 211 1190 244 c 1
 1188 320 1184 454 1184 586 c 0
1378 564 m 2
 1378 433 l 2
 1378 294 1380 165 1425 160 c 0
 1430 159 1433 156 1433 151 c 0
 1433 115 1306 -6 1266 -6 c 0
 1208 -6 1199 94 1193 171 c 1
 1096 75 1029 -4 984 -4 c 0
 941 -4 919 68 911 266 c 1
 808 144 624 0 432 0 c 0
 251 0 130 164 130 369 c 0
 130 477 164 566 164 674 c 0
 164 814 99 865 64 865 c 0
 44 865 7 840 7 860 c 0
 7 892 142 1015 230 1015 c 0
 336 1015 363 873 363 792 c 0
 363 689 331 582 331 489 c 0
 331 319 431 144 599 144 c 0
 753 144 811 218 907 436 c 1
 907 755 914 804 915 807 c 0
 927 836 979 889 1033 925 c 0
 1051 937 1058 939 1346 1083 c 0
 1392 1107 1420 1116 1435 1116 c 0
 1443 1116 1447 1113 1447 1108 c 0
 1447 1100 1438 1087 1415 1068 c 0
 1381 1039 1378 756 1378 564 c 2
EndSplineSet
EndChar

StartChar: uniE024.lig_harma
Encoding: 65666 -1 308
Width: 817
VWidth: 0
Flags: HW
LayerCount: 2
Fore
SplineSet
480 -30 m 0
 308 -30 107 95 107 333 c 0
 107 497 202 715 467 983 c 0
 685 1203 1280 1692 1819 1692 c 2
 1827 1692 l 2
 1836 1692 1839 1691 1839 1685 c 0
 1839 1656 1747 1565 1688 1538 c 0
 1637 1514 1233 1586 718 1133 c 0
 413 866 306 637 306 465 c 0
 306 242 486 113 652 113 c 0
 686 113 724 123 744 138 c 0
 778 163 909 291 919 465 c 1
 948 522 1054 608 1093 608 c 0
 1098 608 1101 607 1104 604 c 1
 1092 285 688 -30 480 -30 c 0
EndSplineSet
EndChar

StartChar: uniE067
Encoding: 57447 57447 309
Width: 767
VWidth: 0
Flags: HW
LayerCount: 2
Fore
SplineSet
59 1298 m 0
 38 1298 20 1286 11 1286 c 0
 7 1286 5 1288 5 1294 c 0
 5 1327 122 1464 214 1464 c 0
 304 1464 326 1349 340 1259 c 1
 368 1279 421 1304 520 1391 c 0
 524 1395 593 1456 623 1456 c 0
 627 1456 630 1455 632 1453 c 1
 632 283 633 214 633 14 c 0
 633 -9 629 -25 585 -69 c 0
 490 -164 462 -133 336 -258 c 0
 242 -350 178 -470 156 -491 c 4
 99 -546 13 -582 -18 -582 c 0
 -25 -582 -30 -580 -30 -576 c 1
 -30 -576 -11 -501 123 -365 c 1
 171 -240 174 177 174 566 c 0
 174 902 174 1170 112 1264 c 0
 94 1291 76 1298 59 1298 c 0
366 400 m 0
 366 179 361 -38 343 -175 c 1
 375 -153 410 -123 451 -96 c 1
 451 266 449 508 449 790 c 0
 449 931 450 1082 451 1263 c 1
 421 1239 382 1211 349 1188 c 0
 349 1187 366 787 366 400 c 0
EndSplineSet
EndChar

StartChar: uniF8FF
Encoding: 63743 63743 310
Width: 2318
VWidth: 0
Flags: HW
LayerCount: 2
Fore
SplineSet
1628 132 m 0
 1984 132 2090 144 2121 144 c 0
 2134 144 2134 142 2134 136 c 0
 2134 107 2012 10 1955 1 c 0
 1920 -5 1821 -7 1688 -7 c 0
 1337 -7 755 8 535 8 c 0
 316 8 232 -1 200 -1 c 0
 184 -1 181 1 181 8 c 0
 181 35 307 125 383 129 c 0
 576 137 740 140 890 140 c 0
 1151 140 1371 132 1628 132 c 0
542 927 m 0
 542 885 544 875 533 875 c 0
 502 875 410 960 378 1015 c 0
 356 1053 381 1263 177 1476 c 0
 165 1488 149 1510 174 1510 c 0
 212 1510 320 1464 361 1428 c 0
 376 1415 542 1221 542 927 c 0
1798 902 m 0
 1798 1280 2099 1525 2187 1525 c 0
 2193 1525 2196 1522 2196 1518 c 0
 2196 1507 2175 1483 2154 1463 c 0
 2022 1340 1971 1158 1971 1044 c 0
 1971 994 1842 876 1807 876 c 0
 1797 876 1798 881 1798 902 c 0
1812 504 m 0
 1812 786.474438582 2119.00214142 937 2244 937 c 0
 2281 937 2290 935 2290 927 c 0
 2290 895 2151 792 2104 792 c 0
 2091 792 2086 795 2059 795 c 1
 2031 736 2019 673 2019 613 c 0
 2019 414 2138 359 2138 351 c 0
 2138 323 2007 228 1938 228 c 0
 1926 228 1334 240 964 240 c 0
 475 240 281 221 215 221 c 0
 193 221 185 224 185 229 c 0
 185 272 282 271 282 457 c 0
 282 606 198 742 72 742 c 0
 36 742 29 738 29 747 c 0
 29 767 136 885 247 885 c 0
 409 885 478 723 478 587 c 0
 478 437 406 376 406 367 c 1
 434 367 672 374 672 375 c 0
 672 384 657 428 651 553 c 0
 650 572 649 592 649 612 c 0
 649 1005 844 1522 1100 1780 c 1
 1036 1843 1003 1864 1003 1886 c 0
 1003 1911 1048 1937 1140 2035 c 0
 1162 2059 1166 2059 1176 2059 c 2
 1177 2059 l 2
 1192 2059 1191 2057 1319 1928 c 0
 1340 1908 1350 1896 1350 1885 c 0
 1350 1869 1330 1855 1293 1820 c 1
 1474 1590 1671 1165 1671 728 c 0
 1671 513 1617 370 1617 370 c 1
 1639 370 1789 365 1832 365 c 1
 1832 365 1833 365 1833 366 c 0
 1833 375 1812 429 1812 504 c 0
1245 442 m 0
 1245 420.666666667 1245 399.333333333 1245 378 c 0
 1245 376 1364 374 1445 374 c 1
 1461 456 1469 538 1469 619 c 0
 1469 1171 1132 1658 1117 1658 c 0
 1116 1658 849 1245 849 732 c 0
 849 588 873 483 907 379 c 1
 1078 378 l 1
 1087 649 1085 653 1092 673 c 0
 1114 739 1197 839 1223 839 c 0
 1236 839 1233 808 1245 442 c 0
EndSplineSet
EndChar

StartChar: uniE030
Encoding: 57392 57392 311
Width: 1086
VWidth: 0
Flags: HW
LayerCount: 2
Fore
SplineSet
1006 546 m 0
 1006 255 643 0 406 -0 c 0
 226 0 127 124 127 140 c 0
 127 171 269 266 319 266 c 0
 335 266 335 241 382 206 c 0
 428 171 502 144 582 144 c 0
 622 144 665 151 706 167 c 1
 756 222 808 304 808 422 c 0
 808 606 639 724 457 724 c 0
 218 724 137 542 75 542 c 0
 70 542 67 545 67 550 c 0
 67 601 328 883 606 883 c 0
 816 883 1006 748 1006 546 c 0
EndSplineSet
EndChar

StartChar: uniE037
Encoding: 57399 57399 312
Width: 1248
VWidth: 0
Flags: HW
LayerCount: 2
Fore
SplineSet
130 0 m 2
 51 -0 l 2
 -57 0 -57 1 -57 9 c 0
 -57 38 71 102 129 111 c 0
 144 113 207 115 207 116 c 0
 207 120 116 218 116 380 c 0
 116 682 513 914 754 914 c 0
 1059 914 1123 566 1136 422 c 0
 1144 335 1144 -408 1147 -452 c 0
 1152 -515 1170 -527 1170 -535 c 0
 1170 -552 1120 -592 1065 -622 c 0
 1056 -627 847 -819 754 -819 c 0
 744 -819 740 -816 740 -812 c 0
 740 -790 840 -723 850 -712 c 0
 946 -612 937 -523 938 -461 c 0
 939 -387 941 -240 945 0 c 1
 894 1 811 1 715 1 c 0
 522 1 276 0 130 0 c 2
569 772 m 0
 510 772 456 757 416 740 c 0
 397 732 318 636 318 505 c 0
 318 428 341 251 535 135 c 1
 638 139 810 149 946 153 c 1
 946 260 946 496 810 660 c 0
 741 744 651 772 569 772 c 0
EndSplineSet
EndChar

StartChar: uniE037.var
Encoding: 65667 -1 313
Width: 1222
VWidth: 0
Flags: HW
LayerCount: 2
Fore
SplineSet
117 371 m 0
 117 708 514 914 716 914 c 0
 972 914 1140 667 1140 324 c 0
 1140 -23 1011 -439 650 -726 c 0
 569 -791 429 -883 374 -883 c 0
 365 -883 362 -880 362 -875 c 0
 362 -815 621 -771 811 -393 c 0
 904 -209 933 -14 933 0 c 1
 7 -0 l 2
 -54 0 -57 2 -57 9 c 0
 -57 34 66 104 133 111 c 0
 145 112 195 115 207 116 c 1
 122 228 117 333 117 371 c 0
947 195 m 0
 947 387 865 771 529 771 c 0
 502 771 422 761 404 741 c 0
 350 680 319 593 319 501 c 0
 319 368 383 225 535 135 c 1
 740 144 864 150 946 153 c 1
 947 166 947 180 947 195 c 0
EndSplineSet
EndChar

StartChar: uniE039.var1
Encoding: 65668 -1 314
Width: 1165
VWidth: 0
Flags: HW
LayerCount: 2
Fore
SplineSet
576 1508 m 0
 463 1508 403 1370 343 1370 c 0
 338 1370 336 1372 336 1377 c 0
 336 1421 541 1651 743 1651 c 0
 862 1651 947 1546 947 1476 c 0
 947 1374 868 1199 679 965 c 1
 827 529 982 251 982 251 c 1
 1012 204 1058 165 1107 165 c 0
 1117 165 1148 180 1148 164 c 0
 1148 128 986 0 922 0 c 0
 855 0 830 61 737 264 c 1
 625 121 467 -15 287 -15 c 0
 146 -15 80 121 80 244 c 0
 80 487 407 749 557 949 c 0
 680 1114 749 1254 749 1345 c 0
 749 1425 651 1508 576 1508 c 0
278 374 m 0
 278 262 339 129 456 129 c 0
 545 129 589 163 710 324 c 1
 587 600 540 743 521 790 c 5
 318 580 278 457 278 374 c 0
EndSplineSet
EndChar

StartChar: uniE039.var2
Encoding: 65669 -1 315
Width: 1228
VWidth: 0
Flags: HW
LayerCount: 2
Fore
SplineSet
310 1390 m 0
 310 1435 508 1651 696 1651 c 0
 790 1651 879 1546 879 1424 c 0
 879 1181 813 972 751 817 c 1
 851 573 1017 284 1054 230 c 0
 1094 170 1157 170 1177 169 c 1
 1202 177 1217 181 1217 169 c 0
 1217 133 1049 0 980 -0 c 0
 924 0 898 56 887 75 c 0
 761 290 654 505 630 562 c 1
 477 288 478 285 429 225 c 0
 341 118 188 -2 78 -2 c 0
 -1 -2 -34 60 -34 66 c 0
 -34 99 106 202 152 202 c 0
 170 202 177 152 241 152 c 0
 247 152 282 153 293 168 c 1
 293 168 681 763 681 1293 c 0
 681 1423 584 1508 528 1508 c 0
 449 1508 425 1446 355 1399 c 0
 323 1378 310 1378 310 1390 c 0
EndSplineSet
EndChar

StartChar: uniE039
Encoding: 57401 57401 316
Width: 1152
VWidth: 0
Flags: HW
LayerCount: 2
Fore
SplineSet
619 1651 m 0
 781 1651 901 1534 901 1393 c 0
 901 925 576 549 497 452 c 1
 540 469 568 481 616 481 c 3
 850 481 830 191 1020 191 c 0
 1067 191 1112 207 1131 207 c 0
 1138 207 1141 205 1141 200 c 0
 1141 170 1051 102 986 54 c 0
 933 15 901 0 870 0 c 0
 693 0 684 299 462 299 c 0
 333 299 267 204 99 63 c 0
 45 18 9 1 -7 1 c 0
 -13 1 -16 4 -16 8 c 0
 -16 79 286 217 537 674 c 0
 605 797 703 1026 703 1260 c 0
 703 1418 558 1508 466 1508 c 0
 289 1508 240 1288 168 1245 c 0
 160 1240 150 1239 150 1254 c 0
 150 1340 355 1651 619 1651 c 0
EndSplineSet
EndChar

StartChar: uniE028
Encoding: 57384 57384 317
Width: 1216
VWidth: 0
Flags: HW
LayerCount: 2
Fore
SplineSet
102 1517 m 0
 67 1517 36 1491 23 1491 c 0
 19 1491 17 1494 17 1500 c 0
 17 1539 154 1704 252 1704 c 0
 342 1704 425 1599 478 1505 c 0
 541 1392 947 487 1031 330 c 0
 1048 298 1121 158 1182 158 c 0
 1191 158 1229 177 1229 159 c 0
 1229 124 1074 0 1007 -0 c 0
 903 0 798 350 669 606 c 1
 618 512 530 340 459 243 c 0
 380 135 214 0 89 -0 c 0
 6 0 -31 60 -31 70 c 0
 -31 100 105 205 156 205 c 0
 176 205 178 151 254 151 c 0
 265 151 296 153 305 164 c 0
 321 185 464 410 587 691 c 0
 601 722 602 725 611 738 c 1
 547 881 380 1257 316 1354 c 0
 226 1490 145 1517 102 1517 c 0
EndSplineSet
EndChar

StartChar: uniE028.conr
Encoding: 65670 -1 318
Width: 1318
VWidth: 0
Flags: HW
LayerCount: 2
Fore
SplineSet
104 1516 m 0
 59 1516 32 1490 22 1490 c 0
 19 1490 17 1493 17 1500 c 0
 17 1539 155 1704 252 1704 c 0
 336 1704 417 1616 480 1503 c 0
 546 1385 792 827 931 538 c 1
 1070 258 1171 144 1331 144 c 1
 1331 0 l 1
 1273 0 1224 -2 1181 -2 c 0
 1048 -2 976 15 882 156 c 0
 797 284 729 483 669 606 c 5
 641 553 530 340 459 243 c 0
 380 135 214 0 89 -0 c 0
 6 0 -31 60 -31 70 c 0
 -31 100 105 205 156 205 c 0
 176 205 178 151 254 151 c 0
 265 151 296 153 305 164 c 0
 321 185 464 410 587 691 c 0
 601 722 602 725 611 738 c 1
 375 1261 323 1387 209 1474 c 0
 167 1506 132 1516 104 1516 c 0
EndSplineSet
EndChar

StartChar: uniE028.dec
Encoding: 65671 -1 319
Width: 1600
VWidth: 0
Flags: HW
LayerCount: 2
Fore
SplineSet
66 1598 m 0
 29 1598 -1 1571 -13 1571 c 0
 -17 1571 -19 1574 -19 1580 c 0
 -19 1620 112 1789 210 1789 c 0
 244 1789 322 1779 427 1605 c 1
 527 1704 605 1789 641 1789 c 0
 652 1789 645 1789 1330 421 c 1
 1440 206 1489 170 1536 163 c 1
 1547 168 1580 184 1580 167 c 0
 1580 131 1427 0 1361 -0 c 0
 1302 0 1252 96 1210 181 c 1
 1154 126 1035 -3 996 -3 c 0
 985 -3 716 562 647 701 c 1
 606 600 525 401 460 289 c 0
 380 151 193 0 71 -0 c 0
 -7 0 -36 60 -36 63 c 0
 -36 96 102 199 150 199 c 0
 166 199 175 150 236 150 c 0
 271 150 274 159 291 189 c 0
 334 264 464 538 549 802 c 0
 560 837 561 839 572 855 c 1
 366 1276 343 1329 314 1380 c 0
 251 1491 159 1598 66 1598 c 0
1141 188 m 1
 1186 233 l 1
 554 1524 542 1549 523 1584 c 1
 516 1588 507 1594 499 1601 c 1
 454 1556 l 1
 1132 194 l 1
 1135 192 1140 189 1141 188 c 1
EndSplineSet
EndChar

StartChar: uniE02A
Encoding: 57386 57386 320
Width: 1216
VWidth: 0
Flags: HW
LayerCount: 2
Fore
SplineSet
325 729 m 0
 295 729 284 722 284 735 c 0
 284 771 401 916 485 916 c 0
 509 916 557 911 610 845 c 0
 665 776 963 333 1018 263 c 0
 1051 220 1111 162 1168 162 c 0
 1179 162 1216 182 1216 163 c 0
 1216 128 1056 -1 985 -1 c 0
 903 -1 878 65 606 466 c 1
 570 403 515 309 451 215 c 1
 401 144 249 0 114 -0 c 0
 18 0 -24 71 -24 79 c 0
 -24 115 117 215 163 215 c 0
 178 215 195 152 276 152 c 0
 286 152 298 153 310 155 c 1
 464 388 499 479 539 562 c 5
 479 663 411 729 325 729 c 0
EndSplineSet
EndChar

StartChar: uniE02A.conr
Encoding: 65672 -1 321
Width: 1292
VWidth: 0
Flags: HW
LayerCount: 2
Fore
SplineSet
324 730 m 0
 297 730 284 721 284 735 c 0
 284 771 402 916 482 916 c 0
 585 916 602 855 843 517 c 1
 1097 168 1213 144 1306 144 c 1
 1306 0 l 1
 1069 1 l 1
 851 41 717 315 606 466 c 1
 563 390 515 306 451 215 c 0
 401 144 249 0 114 -0 c 0
 18 0 -24 71 -24 79 c 0
 -24 115 117 215 163 215 c 0
 178 215 195 152 276 152 c 0
 286 152 298 153 310 155 c 1
 463 388 483 449 539 562 c 5
 510 605 439 730 324 730 c 0
EndSplineSet
EndChar

StartChar: uniE02A.dec
Encoding: 65673 -1 322
Width: 1600
VWidth: 0
Flags: HW
LayerCount: 2
Fore
SplineSet
157 208 m 0
 176.51646781 208 184.338698347 152 260 152 c 0
 273 152 288 154 305 158 c 1
 466 411 527 561 575 660 c 1
 530 743 466 858 365 858 c 0
 341 858 331 848 331 864 c 0
 331 901 436 1048 521 1048 c 0
 624 1048 690 867 702 863 c 1
 712 863 870 1048 918 1048 c 0
 928 1048 926 1043 1334 401 c 0
 1378 332 1465 168 1561 168 c 0
 1574 168 1608 188 1608 169 c 0
 1608 133 1452 -1 1383 -1 c 0
 1314 -1 1267 90 1211 182 c 1
 1179 150 1035 -4 997 -4 c 0
 992 -4 955 46 642 550 c 1
 592 460 511 312 448 223 c 0
 401 157 239 0 99 -0 c 0
 8 0 -29 67 -29 72 c 0
 -29 105 109 208 157 208 c 0
1132 193 m 0
 1134 193 1139 189 1141 188 c 1
 1182 229 l 1
 806 834 l 2
 800 844 797 845 776 860 c 1
 730 814 l 1
 883 561 1126 193 1132 193 c 0
EndSplineSet
EndChar

StartChar: uniE020
Encoding: 57376 57376 323
Width: 1165
VWidth: 0
Flags: HW
LayerCount: 2
Fore
SplineSet
872 899 m 3
 1036 899 1084 730 1084 640 c 0
 1084 397 757 135 607 -66 c 0
 484 -230 415 -370 415 -461 c 0
 415 -541 515 -624 589 -624 c 0
 690 -624 727 -530 802 -492 c 0
 819 -483 830 -483 830 -494 c 0
 830 -544 614 -768 419 -768 c 0
 310 -768 218 -669 218 -591 c 0
 218 -489 298 -314 486 -81 c 1
 400 195 329 337 239 515 c 1
 184 619 127 707 52 707 c 0
 25 707 1 686 1 706 c 0
 1 734 107 883 208 883 c 0
 298 883 352 782 431 632 c 1
 543 765 678 899 872 899 c 3
887 512 m 0
 887 604 838 755 704 755 c 0
 605 755 550 692 458 574 c 1
 504 482 576 314 644 93 c 1
 779 237 887 376 887 512 c 0
EndSplineSet
EndChar

StartChar: uniE020.conl
Encoding: 65674 -1 324
Width: 1165
VWidth: 0
Flags: HW
LayerCount: 2
Fore
SplineSet
-13 884 m 1
 39.3333333333 884 91.6666666667 884 144 884 c 0
 252 884 318 880 436 641 c 1
 500 718 668 898 876 899 c 0
 1018 899 1084 763 1084 641 c 0
 1084 397 758 135 607 -66 c 0
 484 -230 415 -370 415 -461 c 0
 415 -541 515 -624 589 -624 c 0
 690 -624 727 -530 802 -492 c 0
 819 -483 830 -483 830 -494 c 0
 830 -544 614 -768 419 -768 c 0
 310 -768 218 -669 218 -591 c 0
 218 -489 298 -314 486 -81 c 1
 401 225 216 627 88 713 c 0
 55 735 32 740 -13 740 c 1
 -13 884 l 1
887 510 m 0
 887 597 843 755 703 755 c 0
 605 755 548 691 464 587 c 1
 577 351 611 220 644 93 c 1
 849 309 887 427 887 510 c 0
EndSplineSet
EndChar

StartChar: uniE021
Encoding: 57377 57377 325
Width: 1165
VWidth: 0
Flags: HW
LayerCount: 2
Fore
SplineSet
52 707 m 0
 25 707 1 686 1 706 c 0
 1 734 107 883 208 883 c 0
 321 883 390 708 431 632 c 1
 530 750 678 899 872 899 c 0
 1042 899 1084 730 1084 640 c 0
 1084 397 757 135 607 -66 c 0
 484 -230 415 -370 415 -461 c 0
 415 -541 515 -624 589 -624 c 0
 690 -624 727 -530 802 -492 c 0
 819 -483 830 -483 830 -494 c 0
 830 -544 614 -768 419 -768 c 0
 310 -768 218 -669 218 -591 c 0
 218 -489 298 -314 486 -81 c 1
 451 31 427 98 385 203 c 1
 300 129 195 -3 195 -32 c 0
 195 -100 265 -126 265 -135 c 0
 265 -168 126 -271 79 -271 c 0
 63 -271 27 -257 27 -210 c 0
 27 -168 57 -124 69 -105 c 0
 218 130 267 167 359 263 c 1
 190 658 113 707 52 707 c 0
887 512 m 0
 887 604 838 755 704 755 c 0
 605 755 550 692 458 574 c 1
 504 482 576 314 644 93 c 1
 779 237 887 376 887 512 c 0
EndSplineSet
EndChar

StartChar: uniE021.conl
Encoding: 65675 -1 326
Width: 1165
VWidth: 0
Flags: HW
LayerCount: 2
Fore
SplineSet
-13 884 m 1
 39.3333333333 884 91.6666666667 884 144 884 c 0
 252 884 318 880 436 641 c 1
 500 718 668 898 876 899 c 0
 1018 899 1084 763 1084 641 c 0
 1084 397 758 135 607 -66 c 0
 484 -230 415 -370 415 -461 c 0
 415 -541 515 -624 589 -624 c 0
 690 -624 727 -530 802 -492 c 0
 819 -483 830 -483 830 -494 c 0
 830 -544 614 -768 419 -768 c 0
 310 -768 218 -669 218 -591 c 0
 218 -489 298 -314 486 -81 c 1
 452 41 425 115 393 194 c 1
 317 122 245 40 208 -35 c 1
 208 -54 218 -101 270 -130 c 0
 276 -133 279 -136 279 -139 c 0
 279 -173 137 -275 92 -275 c 0
 75 -275 40 -260 40 -214 c 0
 40 -120 263 147 369 255 c 1
 325 361 213 594 127 680 c 0
 68 740 26 740 -12 740 c 2
 -13 740 l 1
 -13 884 l 1
887 510 m 0
 887 597 843 755 703 755 c 0
 605 755 548 691 464 587 c 1
 577 351 611 220 644 93 c 1
 849 309 887 427 887 510 c 0
EndSplineSet
EndChar

StartChar: uniE020.open
Encoding: 65676 -1 327
Width: 1165
VWidth: 0
Flags: HW
LayerCount: 2
Fore
SplineSet
872 899 m 3
 1026 899 1084 755 1084 640 c 0
 1084 406 820 123 613 -38 c 0
 547 -89 278 -292 278 -462 c 0
 278 -535 341 -624 394 -624 c 0
 439 -624 447 -616 450 -613 c 0
 466 -600 500 -575 516 -575 c 0
 521 -575 524 -578 524 -584 c 0
 524 -617 426 -726 353 -755 c 0
 328 -765 301 -769 262 -769 c 0
 200 -769 175 -764 139 -727 c 0
 114 -701 81 -651 81 -591 c 0
 81 -417 340 -183 481 -70 c 1
 430 80 382 215 298 397 c 0
 233 537 156 707 52 707 c 0
 25 707 1 686 1 706 c 0
 1 734 107 883 208 883 c 0
 317 883 388 715 431 632 c 1
 518 730 658 899 872 899 c 3
887 510 m 0
 887 614 833 755 704 755 c 0
 605 755 550 692 458 574 c 1
 502 486 590 277 643 95 c 0
 645 90 644 91 656 80 c 1
 744 171 887 345 887 510 c 0
EndSplineSet
EndChar

StartChar: uniE020.conl_open
Encoding: 65677 -1 328
Width: 1165
VWidth: 0
Flags: HW
LayerCount: 2
Fore
SplineSet
-13 884 m 1
 39.3333333333 884 91.6666666667 884 144 884 c 0
 252 884 318 880 436 641 c 1
 617 856 782 899 869 899 c 0
 1041 899 1084 733 1084 640 c 0
 1084 406 820 123 613 -38 c 0
 547 -89 278 -292 278 -462 c 0
 278 -535 341 -624 394 -624 c 0
 439 -624 447 -616 450 -613 c 0
 466 -600 500 -575 516 -575 c 0
 521 -575 524 -578 524 -584 c 0
 524 -617 426 -726 353 -755 c 0
 328 -765 301 -769 262 -769 c 0
 200 -769 175 -764 139 -727 c 0
 114 -701 81 -651 81 -591 c 0
 81 -405 373 -160 482 -68 c 1
 433 93 380 258 268 466 c 0
 186 619 122 740 -13 740 c 1
 -13 884 l 1
887 510 m 0
 887 599 842 755 703 755 c 0
 605 755 548 691 464 587 c 1
 561 385 599 268 645 90 c 1
 656 80 l 1
 731 157 887 338 887 510 c 0
EndSplineSet
EndChar

StartChar: uniE021.open
Encoding: 65678 -1 329
Width: 1165
VWidth: 0
Flags: HW
LayerCount: 2
Fore
SplineSet
115 33 m 0
 115 -33 179 -33 179 -45 c 0
 179 -78 38 -180 -7 -180 c 0
 -35 -180 -78 -157 -78 -105 c 0
 -78 -65 -58 -38 26 46 c 0
 208 228 260 248 341 304 c 1
 315 368 286 424 239 515 c 0
 145 698 92 707 52 707 c 0
 25 707 1 686 1 706 c 0
 1 734 107 883 208 883 c 0
 322 883 393 708 431 632 c 1
 510 723 671 899 872 899 c 3
 1033 899 1084 755 1084 640 c 0
 1084 406 820 123 613 -38 c 0
 547 -89 278 -292 278 -462 c 0
 278 -535 341 -624 394 -624 c 0
 439 -624 447 -616 450 -613 c 0
 466 -600 500 -575 516 -575 c 0
 521 -575 524 -578 524 -584 c 0
 524 -617 426 -726 353 -755 c 0
 328 -765 301 -769 262 -769 c 0
 200 -769 175 -764 139 -727 c 0
 114 -701 81 -651 81 -591 c 0
 81 -402 362 -175 481 -70 c 1
 452 22 386 203 378 219 c 0
 377 222 370 228 356 242 c 1
 275 193 217 152 141 75 c 0
 115 49 115 51 115 33 c 0
887 510 m 0
 887 614 833 755 704 755 c 0
 605 755 550 692 458 574 c 1
 502 486 590 277 643 95 c 0
 645 90 644 91 656 80 c 1
 744 171 887 345 887 510 c 0
EndSplineSet
EndChar

StartChar: uniE021.conl_open
Encoding: 65679 -1 330
Width: 1165
VWidth: 0
Flags: HW
LayerCount: 2
Fore
SplineSet
-13 884 m 1
 39.3333333333 884 91.6666666667 884 144 884 c 0
 252 884 318 880 436 641 c 1
 617 856 782 899 869 899 c 0
 1041 899 1084 733 1084 640 c 0
 1084 406 820 123 613 -38 c 0
 547 -89 278 -292 278 -462 c 0
 278 -535 341 -624 394 -624 c 0
 439 -624 447 -616 450 -613 c 0
 466 -600 500 -575 516 -575 c 0
 521 -575 524 -578 524 -584 c 0
 524 -617 426 -726 353 -755 c 0
 328 -765 301 -769 262 -769 c 0
 200 -769 175 -764 139 -727 c 0
 114 -701 81 -651 81 -591 c 0
 81 -410 338 -192 482 -68 c 1
 444 64 405 178 369 238 c 1
 280 190 172 90 130 46 c 1
 129 39 128 33 128 27 c 0
 128 -37 193 -38 193 -49 c 0
 193 -82 52 -185 7 -185 c 0
 -11 -185 -64 -169 -64 -109 c 0
 -64 -74 -52 -50 32 35 c 0
 147 151 249 227 351 296 c 1
 150 740 66 740 -13 740 c 1
 -13 884 l 1
887 510 m 0
 887 599 842 755 703 755 c 0
 605 755 548 691 464 587 c 1
 561 385 599 268 645 90 c 1
 656 80 l 1
 731 157 887 338 887 510 c 0
EndSplineSet
EndChar

StartChar: uniE022
Encoding: 57378 57378 331
Width: 1618
VWidth: 0
Flags: HW
LayerCount: 2
Fore
SplineSet
1513 107 m 0
 1513 -139 1044 -440 684 -440 c 0
 373 -440 107 -262 107 6 c 0
 107 385 438 622 590 740 c 1
 504 746 429 748 365 748 c 0
 173 748 76 728 44 728 c 0
 35 728 31 729 31 733 c 0
 31 766 152 859 207 871 c 0
 294 889 395 896 503 896 c 0
 757 896 1048 860 1278 860 c 0
 1460 860 1547 883 1576 883 c 0
 1584 883 1588 881 1588 876 c 0
 1588 849 1488 763 1421 741 c 0
 1393 731 1248 713 1096 713 c 0
 953 713 798 725 678 734 c 1
 603 683 524 624 449 529 c 0
 325 372 304 225 304 136 c 0
 304 -156 605 -296 860 -296 c 0
 1022 -296 1181 -231 1230 -195 c 0
 1258 -175 1316 -107 1316 -20 c 0
 1316 65 1253 135 1175 149 c 0
 1169 150 1167 153 1167 157 c 0
 1167 188 1305 292 1353 292 c 0
 1387 292 1513 245 1513 107 c 0
EndSplineSet
EndChar

StartChar: uniE022.conr
Encoding: 65680 -1 332
Width: 1618
VWidth: 0
Flags: HW
LayerCount: 2
Fore
SplineSet
1513 109 m 0
 1513 -135 1049 -440 682 -440 c 0
 424 -440 107 -297 107 10 c 0
 107 304 316 538 588 742 c 1
 123 736 96 727 41 727 c 0
 35 727 31 727 31 734 c 0
 31 761 137 851 201 870 c 0
 244 883 520 886 847 886 c 0
 1107 886 1398 884 1632 884 c 1
 1632 740 l 1
 968 740 1252 741 683 742 c 1
 364 525 304 290 304 136 c 0
 304 -123 564 -296 860 -296 c 0
 1017 -296 1172 -234 1229 -194 c 0
 1257 -174 1316 -107 1316 -18 c 0
 1316 63 1257 134 1179 150 c 0
 1171 152 1168 156 1168 161 c 0
 1168 196 1308 294 1353 294 c 0
 1388 294 1513 246 1513 109 c 0
EndSplineSet
EndChar

StartChar: uniE022.conl
Encoding: 65681 -1 333
Width: 1618
VWidth: 0
Flags: HW
LayerCount: 2
Fore
SplineSet
-13 740 m 1
 -13 884 l 1
 731 883 679 866 1129 866 c 0
 1444 866 1544 884 1575 884 c 0
 1586 884 1588 882 1588 876 c 0
 1588 845 1464 746 1409 738 c 0
 1325 727 1130 720 933 720 c 0
 846 720 760 722 681 724 c 1
 649 703 632 693 602 670 c 0
 412 526 304 331 304 130 c 0
 304 -127 567 -297 860 -297 c 0
 1010 -297 1177 -237 1235 -194 c 0
 1266 -171 1316 -104 1316 -25 c 0
 1316 71 1245 132 1176 145 c 0
 1170 146 1168 149 1168 153 c 0
 1168 183 1304 288 1353 288 c 0
 1383 288 1513 246 1513 101 c 0
 1513 -137 1053 -440 685 -440 c 0
 425 -440 107 -303 107 7 c 0
 107 316 343 540 588 726 c 5
 587 727 128 740 -13 740 c 1
EndSplineSet
EndChar

StartChar: uniE022.conb
Encoding: 65682 -1 334
Width: 1618
VWidth: 0
Flags: HW
LayerCount: 2
Fore
SplineSet
-13 740 m 1
 -13 884 l 1
 1632 884 l 1
 1632 740 l 1
 686 740 l 1
 632 704 578 667 517 606 c 0
 312 401 304 200 304 136 c 0
 304 -123 564 -296 861 -296 c 0
 1021 -296 1181 -231 1231 -194 c 0
 1267 -167 1316 -98 1316 -20 c 0
 1316 67 1252 133 1181 148 c 0
 1169 150 1167 152 1167 157 c 0
 1167 193 1309 293 1353 293 c 0
 1386 293 1513 246 1513 108 c 0
 1513 -142 1039 -440 684 -440 c 0
 379 -440 107 -263 107 3 c 0
 107 298 301 525 590 740 c 1
 -13 740 l 1
EndSplineSet
EndChar

StartChar: uniE022.dec
Encoding: 65683 -1 335
Width: 1933
VWidth: 0
Flags: HW
LayerCount: 2
Fore
SplineSet
831 -477 m 0
 523 -477 106 -337 106 36 c 0
 106 384 374 666 720 887 c 1
 590 906 485 912 400 912 c 0
 154 912 72 855 41 855 c 0
 35 855 31 858 31 863 c 0
 31 888 108 957 175 989 c 0
 217 1009 375 1060 569 1060 c 0
 902 1060 1216 958 1521 958 c 0
 1782 958 1856 1015 1893 1015 c 0
 1899 1015 1903 1015 1903 1008 c 0
 1903 985 1784 811 1352 811 c 0
 1165 811 979 846 809 873 c 1
 737 834 674 795 615 750 c 1
 615 -255 l 1
 740 -308 874 -332 1005 -332 c 0
 1176 -332 1342 -292 1476 -226 c 1
 1476 -226 1630 -166 1630 4 c 0
 1630 99 1560 157 1496 172 c 0
 1484 175 1482 177 1482 182 c 0
 1482 215 1620 317 1668 317 c 0
 1703 317 1827 268 1827 131 c 0
 1827 -154 1294 -477 831 -477 c 0
303 178 m 0
 303 48 354 -76 472 -170 c 1
 472 611 l 1
 367 478 303 324 303 178 c 0
EndSplineSet
EndChar

StartChar: uniE022.conrbot
Encoding: 65684 -1 336
Width: 1618
VWidth: 0
Flags: HW
LayerCount: 2
Fore
SplineSet
371 750 m 0
 182 750 79 728 44 728 c 0
 35 728 31 729 31 733 c 0
 31 766 152 859 207 871 c 0
 294 889 395 896 503 896 c 0
 757 896 1048 860 1278 860 c 0
 1460 860 1547 883 1576 883 c 0
 1584 883 1588 881 1588 876 c 0
 1588 849 1488 763 1421 741 c 0
 1392 731 1243 713 1097 713 c 0
 1015 713 933 716 687 734 c 1
 360 484 304 232 304 78 c 0
 304 -221 598 -387 861 -387 c 0
 1020 -387 1197 -320 1247 -269 c 0
 1292 -224 1315 -166 1315 -115 c 0
 1315 -52 1279 0 1206 0 c 0
 1184 0 1178 0 1178 8 c 0
 1178 33 1300 145 1382 145 c 0
 1389 145 1570 144 1632 144 c 1
 1632 0 l 1
 1512 0 l 1
 1502 -76 1461 -197 1228 -350 c 0
 1039 -475 850 -529 682 -529 c 0
 353 -529 107 -323 107 -48 c 0
 107 320 375 545 602 740 c 1
 514 747 437 750 371 750 c 0
EndSplineSet
EndChar

StartChar: uniE022.conbbot
Encoding: 65685 -1 337
Width: 1618
VWidth: 0
Flags: HW
LayerCount: 2
Fore
SplineSet
-13 740 m 1
 -13 884 l 1
 731 883 679 866 1129 866 c 0
 1444 866 1544 884 1575 884 c 0
 1586 884 1588 882 1588 876 c 0
 1588 845 1464 746 1409 738 c 0
 1342 728 1170 721 945 721 c 0
 866 721 779 722 689 724 c 1
 551 620 304 402 304 72 c 0
 304 -219 595 -387 859 -387 c 0
 1018 -387 1197 -320 1247 -269 c 0
 1292 -224 1315 -166 1315 -115 c 0
 1315 -52 1279 0 1206 0 c 0
 1184 0 1178 0 1178 8 c 0
 1178 33 1300 145 1382 145 c 0
 1389 145 1570 144 1632 144 c 1
 1632 0 l 1
 1512 0 l 1
 1505 -53 1487 -149 1318 -285 c 0
 1116 -448 875 -530 683 -530 c 0
 384 -530 107 -344 107 -54 c 0
 107 310 397 555 600 726 c 5
 400 732 111 740 -13 740 c 1
EndSplineSet
EndChar

StartChar: uniE023
Encoding: 57379 57379 338
Width: 1618
VWidth: 0
Flags: HW
LayerCount: 2
Fore
SplineSet
1513 -36 m 0
 1513 -301 1166 -522 953 -522 c 0
 792 -522 738 -399 738 -399 c 1
 738 -366 877 -263 926 -263 c 0
 943 -263 981 -378 1130 -378 c 0
 1187 -378 1240 -362 1247 -356 c 0
 1264 -342 1316 -264 1316 -161 c 0
 1316 -16 1220 21 1083 21 c 0
 944 21 763 -17 600 -17 c 0
 397 -17 107 40 107 268 c 0
 107 352 128 466 293 608 c 0
 397 697 425 715 492 745 c 1
 440 749 393 750 350 750 c 0
 180 750 80 728 45 728 c 0
 36 728 31 729 31 733 c 0
 31 766 152 859 207 871 c 0
 294 889 395 896 503 896 c 0
 757 896 1048 860 1278 860 c 0
 1460 860 1547 883 1576 883 c 0
 1584 883 1588 881 1588 876 c 0
 1588 849 1488 763 1421 741 c 0
 1393 731 1248 713 1096 713 c 0
 948 713 783 727 657 736 c 1
 508 687 419 647 381 605 c 0
 350 571 304 503 304 400 c 0
 304 224 496 126 776 126 c 0
 938 126 1122 165 1265 165 c 0
 1410 165 1513 125 1513 -36 c 0
EndSplineSet
EndChar

StartChar: uniE023.conr
Encoding: 65686 -1 339
Width: 1618
VWidth: 0
Flags: HW
LayerCount: 2
Fore
SplineSet
107 275 m 0
 107 461 238 593 475 740 c 1
 345 740 215 732 41 727 c 0
 35 727 31 727 31 734 c 0
 31 761 137 851 201 870 c 0
 244 883 520 886 847 886 c 0
 1107 886 1398 884 1632 884 c 1
 1632 740 l 1
 952 740 1244 742 661 742 c 1
 504 689 419 651 381 608 c 0
 371 597 304 526 304 402 c 0
 304 194 563 128 776 128 c 0
 935 128 1117 166 1260 166 c 0
 1406 166 1512 126 1512 -33 c 0
 1512 -300 1173 -521 952 -521 c 0
 794 -521 738 -400 738 -399 c 0
 738 -366 877 -263 926 -263 c 0
 940 -263 986 -378 1125 -378 c 0
 1187 -378 1241 -361 1247 -355 c 0
 1262 -341 1316 -265 1316 -160 c 0
 1316 -14 1219 22 1081 22 c 0
 942 22 762 -15 600 -15 c 0
 390 -15 107 43 107 275 c 0
EndSplineSet
EndChar

StartChar: uniE023.conl
Encoding: 65687 -1 340
Width: 1618
VWidth: 0
Flags: HW
LayerCount: 2
Fore
SplineSet
107 264 m 0
 107 450 255 602 483 730 c 1
 434 733 185 740 -13 740 c 1
 -13 884 l 1
 731 883 679 866 1129 866 c 0
 1444 866 1544 884 1575 884 c 0
 1586 884 1588 882 1588 876 c 0
 1588 845 1464 746 1409 738 c 0
 1341 728 1160 721 946 721 c 0
 855 721 759 722 662 725 c 1
 532 684 453 649 408 619 c 0
 382 602 304 528 304 391 c 0
 304 174 584 121 778 121 c 0
 937 121 1120 160 1264 160 c 0
 1408 160 1513 121 1513 -37 c 0
 1513 -110 1495 -226 1339 -356 c 0
 1245 -435 1106 -521 950 -521 c 0
 795 -521 738 -401 738 -399 c 0
 738 -366 877 -263 926 -263 c 0
 942 -263 984 -378 1127 -378 c 0
 1163 -378 1206 -372 1239 -360 c 0
 1265 -351 1316 -264 1316 -165 c 0
 1316 -20 1220 17 1084 17 c 0
 945 17 764 -22 604 -22 c 0
 387 -22 107 35 107 264 c 0
EndSplineSet
EndChar

StartChar: uniE023.conb
Encoding: 65688 -1 341
Width: 1618
VWidth: 0
Flags: HW
LayerCount: 2
Fore
SplineSet
1513 -33 m 0
 1513 -305 1163 -522 954 -522 c 0
 793 -522 738 -399 738 -399 c 1
 738 -366 877 -263 926 -263 c 0
 943 -263 982 -378 1128 -378 c 0
 1177 -378 1238 -366 1251 -351 c 0
 1288 -307 1316 -237 1316 -161 c 0
 1316 -15 1219 22 1082 22 c 0
 942 22 761 -17 599 -17 c 0
 399 -17 107 42 107 270 c 0
 107 457 246 602 482 740 c 1
 -13 740 l 1
 -13 884 l 1
 1632 884 l 1
 1632 740 l 1
 668 740 l 1
 407 656 373 613 336 540 c 0
 317 502 304 456 304 400 c 0
 304 189 568 127 777 127 c 0
 935 127 1116 165 1260 165 c 0
 1406 165 1513 126 1513 -33 c 0
EndSplineSet
EndChar

StartChar: uniE023.dec
Encoding: 65689 -1 342
Width: 1933
VWidth: 0
Flags: HW
LayerCount: 2
Fore
SplineSet
106 342 m 0
 106 703 606 893 604 901 c 1
 598 901 523 913 402 913 c 0
 163 913 68 855 41 855 c 0
 35 855 31 858 31 863 c 0
 31 888 108 957 175 989 c 0
 217 1009 375 1060 569 1060 c 0
 902 1060 1216 958 1521 958 c 0
 1782 958 1856 1015 1893 1015 c 0
 1899 1015 1903 1015 1903 1008 c 0
 1903 984 1829 917 1762 884 c 0
 1725 866 1582 811 1352 811 c 0
 1205 811 1095 827 796 875 c 1
 723 857 687 847 616 824 c 1
 615 181 l 1
 706 161 794 154 879 154 c 0
 1122 154 1342 213 1536 213 c 0
 1703 213 1828 165 1828 -28 c 0
 1828 -318 1445 -567 1172 -567 c 0
 1012 -567 955 -447 955 -444 c 0
 955 -412 1094 -309 1141 -309 c 0
 1150 -309 1150 -310 1159 -323 c 0
 1209 -400 1287 -423 1360 -423 c 0
 1453 -423 1538 -386 1550 -373 c 0
 1564 -358 1630 -284 1630 -152 c 0
 1630 23 1519 70 1359 70 c 0
 1179 70 937 11 722 11 c 0
 430 11 106 78 106 342 c 0
304 473 m 0
 304 326 396 266 473 228 c 1
 473 765 l 1
 451 761 304 670 304 473 c 0
EndSplineSet
EndChar

StartChar: uniE024
Encoding: 57380 57380 343
Width: 1165
VWidth: 0
Flags: HW
LayerCount: 2
Fore
SplineSet
1083 504 m 0
 1083 240 699 -30 454 -30 c 0
 248 -30 80 137 80 362 c 0
 80 726 621 1128 621 1472 c 0
 621 1525 581 1557 544 1559 c 0
 535 1560 531 1563 531 1569 c 0
 531 1602 670 1702 718 1702 c 0
 763 1702 818 1673 818 1599 c 0
 818 1238 278 839 278 485 c 0
 278 293 426 113 630 113 c 0
 697 113 754 134 780 148 c 0
 802 160 886 255 886 375 c 0
 886 520 751 556 750 557 c 0
 749 558 748 560 748 562 c 0
 748 596 888 697 935 697 c 0
 951 697 1083 652 1083 504 c 0
EndSplineSet
EndChar

StartChar: uniE024.flat
Encoding: 65690 -1 344
Width: 1165
VWidth: 0
Flags: HW
LayerCount: 2
Fore
SplineSet
880 1491 m 0
 880 1523 860 1565 806 1565 c 0
 798 1565 795 1567 795 1572 c 0
 795 1600 927 1703 986 1703 c 0
 1036 1703 1091 1659 1091 1594 c 0
 1091 1243 584 949 386 715 c 0
 308 623 278 545 278 467 c 0
 278 284 430 113 630 113 c 0
 680 113 743 128 780 148 c 0
 802 160 886 255 886 375 c 0
 886 520 751 556 750 557 c 0
 749 558 748 560 748 562 c 0
 748 596 888 697 935 697 c 0
 951 697 1083 652 1083 504 c 0
 1083 240 701 -30 453 -30 c 0
 246 -30 81 135 81 343 c 0
 81 766 880 1026 880 1491 c 0
EndSplineSet
EndChar

StartChar: uniE024.open
Encoding: 65691 -1 345
Width: 1165
VWidth: 0
Flags: HW
LayerCount: 2
Fore
SplineSet
1083 504 m 0
 1083 238 698 -29 454 -29 c 0
 212 -29 80 191 80 383 c 0
 80 715 448 1148 448 1464 c 0
 448 1500 421 1540 372 1544 c 0
 360 1545 359 1545 359 1553 c 0
 359 1585 487 1703 538 1703 c 0
 555 1703 635 1693 635 1593 c 0
 635 1268 278 847 278 508 c 0
 278 322 415 113 631 113 c 0
 685 113 746 129 780 148 c 0
 802 160 886 255 886 375 c 0
 886 520 751 556 750 557 c 0
 749 558 748 560 748 562 c 0
 748 596 888 697 935 697 c 0
 951 697 1083 652 1083 504 c 0
EndSplineSet
EndChar

StartChar: uniE024.lig
Encoding: 65692 -1 346
Width: 725
VWidth: 0
Flags: HW
LayerCount: 2
Fore
SplineSet
81 359 m 0
 81 734 647 1121 647 1474 c 0
 647 1517 617 1555 570 1559 c 0
 560 1560 556 1562 557 1569 c 0
 561 1603 694 1703 748 1703 c 0
 776 1703 844 1684 844 1598 c 0
 844 1388 659 1173 440 874 c 1
 321 704 279 596 279 486 c 0
 279 283 442 114 644 114 c 0
 730 114 793 159 859 256 c 0
 944 380 927 450 937 471 c 0
 960 520 1073 609 1111 609 c 0
 1116 609 1119 608 1119 598 c 0
 1119 340 721 -30 473 -30 c 0
 270 -30 81 127 81 359 c 0
EndSplineSet
EndChar

StartChar: uniE024.lig_flat
Encoding: 65693 -1 347
Width: 725
VWidth: 0
Flags: HW
LayerCount: 2
Fore
SplineSet
921 1484 m 0
 921 1580 835 1557 835 1574 c 0
 835 1606 975 1703 1026 1703 c 0
 1076 1703 1131 1659 1131 1594 c 0
 1131 1268 699 1007 460 786 c 0
 373 706 278 599 278 474 c 0
 278 272 448 114 642 114 c 0
 729 114 791 156 859 256 c 0
 944 380 927 450 937 471 c 0
 960 520 1073 609 1111 609 c 0
 1116 609 1119 608 1119 598 c 0
 1119 339 721 -30 474 -30 c 0
 255 -30 80 136 80 343 c 0
 80 771 921 1027 921 1484 c 0
EndSplineSet
EndChar

StartChar: uniE024.lig_open
Encoding: 65694 -1 348
Width: 725
VWidth: 0
Flags: HW
LayerCount: 2
Fore
SplineSet
389 1544 m 0
 381 1544 378 1547 378 1552 c 0
 378 1585 503 1702 556 1702 c 0
 593 1702 654 1675 654 1599 c 0
 654 1268 278 844 278 517 c 0
 278 288 452 113 641 113 c 0
 718 113 765 146 808 192 c 0
 871 260 928 356 933 452 c 0
 936 506 1071 609 1111 609 c 0
 1116 609 1119 608 1119 598 c 0
 1119 340 721 -30 473 -30 c 0
 253 -30 81 157 81 386 c 0
 81 718 465 1145 465 1461 c 0
 465 1529 408 1544 389 1544 c 0
EndSplineSet
EndChar

StartChar: uniE025
Encoding: 57381 57381 349
Width: 1165
VWidth: 0
Flags: HW
LayerCount: 2
Fore
SplineSet
81 380 m 0
 81 665 473 914 661 914 c 0
 915 914 1084 698 1084 418 c 0
 1084 32 874 -484 375 -775 c 0
 339 -796 289 -819 266 -819 c 0
 258 -819 253 -816 253 -810 c 0
 253 -751 512 -708 728 -308 c 0
 813 -151 886 65 886 299 c 0
 886 575 700 771 496 771 c 0
 488 771 402 769 372 737 c 0
 306 668 278 586 278 508 c 0
 278 351 392 208 543 208 c 0
 610 208 629 249 670 249 c 0
 677 249 682 247 681 240 c 0
 677 203 506 65 364 65 c 0
 227 65 81 183 81 380 c 0
EndSplineSet
EndChar

StartChar: uniE026
Encoding: 57382 57382 350
Width: 1177
VWidth: 0
Flags: HW
LayerCount: 2
Fore
SplineSet
1084 -41 m 0
 1084 -225 752 -469 455 -469 c 0
 242 -469 80 -322 80 -131 c 0
 80 87 218 216 331 313 c 1
 283 349 218 419 218 539 c 3
 218 860 694 1179 694 1474 c 0
 694 1532 648 1557 618 1559 c 0
 609 1560 605 1563 605 1569 c 0
 605 1602 741 1702 790 1702 c 0
 845 1702 892 1665 892 1602 c 0
 892 1290 415 970 415 667 c 0
 415 532 516 418 644 418 c 0
 807 418 875 571 940 571 c 0
 946 571 949 568 949 563 c 0
 949 515 698 266 480 266 c 0
 430 266 411 276 386 282 c 1
 326 220 278 119 278 -5 c 4
 278 -201 445 -325 641 -325 c 0
 704 -325 769 -312 833 -285 c 0
 869 -269 886 -205 886 -166 c 0
 886 -26 750 14 750 14 c 2
 749 15 748 17 748 19 c 0
 748 53 888 154 935 154 c 0
 950 154 1084 108 1084 -41 c 0
EndSplineSet
EndChar

StartChar: uniE026.flat
Encoding: 65695 -1 351
Width: 1177
VWidth: 0
Flags: HW
LayerCount: 2
Fore
SplineSet
218 531 m 0
 218 885 901 1109 901 1485 c 0
 901 1579 815 1556 815 1574 c 0
 815 1604 954 1703 1005 1703 c 0
 1062 1703 1111 1655 1111 1595 c 0
 1111 1315 730 1085 541 896 c 0
 476 831 415 752 415 656 c 0
 415 521 522 418 644 418 c 0
 777 418 833 511 901 554 c 0
 932 573 949 576 949 563 c 0
 949 519 701 266 481 266 c 0
 437 266 413 274 385 283 c 1
 359 253 278 168 278 -5 c 0
 278 -196 441 -325 640 -325 c 0
 702 -325 768 -312 833 -285 c 0
 869 -269 886 -205 886 -166 c 0
 886 -26 750 14 750 14 c 2
 749 15 748 17 748 19 c 0
 748 53 888 154 935 154 c 0
 950 154 1084 108 1084 -41 c 0
 1084 -131 1019 -207 954 -264 c 0
 788 -407 615 -468 467 -468 c 0
 246 -468 81 -332 81 -135 c 0
 81 97 234 234 330 312 c 1
 331 315 218 380 218 531 c 0
EndSplineSet
EndChar

StartChar: uniE026.open
Encoding: 65696 -1 352
Width: 1177
VWidth: 0
Flags: HW
LayerCount: 2
Fore
SplineSet
1084 -41 m 0
 1084 -229 742 -469 461 -469 c 0
 226 -469 80 -313 80 -119 c 0
 80 21 157 181 331 316 c 1
 249 386 218 467 218 557 c 0
 218 842 534 1202 534 1461 c 0
 534 1510 499 1541 458 1544 c 0
 447 1545 444 1546 445 1554 c 0
 449 1592 577 1702 623 1702 c 0
 659 1702 722 1677 722 1598 c 0
 722 1324 415 961 415 695 c 0
 415 519 531 418 645 418 c 0
 790 418 849 537 925 567 c 0
 935 571 949 575 949 563 c 0
 949 519 701 265 480 265 c 0
 447 265 415 271 384 284 c 1
 308 199 278 90 278 -4 c 0
 278 -196 441 -325 640 -325 c 0
 702 -325 768 -312 833 -285 c 0
 869 -269 886 -205 886 -166 c 0
 886 -26 750 14 750 14 c 2
 749 15 748 17 748 19 c 0
 748 53 888 154 935 154 c 0
 950 154 1084 108 1084 -41 c 0
EndSplineSet
EndChar

StartChar: uniE027
Encoding: 57383 57383 353
Width: 1177
VWidth: 0
Flags: HW
LayerCount: 2
Fore
SplineSet
616 28 m 0
 455 28 387 -125 321 -125 c 0
 315 -125 313 -123 313 -118 c 0
 313 -73 548 162 759 179 c 0
 806 183 886 316 886 461 c 0
 886 640 721 771 523 771 c 0
 462 771 397 759 333 731 c 0
 299 717 278 669 278 615 c 0
 278 546 313 467 402 437 c 0
 414 433 416 432 416 427 c 0
 416 391 274 291 230 291 c 0
 204 291 80 347 80 483 c 0
 80 676 423 914 702 914 c 0
 927 914 1083 771 1083 585 c 0
 1083 398 959 248 851 171 c 1
 934 148 1044 58 1044 -107 c 0
 1044 -338 922 -653 538 -843 c 0
 463 -881 401 -900 373 -900 c 0
 362 -900 356 -897 356 -891 c 0
 356 -877 390 -851 455 -822 c 0
 762 -686 847 -391 847 -227 c 0
 847 -74 734 28 616 28 c 0
EndSplineSet
EndChar

StartChar: uniE02B
Encoding: 57387 57387 354
Width: 1125
VWidth: 0
Flags: HW
LayerCount: 2
Fore
SplineSet
1044 531 m 0
 1044 200 684 -30 465 -30 c 0
 251 -30 80 140 80 353 c 0
 80 687 444 914 656 914 c 0
 872 914 1044 746 1044 531 c 0
278 482 m 0
 278 258 461 113 640 113 c 0
 689 113 743 125 752 135 c 0
 821 214 846 322 846 402 c 0
 846 597 699 771 471 771 c 0
 432 771 379 757 372 749 c 0
 303 670 278 562 278 482 c 0
EndSplineSet
EndChar

StartChar: uniE02B.conr
Encoding: 65697 -1 355
Width: 1176
VWidth: 0
Flags: HW
LayerCount: 2
Fore
SplineSet
1044 531 m 0
 1044 200 684 -30 465 -30 c 0
 251 -30 80 140 80 353 c 0
 80 682 437 914 658 914 c 0
 724 914 818 884 1189 884 c 1
 1189 740 l 1
 982 740 l 1
 1023 673 1044 611 1044 531 c 0
846 393 m 0
 846 583 715 771 468 771 c 0
 439 771 379 757 372 749 c 0
 303 670 278 562 278 482 c 0
 278 258 461 113 640 113 c 0
 689 113 743 125 752 135 c 0
 815 207 846 301 846 393 c 0
EndSplineSet
EndChar

StartChar: uniE032
Encoding: 57394 57394 356
Width: 1026
VWidth: 0
Flags: HW
LayerCount: 2
Fore
SplineSet
80 318 m 0
 80 620 466 883 666 883 c 0
 798 883 858 781 858 775 c 0
 858 743 720 640 671 640 c 0
 663 640 663 643 658 651 c 0
 616 716 544 740 483 740 c 0
 439 740 401 727 384 709 c 0
 326 646 278 548 278 442 c 0
 278 285 412 114 593 114 c 0
 748 114 845 181 921 248 c 0
 972 293 1049 337 1075 337 c 0
 1081 337 1084 335 1084 330 c 0
 1084 293 883 141 769 77 c 0
 634 1 520 -29 427 -29 c 0
 186 -29 80 173 80 318 c 0
EndSplineSet
EndChar

StartChar: uniE032.desc
Encoding: 65698 -1 357
Width: 1087
VWidth: 0
Flags: HW
LayerCount: 2
Fore
SplineSet
80 318 m 0
 80 620 466 883 666 883 c 0
 798 883 858 781 858 775 c 0
 858 743 720 640 671 640 c 0
 663 640 663 643 658 651 c 0
 616 716 544 740 483 740 c 0
 439 740 401 727 384 709 c 0
 326 646 278 548 278 442 c 0
 278 285 412 114 593 114 c 0
 748 114 845 181 921 248 c 0
 982 302 1049 337 1074 337 c 0
 1081 337 1084 334 1084 329 c 0
 1084 308 966 182 745 -154 c 0
 736 -168 681 -254 653 -254 c 0
 648 -254 645 -250 645 -243 c 0
 645 -207 668 -187 839 119 c 1
 719 43 577 -30 414 -30 c 0
 231 -30 80 134 80 318 c 0
EndSplineSet
EndChar

StartChar: uniE032.dec
Encoding: 65699 -1 358
Width: 1171
VWidth: 0
Flags: HW
LayerCount: 2
Fore
SplineSet
1168 330 m 0
 1168 294.71328125 790.8875 -30 447 -30 c 0
 235 -30 80 177 80 373 c 0
 80 725 528 1016 753 1016 c 0
 921 1016 989 889 989 884 c 0
 989 852 850 750 802 750 c 0
 787 750 800 755 760 795 c 0
 693 862 618 872 577 872 c 0
 566 872 558 872 553 871 c 1
 553 122 l 1
 582 114 607 113 630 113 c 0
 924 113 1062 337 1157 337 c 0
 1164 337 1168 334 1168 330 c 0
411 547 m 0
 411 600 411 669 409 814 c 1
 358 758 278 682 278 506 c 0
 278 385 323 290 410 202 c 1
 410 424 411 467 411 547 c 0
EndSplineSet
EndChar

StartChar: uniE031
Encoding: 57393 57393 359
Width: 1077
VWidth: 0
Flags: HW
LayerCount: 2
Fore
SplineSet
55 499 m 0
 55 690 367 914 643 914 c 0
 829 914 971 817 971 660 c 0
 971 335 567 166 565 156 c 1
 566 155 791 155 814 155 c 0
 981 155 932 167 1038 220 c 0
 1062 232 1078 236 1088 236 c 0
 1096 236 1100 233 1100 229 c 0
 1100 205 1043 162 963 109 c 0
 822 17 776 -3 668 -3 c 0
 587 -3 471 8 254 8 c 0
 121 8 75 1 59 1 c 0
 51 1 50 3 50 9 c 0
 50 37 174 135 238 142 c 0
 344 154 308 141 388 163 c 0
 494 192 588 230 641 264 c 0
 676 287 773 372 773 534 c 0
 773 679 637 771 468 771 c 0
 396 771 294 749 282 730 c 0
 266 706 253 668 253 624 c 0
 253 565 283 545 283 537 c 0
 283 503 142 401 96 401 c 0
 83 401 55 439 55 499 c 0
EndSplineSet
EndChar

StartChar: uniE031.desc
Encoding: 65700 -1 360
Width: 1063
VWidth: 0
Flags: HW
LayerCount: 2
Fore
SplineSet
971 601 m 0
 971 88 248 -391 248 -391 c 1
 288 -391 304 -383 744 -383 c 0
 1001 -383 909 -382 1038 -318 c 0
 1062 -306 1078 -302 1088 -302 c 0
 1096 -302 1100 -305 1100 -309 c 0
 1100 -349 827 -541 708 -541 c 0
 614 -541 379 -531 238 -531 c 0
 76 -531 17 -537 -4 -537 c 0
 -16 -537 -16 -535 -16 -529 c 0
 -16 -501 67 -422 136 -386 c 0
 548 -172 773 210 773 467 c 0
 773 653 634 770 479 770 c 0
 401 770 317 747 305 734 c 0
 290 717 253 660 253 577 c 0
 253 489 323 465 323 455 c 0
 323 419 182 319 136 319 c 0
 118 319 56 373 56 442 c 0
 56 551 100 624 170 694 c 0
 274 798 459 914 651 914 c 0
 854 914 971 760 971 601 c 0
EndSplineSet
EndChar

StartChar: uniE029
Encoding: 57385 57385 361
Width: 1440
VWidth: 0
Flags: HW
LayerCount: 2
Fore
SplineSet
80 359 m 0
 80 675.56796875 408.884375 915 639 915 c 0
 703 915 772 900 845 861 c 1
 846 926 848 1056 848 1186 c 0
 848 1309 844 1542 749 1542 c 0
 728 1542 693 1517 693 1538 c 0
 693 1571 824 1702 910 1702 c 0
 988 1702 1029 1628 1039 1388 c 0
 1046 1234 1046 412 1048 361 c 0
 1056 194 1069 183 1092 153 c 1
 1173 149 1258 129 1320 129 c 0
 1396 129 1428 185 1477 185 c 0
 1483 185 1486 182 1486 178 c 0
 1486 143 1303 -15 1141 -15 c 0
 1064 -15 981 10 904 10 c 0
 772 10 594 -30 459 -30 c 0
 226 -30 80 150 80 359 c 0
845 412 m 2
 845 651 632 771 450 771 c 0
 405 771 374 763 369 757 c 0
 307 680 278 585 278 493 c 0
 278 299 407 113 636 113 c 0
 703 113 780 123 858 134 c 1
 845 289 845 324 845 396 c 2
 845 412 l 2
EndSplineSet
EndChar

StartChar: uniE03D
Encoding: 57405 57405 362
Width: 1358
VWidth: 0
Flags: HW
LayerCount: 2
Fore
SplineSet
80 354 m 0
 80 704 442 914 622 914 c 0
 855 914 1042 764 1042 547 c 0
 1042 284 834 140 824 128 c 1
 833 128 978 148 1074 148 c 0
 1138 148 1217 129 1269 129 c 0
 1325 129 1351 174 1396 174 c 0
 1403 174 1406 172 1406 167 c 0
 1406 132 1235 -15 1086 -15 c 0
 1019 -15 972 4 896 4 c 0
 777 4 587 -30 458 -30 c 0
 221 -30 80 157 80 354 c 0
844 420 m 0
 844 631 653 771 449 771 c 0
 411 771 372 760 369 757 c 0
 312 686 278 585 278 482 c 0
 278 279 431 113 629 113 c 0
 669 113 701 120 729 130 c 0
 763 142 844 268 844 420 c 0
EndSplineSet
EndChar

StartChar: uniE03C
Encoding: 57404 57404 363
Width: 1106
VWidth: 0
Flags: HW
LayerCount: 2
Fore
SplineSet
224 727 m 0
 224 1318.55 199.2 1542 100 1542 c 0
 82 1542 48 1519 48 1539 c 0
 48 1572 175 1703 262 1703 c 0
 389 1703 421 1489 421 711 c 1
 505 789 644 899 816 899 c 0
 960 899 1026 762 1026 634 c 0
 1026 254 533 84 310 -98 c 0
 126 -248 99 -391 99 -471 c 0
 99 -544 198 -624 269 -624 c 0
 357 -624 378 -584 378 -584 c 1
 419 -536 480 -484 505 -484 c 0
 511 -484 513 -487 513 -493 c 0
 513 -541 321 -768 97 -768 c 0
 -3 -768 -99 -682 -99 -588 c 0
 -99 -492 -66 -282 209 -83 c 1
 212 -3 224 367 224 727 c 0
829 511 m 0
 829 645 748 755 644 755 c 0
 521 755 455 671 421 634 c 1
 421 367 410 186 407 42 c 1
 564 140 829 256 829 511 c 0
EndSplineSet
EndChar

StartChar: uniE058
Encoding: 57432 57432 364
Width: 1092
VWidth: 0
Flags: HW
LayerCount: 2
Fore
SplineSet
355 -386 m 0
 368 -386 418 -503 565 -503 c 0
 606 -503 655 -493 713 -470 c 1
 757 -418 789 -352 789 -264 c 0
 789 -95 605 -21 456 -3 c 0
 415 2 356 4 288 4 c 0
 195 4 87 1 -13 0 c 1
 -13 144 l 1
 142 144 278 148 396 148 c 0
 664 148 839 128 939 2 c 0
 968 -35 986 -79 986 -133 c 0
 986 -423 608 -645 389 -645 c 0
 216 -645 167 -522 167 -522 c 1
 167 -490 304 -386 355 -386 c 0
EndSplineSet
EndChar

StartChar: uniE058.high
Encoding: 65701 -1 365
Width: 1011
VWidth: 0
Flags: HW
LayerCount: 2
Fore
SplineSet
708 461 m 0
 708 574 614 743 243 743 c 0
 182 743 95 741 -13 740 c 1
 -13 884 l 1
 354 884 314 887 395 887 c 0
 832 887 906 703 906 581 c 0
 906 320 562 61 298 61 c 0
 143 61 86 181 86 185 c 0
 86 219 226 320 272 320 c 0
 292 320 327 205 476 205 c 0
 525 205 577 215 615 231 c 0
 642 243 708 341 708 461 c 0
EndSplineSet
EndChar

StartChar: uniE034
Encoding: 57396 57396 366
Width: 846
VWidth: 0
Flags: HW
LayerCount: 2
Fore
SplineSet
61 723 m 0
 43 723 11 702 11 721 c 0
 11 754 137 883 224 883 c 0
 316 883 1146 877 1181 875 c 0
 1193 875 1200 876 1200 868 c 0
 1200 836 1070 737 1019 732 c 0
 991 729 416 728 363 725 c 1
 377 667 380 598 380 530 c 0
 380 472 378 416 378 369 c 0
 378 342 379 317 381 298 c 0
 393 210 453 141 521 141 c 0
 537 141 562 154 575 154 c 0
 580 154 584 152 584 146 c 0
 584 118 453 1 349 1 c 0
 273 1 175 70 175 218 c 0
 175 321 184 397 184 474 c 0
 184 598 135 723 61 723 c 0
EndSplineSet
EndChar

StartChar: uniE034.long
Encoding: 65702 -1 367
Width: 846
VWidth: 0
Flags: HW
LayerCount: 2
Fore
SplineSet
61 723 m 0
 43 723 11 702 11 721 c 0
 11 754 137 883 224 883 c 0
 443 883 1334 876 1371 875 c 0
 1384 875 1392 875 1392 867 c 0
 1392 835 1261 737 1211 732 c 0
 1159 727 404 725 363 725 c 1
 377 659 380 591 380 527 c 0
 380 470 378 416 378 369 c 0
 378 343 378 319 381 298 c 0
 393 210 453 141 521 141 c 0
 537 141 562 154 575 154 c 0
 580 154 584 152 584 146 c 0
 584 118 453 1 349 1 c 0
 273 1 175 70 175 218 c 0
 175 321 184 397 184 474 c 0
 184 598 135 723 61 723 c 0
EndSplineSet
EndChar

StartChar: uniE034.conr
Encoding: 65703 -1 368
Width: 846
VWidth: 0
Flags: HW
LayerCount: 2
Fore
SplineSet
380 536 m 0
 380 506 378 440 378 382 c 0
 378 347 379 316 381 298 c 0
 393 210 453 141 521 141 c 0
 537 141 562 154 575 154 c 0
 580 154 584 152 584 146 c 0
 584 118 453 1 349 1 c 0
 273 1 175 70 175 218 c 0
 175 321 184 397 184 474 c 0
 184 598 135 723 61 723 c 0
 42 723 12 702 12 721 c 0
 12 754 134 883 225 883 c 0
 257 883 242 876 263 882 c 0
 272 885 357 885 459 885 c 0
 632 885 855 883 858 883 c 1
 858 740 l 1
 696 733 477 737 361 732 c 1
 365 700 380 669 380 536 c 0
EndSplineSet
EndChar

StartChar: uniE057.norm
Encoding: 65704 -1 369
Width: 0
VWidth: 0
Flags: HW
LayerCount: 2
Fore
SplineSet
-145 -320 m 0
 -145 -288 -8 -184 43 -184 c 0
 117 -184 168 -254 168 -341 c 0
 168 -492 71 -621 -35 -750 c 0
 -46 -763 -122 -860 -156 -860 c 0
 -161 -860 -164 -857 -164 -851 c 0
 -164 -804 -30 -694 -30 -484 c 0
 -30 -402 -65 -330 -127 -327 c 0
 -141 -326 -145 -326 -145 -320 c 0
EndSplineSet
EndChar

StartChar: utehtadot_norm
Encoding: 65705 -1 370
Width: 0
VWidth: 0
Flags: HW
LayerCount: 2
Fore
SplineSet
-69 1343 m 0
 -48 1343 -28 1311 40 1246 c 0
 58 1229 67 1218 67 1207 c 0
 67 1186 35 1165 -30 1098 c 0
 -48 1080 -58 1071 -69 1071 c 0
 -90 1071 -112 1105 -186 1175 c 0
 -200 1188 -205 1198 -205 1207 c 0
 -205 1221 -192 1232 -178 1246 c 0
 -111 1310 -90 1343 -69 1343 c 0
-159 1373 m 0
 -165 1373 -169 1376 -169 1380 c 0
 -169 1435 30 1619 206 1619 c 0
 296 1619 378 1578 378 1480 c 0
 378 1342 180 1088 42 898 c 1
 0 838 -37 798 -57 798 c 0
 -60 798 -64 800 -64 807 c 0
 -64 866 76 1013 164 1274 c 0
 174 1303 179 1329 179 1352 c 0
 179 1433 120 1479 21 1483 c 1
 -46 1417 -131 1373 -159 1373 c 0
EndSplineSet
EndChar

StartChar: uniE04C.norm
Encoding: 65706 -1 371
Width: 0
VWidth: 0
Flags: HW
LayerCount: 2
Fore
SplineSet
-211 1268 m 0
 -224 1268 -227 1308 -227 1334 c 0
 -227 1391 -202 1453 -79 1534 c 0
 11 1593 94 1619 162 1619 c 0
 261 1619 327 1564 327 1478 c 0
 327 1382 225 1221 83 1026 c 0
 13 930 -73 798 -108 798 c 0
 -111 798 -115 800 -115 807 c 0
 -115 866 24 1013 112 1272 c 0
 122 1301 127 1329 127 1355 c 0
 127 1426 85 1478 -26 1483 c 1
 -28 1471 -29 1461 -29 1452 c 0
 -29 1425 -22 1409 -22 1403 c 0
 -22 1373 -156 1268 -211 1268 c 0
EndSplineSet
EndChar

StartChar: uniE04C.double_norm
Encoding: 65707 -1 372
Width: 0
VWidth: 0
Flags: HW
LayerCount: 2
Fore
SplineSet
-422 1316 m 0
 -422 1450 -199 1602 -32 1602 c 0
 29 1602 82 1582 115 1534 c 1
 203 1589 282 1612 346 1612 c 0
 447 1612 510 1554 510 1477 c 0
 510 1328 317 1099 159 892 c 0
 138 864 87 799 62 799 c 0
 57 799 55 802 55 809 c 0
 55 861 161 963 254 1164 c 0
 298 1258 311 1308 311 1344 c 0
 311 1449 217 1476 158 1476 c 0
 118 1476 142 1470 125 1409 c 0
 87 1275 -63 1070 -181 897 c 0
 -194 879 -255 794 -276 794 c 0
 -280 794 -283 798 -283 807 c 0
 -283 851 -226 906 -133 1122 c 0
 -90 1222 -66 1293 -66 1335 c 0
 -66 1430 -148 1467 -216 1467 c 0
 -221 1467 -223 1458 -223 1447 c 0
 -223 1424 -216 1390 -216 1387 c 0
 -216 1354 -355 1252 -403 1252 c 0
 -418 1252 -422 1285 -422 1316 c 0
EndSplineSet
EndChar

StartChar: uniE04B.norm
Encoding: 65708 -1 373
Width: 0
VWidth: 0
Flags: HW
LayerCount: 2
Fore
SplineSet
142 66 m 0
 142 -15 -189 -204 -189 -416 c 0
 -189 -494 -129 -546 -33 -546 c 1
 -32 -534 -31 -524 -31 -516 c 0
 -31 -483 -39 -477 -39 -468 c 0
 -39 -437 96 -334 150 -334 c 0
 156 -334 167 -338 167 -398 c 0
 167 -533 -67 -685 -217 -685 c 0
 -319 -685 -387 -632 -387 -545 c 0
 -387 -366 -138 -160 21 -9 c 0
 22 -8 108 75 134 75 c 0
 139 75 142 73 142 66 c 0
EndSplineSet
EndChar

StartChar: otehtadot_norm
Encoding: 65709 -1 374
Width: 0
VWidth: 0
Flags: HW
LayerCount: 2
Fore
SplineSet
175 1301 m 0
 195 1301 216 1269 284 1204 c 0
 302 1186 311 1175 311 1164 c 0
 311 1143 278 1123 214 1056 c 0
 196 1038 185 1028 174 1028 c 0
 154 1028 133 1062 58 1133 c 0
 44 1146 39 1155 39 1164 c 0
 39 1177 51 1188 66 1203 c 0
 134 1268 154 1301 175 1301 c 0
-252 788 m 0
 -259 788 -262 793 -262 802 c 0
 -262 836 -221 928 -169 1037 c 0
 69 1542 241 1624 343 1624 c 0
 454 1624 534 1528 534 1426 c 0
 534 1404 532 1403 530 1398 c 0
 504 1349 380 1277 343 1277 c 0
 336 1277 333 1279 333 1284 c 0
 333 1291 337 1302 337 1320 c 0
 337 1362 309 1436 224 1436 c 0
 -1 1436 -181 788 -252 788 c 0
EndSplineSet
EndChar

StartChar: uniE04A.norm
Encoding: 65710 -1 375
Width: 0
VWidth: 0
Flags: HW
LayerCount: 2
Fore
SplineSet
-201 788 m 0
 -207 788 -210 793 -210 802 c 0
 -210 824 -193 874 -159 948 c 0
 -20 1249 173 1624 395 1624 c 0
 503 1624 585 1533 585 1426 c 0
 585 1267 360 1176 297 1176 c 0
 287 1176 281 1178 281 1183 c 0
 281 1195 312 1223 358 1246 c 0
 369 1251 388 1278 388 1319 c 0
 388 1380 341 1436 279 1436 c 0
 47 1436 -128 788 -201 788 c 0
EndSplineSet
EndChar

StartChar: uniE04A.wide
Encoding: 65711 -1 376
Width: 0
VWidth: 0
Flags: HW
LayerCount: 2
Fore
SplineSet
-278 798 m 0
 -283 798 -286 801 -286 808 c 0
 -286 848 -210 954 -119 1079 c 0
 30 1286 264 1560 447 1560 c 0
 587 1560 641 1444 641 1362 c 0
 641 1173 383 1131 328 1131 c 0
 301 1131 296 1138 296 1142 c 0
 296 1164 387 1189 395 1197 c 0
 417 1217 428 1247 428 1277 c 0
 428 1335 388 1395 316 1395 c 0
 252 1395 206 1355 170 1326 c 0
 -48 1150 -215 798 -278 798 c 0
EndSplineSet
EndChar

StartChar: uniE04A.narrow
Encoding: 65712 -1 377
Width: 0
VWidth: 0
Flags: HW
LayerCount: 2
Fore
SplineSet
-124 1433 m 0
 -124 1689 3 1748 87 1748 c 0
 176 1748 286 1682 286 1554 c 0
 286 1435 197 1295 170 1295 c 0
 165 1295 163 1299 163 1309 c 0
 163 1346 188 1390 188 1403 c 0
 188 1461 128 1511 67 1511 c 0
 6 1511 -56 1461 -56 1320 c 0
 -56 1119 40 915 40 815 c 0
 40 795 38 781 29 781 c 0
 3 781 -28 895 -37 928 c 0
 -64 1026 -124 1231 -124 1433 c 0
EndSplineSet
EndChar

StartChar: uniE04A.double_norm
Encoding: 65713 -1 378
Width: 0
VWidth: 0
Flags: HW
LayerCount: 2
Fore
SplineSet
456 1421 m 0
 230 1421 33 790 -40 790 c 0
 -45 790 -48 794 -48 804 c 0
 -48 871 127 1181 187 1274 c 0
 195 1286 198 1290 198 1292 c 0
 198 1298 184 1406 85 1406 c 0
 -138 1406 -280 786 -350 786 c 0
 -355 786 -359 795 -359 805 c 0
 -359 868 -165 1345 15 1511 c 0
 85 1575 146 1598 198 1598 c 0
 313 1598 346 1499 363 1499 c 0
 366 1499 460 1605 579 1605 c 0
 693 1605 768 1505 768 1407 c 0
 768 1230 516 1159 474 1159 c 0
 459 1159 455 1163 455 1168 c 0
 455 1192 538 1227 544 1234 c 0
 560 1252 568 1277 568 1302 c 0
 568 1360 527 1421 456 1421 c 0
EndSplineSet
EndChar

StartChar: uniE04A.double_wide
Encoding: 65714 -1 379
Width: 0
VWidth: 0
Flags: HW
LayerCount: 2
Fore
SplineSet
833 1340 m 0
 833 1141 560 1111 513 1111 c 0
 494 1111 480 1115 480 1124 c 0
 480 1137 516 1154 571 1170 c 0
 583 1174 617 1208 617 1259 c 0
 617 1320 577 1376 503 1376 c 0
 465 1376 419 1366 314 1274 c 0
 114 1099 -44 800 -105 800 c 0
 -112 800 -115 804 -115 810 c 0
 -115 876 215 1258 223 1266 c 1
 210 1341 166 1373 113 1373 c 0
 -112 1373 -358 797 -435 797 c 0
 -440 797 -442 800 -442 807 c 0
 -442 846 -387 927 -316 1035 c 0
 -43 1452 135 1543 247 1543 c 0
 310 1543 368 1513 411 1438 c 1
 504 1509 582 1536 645 1536 c 0
 769 1536 833 1428 833 1340 c 0
EndSplineSet
EndChar

StartChar: uniE04A.double_narrow
Encoding: 65715 -1 380
Width: 0
VWidth: 0
Flags: HW
LayerCount: 2
Fore
SplineSet
-100 782 m 0
 -141 782 -265 1181 -265 1410 c 0
 -265 1590 -182 1701 -58 1701 c 0
 -3 1701 42 1680 80 1647 c 1
 99 1676 145 1745 243 1745 c 0
 327 1745 442 1684 442 1549 c 0
 442 1444 349 1286 318 1286 c 0
 311 1286 309 1291 309 1299 c 0
 309 1327 338 1389 338 1399 c 0
 338 1458 278 1509 217 1509 c 0
 155 1509 92 1455 92 1299 c 0
 92 1114 171 913 171 817 c 0
 171 788 164 780 159 780 c 0
 118 780 28 1170 28 1412 c 1
 1 1445 -35 1463 -72 1463 c 0
 -134 1463 -193 1411 -193 1290 c 0
 -193 1099 -90 909 -90 810 c 0
 -90 789 -94 782 -100 782 c 0
EndSplineSet
EndChar

StartChar: uniE04D.norm
Encoding: 65716 -1 381
Width: 0
VWidth: 0
Flags: HW
LayerCount: 2
Fore
SplineSet
-403 -645 m 0
 -403 -702 -359 -767 -291 -767 c 0
 -245 -767 -176 -754 -60 -521 c 0
 78 -244 137 101 190 101 c 0
 198 101 201 94 201 81 c 0
 201 52 185 -5 162 -77 c 0
 71 -359 -12 -602 -165 -820 c 0
 -240 -927 -321 -968 -393 -968 c 0
 -501 -968 -585 -875 -585 -772 c 0
 -585 -622 -375 -510 -323 -510 c 0
 -316 -510 -311 -512 -311 -517 c 0
 -311 -540 -384 -587 -389 -595 c 0
 -399 -609 -403 -627 -403 -645 c 0
EndSplineSet
EndChar

StartChar: uniE04D.narrow
Encoding: 65717 -1 382
Width: 0
VWidth: 0
Flags: HW
LayerCount: 2
Fore
SplineSet
-29 103 m 0
 19 103 136 -389 136 -606 c 0
 136 -855 37 -940 -74 -940 c 0
 -159 -940 -273 -879 -273 -744 c 0
 -273 -642 -188 -484 -158 -484 c 0
 -151 -484 -149 -490 -149 -499 c 0
 -149 -528 -174 -589 -174 -595 c 0
 -174 -655 -114 -702 -54 -702 c 0
 1 -702 57 -662 67 -554 c 0
 68 -548 68 -527 68 -506 c 0
 68 -270 -40 -37 -40 69 c 0
 -40 89 -38 103 -29 103 c 0
EndSplineSet
EndChar

StartChar: uniE04D.wide
Encoding: 65718 -1 383
Width: 0
VWidth: 0
Flags: HW
LayerCount: 2
Fore
SplineSet
-452 -582 m 0
 -452 -640 -411 -701 -343 -701 c 0
 -285 -701 -244 -676 -161 -584 c 0
 71 -326 211 93 276 93 c 0
 283 93 286 88 286 80 c 0
 286 37 206 -106 125 -254 c 0
 -57 -584 -279 -883 -466 -883 c 0
 -563 -883 -653 -800 -653 -685 c 0
 -653 -501 -395 -439 -356 -439 c 0
 -347 -439 -337 -441 -337 -448 c 0
 -337 -471 -422 -507 -427 -513 c 0
 -444 -532 -452 -557 -452 -582 c 0
EndSplineSet
EndChar

StartChar: uniE04D.long
Encoding: 65719 -1 384
Width: 0
VWidth: 0
Flags: HW
LayerCount: 2
Fore
SplineSet
-519 -730 m 0
 -519 -787 -480 -849 -407 -849 c 0
 -343 -849 -296 -804 -259 -769 c 0
 74 -450 278 92 349 92 c 0
 352 92 357 90 357 79 c 0
 357 34 294 -66 164 -290 c 1
 28 -519 -89 -683 -218 -823 c 0
 -302 -914 -409 -1026 -535 -1026 c 0
 -640 -1026 -724 -938 -724 -827 c 0
 -724 -643 -464 -586 -421 -586 c 0
 -404 -586 -397 -591 -400 -599 c 0
 -409 -624 -484 -651 -490 -656 c 0
 -509 -674 -519 -702 -519 -730 c 0
EndSplineSet
EndChar

StartChar: uniE040.norm
Encoding: 65720 -1 385
Width: 0
VWidth: 0
Flags: HW
LayerCount: 2
Fore
SplineSet
166 1300 m 0
 186 1300 207 1268 274 1204 c 0
 292 1187 301 1176 301 1165 c 0
 301 1143 265 1121 198 1050 c 0
 181 1032 179 1032 166 1032 c 0
 143 1032 149 1042 51 1134 c 0
 37 1147 32 1156 32 1165 c 0
 32 1178 44 1189 59 1204 c 0
 126 1268 146 1300 166 1300 c 0
-167 1300 m 0
 -147 1300 -126 1268 -59 1204 c 0
 -41 1187 -32 1176 -32 1165 c 0
 -32 1143 -68 1121 -135 1050 c 0
 -152 1032 -153 1032 -166 1032 c 0
 -189 1032 -183 1042 -281 1134 c 0
 -295 1147 -301 1157 -301 1166 c 0
 -301 1179 -289 1189 -274 1204 c 0
 -207 1268 -187 1300 -167 1300 c 0
0 1581 m 0
 21 1581 41 1549 107 1486 c 0
 126 1468 135 1458 135 1447 c 0
 135 1426 100 1404 32 1332 c 0
 15 1314 13 1313 0 1313 c 0
 -23 1313 -17 1323 -115 1415 c 0
 -129 1428 -134 1438 -134 1447 c 0
 -134 1461 -121 1472 -107 1486 c 0
 -41 1549 -20 1581 0 1581 c 0
EndSplineSet
EndChar

StartChar: uniE041.norm
Encoding: 65721 -1 386
Width: 0
VWidth: 0
Flags: HW
LayerCount: 2
Fore
SplineSet
0 -428 m 0
 20 -428 40 -460 107 -524 c 0
 126 -542 135 -552 135 -563 c 0
 135 -584 100 -606 32 -678 c 0
 15 -696 13 -696 0 -696 c 0
 -23 -696 -17 -686 -115 -594 c 0
 -129 -581 -134 -572 -134 -563 c 0
 -134 -550 -122 -539 -107 -524 c 0
 -40 -460 -20 -428 0 -428 c 0
166 -147 m 0
 187 -147 208 -179 274 -242 c 0
 292 -259 301 -270 301 -281 c 0
 301 -303 265 -325 198 -396 c 0
 181 -414 179 -415 166 -415 c 0
 143 -415 149 -405 51 -313 c 0
 37 -300 32 -290 32 -281 c 0
 32 -267 45 -256 59 -242 c 0
 125 -179 145 -147 166 -147 c 0
-167 -147 m 0
 -146 -147 -125 -179 -59 -242 c 0
 -41 -259 -32 -270 -32 -281 c 0
 -32 -303 -68 -325 -135 -396 c 0
 -152 -414 -153 -415 -166 -415 c 0
 -189 -415 -183 -405 -281 -313 c 0
 -295 -300 -301 -289 -301 -280 c 0
 -301 -267 -289 -257 -274 -242 c 0
 -208 -179 -188 -147 -167 -147 c 0
EndSplineSet
EndChar

StartChar: uniE056.norm
Encoding: 65722 -1 387
Width: 0
VWidth: 0
Flags: HW
LayerCount: 2
Fore
SplineSet
0 1300 m 0
 20 1300 40 1268 107 1204 c 0
 126 1186 135 1176 135 1165 c 0
 135 1144 100 1122 32 1050 c 0
 15 1032 13 1032 0 1032 c 0
 -23 1032 -17 1042 -115 1134 c 0
 -129 1147 -134 1156 -134 1165 c 0
 -134 1178 -122 1189 -107 1204 c 0
 -40 1268 -20 1300 0 1300 c 0
166 1581 m 0
 187 1581 208 1549 274 1486 c 0
 292 1469 301 1458 301 1447 c 0
 301 1425 265 1403 198 1332 c 0
 181 1314 179 1313 166 1313 c 0
 143 1313 149 1323 51 1415 c 0
 37 1428 32 1438 32 1447 c 0
 32 1461 45 1472 59 1486 c 0
 125 1549 145 1581 166 1581 c 0
-167 1581 m 0
 -146 1581 -125 1549 -59 1486 c 0
 -41 1469 -32 1458 -32 1447 c 0
 -32 1425 -68 1403 -135 1332 c 0
 -152 1314 -153 1313 -166 1313 c 0
 -189 1313 -183 1323 -281 1415 c 0
 -295 1428 -301 1439 -301 1448 c 0
 -301 1461 -289 1471 -274 1486 c 0
 -208 1549 -188 1581 -167 1581 c 0
EndSplineSet
EndChar

StartChar: uniE042.norm
Encoding: 65723 -1 388
Width: 0
VWidth: 0
Flags: HW
LayerCount: 2
Fore
SplineSet
192 1301 m 0
 213 1301 234 1269 301 1205 c 0
 319 1187 328 1176 328 1165 c 0
 328 1144 295 1124 231 1057 c 0
 213 1039 202 1029 191 1029 c 0
 171 1029 150 1063 75 1134 c 0
 61 1147 56 1156 56 1165 c 0
 56 1178 68 1189 83 1204 c 0
 150 1268 171 1301 192 1301 c 0
-192 1301 m 0
 -171 1301 -150 1269 -83 1205 c 0
 -65 1187 -56 1176 -56 1165 c 0
 -56 1144 -89 1124 -153 1057 c 0
 -171 1038 -181 1029 -192 1029 c 0
 -213 1029 -235 1063 -309 1134 c 0
 -323 1147 -328 1156 -328 1165 c 0
 -328 1178 -316 1189 -301 1204 c 0
 -234 1268 -213 1301 -192 1301 c 0
EndSplineSet
EndChar

StartChar: uniE043.norm
Encoding: 65724 -1 389
Width: 0
VWidth: 0
Flags: HW
LayerCount: 2
Fore
SplineSet
192 -145 m 0
 213 -145 233 -177 301 -242 c 0
 319 -259 328 -270 328 -281 c 0
 328 -302 296 -323 231 -390 c 0
 213 -408 202 -418 191 -418 c 0
 171 -418 150 -384 75 -313 c 0
 61 -300 56 -290 56 -281 c 0
 56 -266 70 -255 83 -242 c 0
 150 -178 171 -145 192 -145 c 0
-192 -145 m 0
 -171 -145 -151 -177 -83 -242 c 0
 -65 -259 -56 -270 -56 -281 c 0
 -56 -302 -88 -323 -153 -390 c 0
 -170 -408 -181 -417 -192 -417 c 0
 -213 -417 -236 -383 -309 -313 c 0
 -323 -300 -328 -290 -328 -281 c 0
 -328 -267 -315 -256 -301 -242 c 0
 -234 -178 -213 -145 -192 -145 c 0
EndSplineSet
EndChar

StartChar: uniE044.norm
Encoding: 65725 -1 390
Width: 0
VWidth: 0
Flags: HW
LayerCount: 2
Fore
SplineSet
0 1309 m 0
 20 1309 41 1272 120 1199 c 0
 140 1181 142 1179 142 1165 c 0
 142 1139 129 1147 34 1045 c 0
 16 1025 14 1023 0 1023 c 0
 -26 1023 -18 1036 -120 1131 c 0
 -134 1144 -143 1154 -143 1165 c 0
 -143 1175 -136 1185 -120 1199 c 0
 -40 1273 -20 1309 0 1309 c 0
EndSplineSet
EndChar

StartChar: uniE045.norm
Encoding: 65726 -1 391
Width: 0
VWidth: 0
Flags: HW
LayerCount: 2
Fore
SplineSet
0 -138 m 0
 21 -138 41 -174 120 -247 c 0
 140 -265 142 -267 142 -281 c 0
 142 -307 129 -300 34 -402 c 0
 16 -422 14 -423 0 -423 c 0
 -26 -423 -18 -410 -120 -315 c 0
 -134 -302 -143 -292 -143 -281 c 0
 -143 -271 -136 -261 -120 -247 c 0
 -41 -174 -21 -138 0 -138 c 0
EndSplineSet
EndChar

StartChar: uniE05A.norm
Encoding: 65727 -1 392
Width: 0
VWidth: 0
Flags: HW
LayerCount: 2
Fore
SplineSet
-0 578 m 0
 21 578 42 543 116 474 c 0
 129 462 135 452 135 442 c 0
 135 417 97 394 39 333 c 0
 22 315 12 306 1 306 c 0
 -20 306 -43 341 -116 410 c 0
 -130 424 -136 434 -136 443 c 0
 -136 456 -124 466 -108 482 c 0
 -41 546 -21 578 -0 578 c 0
EndSplineSet
EndChar

StartChar: uniE05A.conu
Encoding: 65728 -1 393
Width: 0
VWidth: 0
Flags: HW
LayerCount: 2
Fore
SplineSet
116 866 m 0
 130 866 129 862 129 852 c 0
 129 847 120 523 117 514 c 0
 101 467 -20 370 -58 370 c 0
 -77 370 -64 376 -79 748 c 1
 -54 798 75 866 116 866 c 0
EndSplineSet
EndChar

StartChar: uniE05A.cond
Encoding: 65729 -1 394
Width: 0
VWidth: 0
Flags: HW
LayerCount: 2
Fore
SplineSet
-116 18 m 0
 -129 18 -129 22 -129 32 c 0
 -129 37 -120 361 -117 370 c 0
 -102 416 21 514 56 514 c 0
 79 514 64 509 79 136 c 1
 54 85 -76 18 -116 18 c 0
EndSplineSet
EndChar

StartChar: uniE046.norm
Encoding: 65730 -1 395
Width: 0
VWidth: 0
Flags: HW
LayerCount: 2
Fore
SplineSet
-116 1094 m 0
 -122 1094 -125 1096 -125 1101 c 0
 -125 1118 143 1511 143 1511 c 1
 191 1561 295 1600 331 1600 c 0
 339 1600 344 1598 344 1594 c 0
 344 1583 58 1203 58 1203 c 1
 24 1162 -84 1094 -116 1094 c 0
EndSplineSet
EndChar

StartChar: uniE046.double_norm
Encoding: 65731 -1 396
Width: 0
VWidth: 0
Flags: HW
LayerCount: 2
Fore
SplineSet
29 1101 m 0
 29 1115 296 1511 296 1511 c 1
 344 1562 448 1600 485 1600 c 0
 493 1600 498 1598 498 1594 c 0
 498 1583 211 1203 211 1203 c 1
 177 1162 70 1094 38 1094 c 0
 32 1094 29 1096 29 1101 c 0
-279 1101 m 0
 -279 1116 -11 1511 -11 1511 c 1
 34 1560 139 1600 177 1600 c 0
 186 1600 191 1598 191 1593 c 0
 191 1585 189 1587 -8 1321 c 0
 -103 1192 -101 1191 -150 1154 c 0
 -208 1111 -249 1094 -268 1094 c 0
 -275 1094 -279 1096 -279 1101 c 0
EndSplineSet
EndChar

StartChar: uniE047.norm
Encoding: 65732 -1 397
Width: 0
VWidth: 0
Flags: HW
LayerCount: 2
Fore
SplineSet
125 -218 m 0
 125 -233 -143 -627 -143 -627 c 1
 -190 -678 -292 -716 -330 -716 c 0
 -339 -716 -345 -714 -345 -709 c 0
 -345 -701 -343 -703 -146 -437 c 0
 -60 -322 -47 -293 43 -239 c 0
 61 -228 97 -210 115 -210 c 0
 121 -210 125 -212 125 -218 c 0
EndSplineSet
EndChar

StartChar: uniE047.double_norm
Encoding: 65733 -1 398
Width: 0
VWidth: 0
Flags: HW
LayerCount: 2
Fore
SplineSet
-177 -717 m 0
 -186 -717 -191 -715 -191 -710 c 0
 -191 -702 -189 -703 8 -437 c 0
 94 -322 107 -293 197 -239 c 0
 217 -228 252 -209 269 -209 c 0
 275 -209 279 -211 279 -217 c 0
 279 -225 265 -243 26 -606 c 0
 -15 -668 -135 -717 -177 -717 c 0
-29 -217 m 0
 -29 -232 -296 -627 -296 -627 c 1
 -343 -677 -446 -716 -484 -716 c 0
 -493 -716 -498 -714 -498 -709 c 0
 -498 -699 -213 -321 -211 -319 c 0
 -167 -265 -67 -211 -37 -211 c 0
 -32 -211 -29 -213 -29 -217 c 0
EndSplineSet
EndChar

StartChar: uniE054.norm
Encoding: 65734 -1 399
Width: 0
VWidth: 0
Flags: HW
LayerCount: 2
Fore
SplineSet
-362 1579 m 0
 -362 1584 -357 1586 -348 1586 c 0
 -311 1586 -213 1548 -163 1498 c 0
 -152 1487 -151 1485 109 1133 c 0
 121 1117 126 1106 126 1100 c 0
 126 1095 122 1092 116 1092 c 0
 87 1092 2 1144 -43 1189 c 1
 -43 1189 -362 1566 -362 1579 c 0
EndSplineSet
EndChar

StartChar: uniE050.norm
Encoding: 65735 -1 400
Width: 0
VWidth: 0
Flags: HW
LayerCount: 2
Fore
SplineSet
61 1008 m 0
 -16.5014290869 1008 -521 1016.14932787 -521 1049 c 0
 -521 1083 -380 1187 -337 1187 c 0
 -296 1187 -340 1151 162 1151 c 0
 503 1151 458 1182 510 1182 c 0
 516 1182 520 1180 520 1174 c 0
 520 1143 412 1056 354 1037 c 0
 286 1015 179 1008 61 1008 c 0
EndSplineSet
EndChar

StartChar: uniE050.lambe
Encoding: 65736 -1 401
Width: 0
VWidth: 0
Flags: HW
LayerCount: 2
Fore
SplineSet
15 1007 m 0
 -327 1007 -702 1026 -702 1049 c 0
 -702 1083 -562 1187 -518 1187 c 0
 -470 1187 -471 1149 147 1149 c 0
 655 1149 636 1182 692 1182 c 0
 698 1182 701 1179 701 1175 c 0
 701 1152 616 1073 553 1043 c 0
 499 1017 266 1007 15 1007 c 0
EndSplineSet
EndChar

StartChar: uniE050.wide
Encoding: 65737 -1 402
Width: 0
VWidth: 0
Flags: HW
LayerCount: 2
Fore
SplineSet
-864 1049 m 0
 -864 1080 -727 1187 -679 1187 c 0
 -625 1187 -581 1148 174 1148 c 0
 686 1148 820 1181 853 1181 c 0
 860 1181 863 1179 863 1175 c 0
 863 1148 748 1042 671 1032 c 0
 518 1013 289 1006 55 1006 c 0
 -389 1006 -853 1031 -862 1044 c 0
 -863 1045 -864 1047 -864 1049 c 0
EndSplineSet
EndChar

StartChar: uniE050.silme
Encoding: 65738 -1 403
Width: 0
VWidth: 0
Flags: HW
LayerCount: 2
Fore
SplineSet
-236 1187 m 0
 -203 1187 -239 1151 176 1151 c 0
 299 1151 334 1158 374 1172 c 0
 398 1181 419 1187 419 1175 c 0
 419 1149 341 1078 273 1045 c 0
 216 1017 138 1009 40 1009 c 0
 37 1009 -420 1012 -420 1049 c 0
 -420 1084 -279 1187 -236 1187 c 0
EndSplineSet
EndChar

StartChar: uniE051.roomen
Encoding: 65739 -1 404
Width: 0
VWidth: 0
Flags: HW
LayerCount: 2
Fore
SplineSet
235 -305 m 0
 186 -305 -157 -299 -255 -299 c 0
 -352 -299 -391 -303 -408 -303 c 0
 -419 -303 -420 -301 -420 -296 c 0
 -420 -264 -286 -157 -231 -157 c 0
 -175 -157 -203 -161 51 -161 c 0
 286 -161 371 -155 402 -155 c 0
 419 -155 419 -157 419 -163 c 0
 419 -199 279 -305 235 -305 c 0
EndSplineSet
EndChar

StartChar: uniE051.lambe
Encoding: 65740 -1 405
Width: 0
VWidth: 0
Flags: HW
LayerCount: 2
Fore
SplineSet
88 -161 m 0
 387 -161 278 -155 430 -155 c 0
 453 -155 459 -155 459 -163 c 0
 459 -196 325 -304 276 -304 c 0
 -87 -304 -216 -299 -281 -299 c 0
 -385 -299 -429 -303 -447 -303 c 0
 -459 -303 -460 -301 -460 -296 c 0
 -460 -262 -322 -157 -274 -157 c 0
 -202 -157 -274 -161 88 -161 c 0
EndSplineSet
EndChar

StartChar: uniE051.norm
Encoding: 65741 -1 406
Width: 0
VWidth: 0
Flags: HW
LayerCount: 2
Fore
SplineSet
88 -161 m 0
 341 -161 447 -154 491 -154 c 0
 515 -154 520 -156 520 -163 c 0
 520 -197 385 -304 334 -304 c 0
 269 -304 -186 -299 -316 -299 c 0
 -438 -299 -487 -303 -507 -303 c 0
 -521 -303 -521 -301 -521 -295 c 0
 -521 -261 -382 -157 -334 -157 c 0
 -250 -157 -334 -161 88 -161 c 0
EndSplineSet
EndChar

StartChar: uniE051.wide
Encoding: 65742 -1 407
Width: 0
VWidth: 0
Flags: HW
LayerCount: 2
Fore
SplineSet
182 -164 m 0
 468 -164 679 -153 785 -153 c 0
 836 -153 863 -156 863 -163 c 0
 863 -193 733 -304 676 -304 c 0
 656 -304 596 -300 477 -300 c 0
 336 -300 337 -305 125 -305 c 0
 -131 -305 -387 -299 -515 -299 c 0
 -724 -299 -807 -303 -841 -303 c 0
 -864 -303 -864 -301 -864 -295 c 0
 -864 -269 -771 -189 -704 -163 c 0
 -694 -159 -669 -157 -617 -157 c 0
 -506 -157 -274 -164 182 -164 c 0
EndSplineSet
EndChar

StartChar: uniE051.silme
Encoding: 65743 -1 408
Width: 0
VWidth: 0
Flags: HW
LayerCount: 2
Fore
SplineSet
235 -305 m 0
 186 -305 -157 -299 -255 -299 c 0
 -352 -299 -391 -303 -408 -303 c 0
 -419 -303 -420 -301 -420 -296 c 0
 -420 -264 -286 -157 -231 -157 c 0
 -175 -157 -203 -161 51 -161 c 0
 286 -161 371 -155 402 -155 c 0
 419 -155 419 -157 419 -163 c 0
 419 -199 279 -305 235 -305 c 0
EndSplineSet
EndChar

StartChar: uniE049.norm
Encoding: 65744 -1 409
Width: 0
VWidth: 0
Flags: HW
LayerCount: 2
Fore
SplineSet
-199 -644 m 0
 -204 -644 -208 -642 -208 -636 c 0
 -208 -613 -153 -557 -104 -522 c 0
 -93 -514 314 -250 331 -239 c 0
 368 -217 385 -218 385 -227 c 0
 385 -252 326 -312 270 -350 c 0
 257 -359 -148 -622 -155 -626 c 0
 -168 -634 -188 -644 -199 -644 c 0
-376 -495 m 0
 -382 -495 -385 -492 -385 -489 c 0
 -385 -464 -326 -404 -270 -366 c 0
 -257 -357 148 -94 155 -90 c 0
 163 -85 186 -72 199 -72 c 0
 204 -72 208 -74 208 -80 c 0
 208 -103 155 -159 104 -195 c 0
 93 -203 -314 -466 -331 -477 c 0
 -352 -490 -367 -495 -376 -495 c 0
EndSplineSet
EndChar

StartChar: uniE053.norm
Encoding: 65745 -1 410
Width: 0
VWidth: 0
Flags: HW
LayerCount: 2
Fore
SplineSet
-88 1365 m 0
 -62 1365 -69 1223 118 1211 c 1
 181 1279 272 1379 311 1379 c 0
 315 1379 320 1377 320 1371 c 0
 320 1336 115 1068 -54 1068 c 0
 -216 1068 -275 1207 -275 1230 c 0
 -275 1263 -134 1365 -88 1365 c 0
EndSplineSet
EndChar

StartChar: uniE053.wide
Encoding: 65746 -1 411
Width: 0
VWidth: 0
Flags: HW
LayerCount: 2
Fore
SplineSet
-340 1230 m 0
 -340 1263 -201 1365 -153 1365 c 0
 -137 1365 -136 1328 -64 1274 c 0
 -16 1238 47 1212 120 1212 c 0
 233 1212 258 1284 347 1352 c 0
 371 1370 389 1379 399 1379 c 0
 404 1379 407 1376 407 1371 c 0
 407 1326 173 1068 -45 1068 c 0
 -235 1068 -340 1214 -340 1230 c 0
EndSplineSet
EndChar

StartChar: uniE055.norm
Encoding: 65747 -1 412
Width: 0
VWidth: 0
Flags: HW
LayerCount: 2
Fore
SplineSet
-165 1437 m 0
 -172 1437 -175 1440 -175 1446 c 0
 -175 1482 -54 1610 -6 1610 c 0
 209 1610 197 1226 400 1226 c 0
 407 1226 410 1223 410 1217 c 0
 410 1181 290 1053 242 1053 c 0
 120 1053 66 1184 16 1281 c 1
 -188 1060 -341 1045 -348 1045 c 0
 -354 1045 -357 1047 -357 1052 c 0
 -357 1081 -245 1189 -191 1202 c 0
 -133 1216 -122 1223 -112 1234 c 0
 -85 1264 -25 1346 -25 1350 c 1
 -25 1350 -75 1437 -165 1437 c 0
EndSplineSet
EndChar

StartChar: uniE052.narrow
Encoding: 65748 -1 413
Width: 0
VWidth: 0
Flags: HW
LayerCount: 2
Fore
SplineSet
152 970 m 0
 152 1004 139 1079 48 1079 c 0
 1 1079 -70 1074 -188 1074 c 0
 -328 1074 -360 1177 -360 1225 c 0
 -360 1357 -153 1499 -107 1499 c 0
 -101 1499 -98 1497 -98 1492 c 0
 -98 1464 -158 1420 -162 1406 c 0
 -165 1394 -167 1381 -167 1368 c 0
 -167 1290 -105 1214 -8 1214 c 0
 41 1214 190 1228 239 1228 c 0
 314 1228 333 1170 333 1127 c 0
 333 1004 151 850 113 850 c 0
 108 850 106 852 106 857 c 0
 106 891 152 904 152 970 c 0
EndSplineSet
EndChar

StartChar: uniE052.norm
Encoding: 65749 -1 414
Width: 0
VWidth: 0
Flags: HW
LayerCount: 2
Fore
SplineSet
-271 1073 m 0
 -469 1073 -509 1199 -509 1254 c 0
 -509 1369 -317 1498 -274 1498 c 0
 -268 1498 -265 1495 -265 1491 c 0
 -265 1478 -289 1450 -314 1424 c 1
 -316 1414 -317 1404 -317 1394 c 0
 -317 1303 -237 1214 -90 1214 c 0
 26 1214 250 1228 372 1228 c 0
 455 1228 490 1172 490 1109 c 0
 490 997 317 850 279 850 c 0
 274 850 272 852 272 857 c 0
 272 887 310 898 310 951 c 0
 310 1023 262 1067 216 1077 c 0
 208 1078 183 1079 149 1079 c 0
 33 1079 -195 1073 -271 1073 c 0
EndSplineSet
EndChar

StartChar: uniE052.wide
Encoding: 65750 -1 415
Width: 0
VWidth: 0
Flags: HW
LayerCount: 2
Fore
SplineSet
466 1228 m 0
 601 1228 612 1131 612 1103 c 0
 612 984 444 851 407 851 c 0
 402 851 400 853 400 857 c 0
 400 885 433 895 433 942 c 0
 433 977 416 1057 314 1079 c 1
 39 1079 -140 1074 -263 1074 c 0
 -451 1074 -508 1086 -575 1151 c 0
 -627 1202 -630 1248 -630 1269 c 0
 -630 1375 -447 1496 -403 1496 c 0
 -397 1496 -393 1494 -393 1489 c 0
 -393 1480 -406 1460 -437 1429 c 1
 -438 1422 -439 1414 -439 1407 c 0
 -439 1305 -335 1215 -153 1215 c 0
 -5 1215 351 1228 466 1228 c 0
EndSplineSet
EndChar

StartChar: uniE02C.lig
Encoding: 65751 -1 416
Width: 0
VWidth: 0
Flags: HW
LayerCount: 2
Fore
SplineSet
-95 -227 m 0
 -95 -177 48 -77 85 -77 c 0
 97 -77 95 -83 96 -108 c 0
 101 -248 104 -387 104 -573 c 0
 104 -668 96 -703 22 -752 c 0
 -43 -794 -111 -817 -141 -817 c 0
 -151 -817 -157 -815 -157 -809 c 0
 -157 -801 -145 -788 -116 -768 c 0
 -97 -755 -93 -635 -93 -498 c 0
 -93 -406 -95 -306 -95 -227 c 0
EndSplineSet
EndChar

StartChar: uniE02C.lig_lambe
Encoding: 65752 -1 417
Width: 0
VWidth: 0
Flags: HW
LayerCount: 2
Fore
SplineSet
-95 222 m 0
 -95 268 47 371 85 371 c 0
 98 371 96 362 98 290 c 0
 107 29 107 -232 107 -363 c 0
 107 -633 104 -692 15 -751 c 0
 -42 -789 -118 -818 -149 -818 c 0
 -158 -818 -164 -815 -164 -810 c 0
 -164 -795 -130 -777 -124 -764 c 0
 -96 -702 -89 -476 -89 -255 c 0
 -89 -47 -95 158 -95 222 c 0
EndSplineSet
EndChar

StartChar: uniE059.norm
Encoding: 65753 -1 418
Width: 0
VWidth: 0
Flags: HW
LayerCount: 2
Fore
SplineSet
22 64 m 0
 22 15 -138 -29 -138 -178 c 0
 -138 -272 -64 -353 42 -353 c 0
 85 -353 145 -310 167 -310 c 0
 172 -310 175 -313 175 -319 c 0
 175 -353 0 -497 -137 -497 c 0
 -244 -497 -335 -419 -335 -307 c 0
 -335 -128 -49 73 11 73 c 0
 18 73 22 70 22 64 c 0
EndSplineSet
EndChar

StartChar: uniE060
Encoding: 57440 57440 419
Width: 530
VWidth: 0
Flags: HW
LayerCount: 2
Fore
SplineSet
264 586 m 0
 286 586 310 553 380 483 c 0
 404 460 408 457 408 442 c 0
 408 425 411 432 297 318 c 0
 280 300 276 299 265 299 c 2
 262 299 l 2
 251 299 248 302 150 401 c 0
 130 420 120 431 120 442 c 0
 120 453 130 463 150 483 c 0
 220 550 241 586 264 586 c 0
EndSplineSet
EndChar

StartChar: uniE061
Encoding: 57441 57441 420
Width: 530
VWidth: 0
Flags: HW
LayerCount: 2
Fore
SplineSet
265 321 m 0
 287 321 308 287 381 217 c 0
 399 200 408 188 408 176 c 0
 408 152 369 128 298 53 c 0
 285 39 275 33 265 33 c 0
 240 33 216 73 149 137 c 0
 130 155 120 166 120 177 c 0
 120 188 129 198 149 217 c 0
 222 287 243 321 265 321 c 0
265 851 m 0
 287 851 308 817 381 747 c 0
 399 730 408 718 408 706 c 0
 408 682 369 658 298 583 c 0
 285 569 275 563 265 563 c 0
 240 563 216 603 149 667 c 0
 130 685 120 696 120 707 c 0
 120 718 129 728 149 747 c 0
 222 817 243 851 265 851 c 0
EndSplineSet
EndChar

StartChar: uniE062
Encoding: 57442 57442 421
Width: 530
VWidth: 0
Flags: HW
LayerCount: 2
Fore
SplineSet
265 145 m 0
 286 145 308 110 381 40 c 0
 399 23 408 11 408 -0 c 0
 408 -24 370 -47 298 -123 c 0
 281 -141 278 -143 265 -143 c 0
 242 -143 248 -134 149 -40 c 0
 130 -22 120 -11 120 -0 c 0
 120 11 129 21 149 40 c 0
 222 110 244 145 265 145 c 0
264 586 m 0
 286 586 310 553 380 483 c 0
 404 460 408 457 408 442 c 0
 408 425 411 432 297 318 c 0
 280 300 276 299 265 299 c 2
 262 299 l 2
 251 299 248 302 150 401 c 0
 130 420 120 431 120 442 c 0
 120 453 130 463 150 483 c 0
 220 550 241 586 264 586 c 0
265 1028 m 0
 286 1028 308 993 381 923 c 0
 404 901 408 900 408 884 c 0
 408 861 399 866 298 760 c 0
 285 746 275 740 265 740 c 0
 240 740 216 780 149 844 c 0
 130 862 120 872 120 883 c 0
 120 894 130 905 149 923 c 0
 222 993 244 1028 265 1028 c 0
EndSplineSet
EndChar

StartChar: uni10FB
Encoding: 4347 4347 422
Width: 883
VWidth: 0
Flags: HW
LayerCount: 2
Fore
SplineSet
265 321 m 0
 287 321 308 287 381 217 c 0
 399 200 408 188 408 176 c 0
 408 152 369 128 298 53 c 0
 285 39 275 33 265 33 c 0
 240 33 216 73 149 137 c 0
 130 155 120 166 120 177 c 0
 120 188 129 198 149 217 c 0
 222 287 243 321 265 321 c 0
617 586 m 0
 639 586 663 553 733 483 c 0
 752 465 763 455 763 443 c 0
 763 423 731 398 651 318 c 0
 639 305 630 299 620 299 c 0
 597 299 571 333 503 401 c 0
 483 420 474 431 474 442 c 0
 474 453 484 464 503 483 c 0
 573 550 594 586 617 586 c 0
265 851 m 0
 287 851 308 817 381 747 c 0
 399 730 408 718 408 706 c 0
 408 682 369 658 298 583 c 0
 285 569 275 563 265 563 c 0
 240 563 216 603 149 667 c 0
 130 685 120 696 120 707 c 0
 120 718 129 728 149 747 c 0
 222 817 243 851 265 851 c 0
EndSplineSet
EndChar

StartChar: uni2E2C
Encoding: 11820 11820 423
Width: 1060
VWidth: 0
Flags: HW
LayerCount: 2
Fore
SplineSet
795 321 m 0
 817 321 838 287 911 217 c 0
 929 200 938 188 938 176 c 0
 938 152 899 128 828 53 c 0
 815 39 805 33 795 33 c 0
 770 33 746 73 679 137 c 0
 660 155 650 166 650 177 c 0
 650 188 659 198 679 217 c 0
 752 287 773 321 795 321 c 0
265 321 m 0
 287 321 308 287 381 217 c 0
 399 200 408 188 408 176 c 0
 408 152 369 128 298 53 c 0
 285 39 275 33 265 33 c 0
 240 33 216 73 149 137 c 0
 130 155 120 166 120 177 c 0
 120 188 129 198 149 217 c 0
 222 287 243 321 265 321 c 0
795 851 m 0
 817 851 838 817 911 747 c 0
 929 730 938 718 938 706 c 0
 938 682 899 658 828 583 c 0
 815 569 805 563 795 563 c 0
 770 563 746 603 679 667 c 0
 660 685 650 696 650 707 c 0
 650 718 659 728 679 747 c 0
 752 817 773 851 795 851 c 0
265 851 m 0
 287 851 308 817 381 747 c 0
 399 730 408 718 408 706 c 0
 408 682 369 658 298 583 c 0
 285 569 275 563 265 563 c 0
 240 563 216 603 149 667 c 0
 130 685 120 696 120 707 c 0
 120 718 129 728 149 747 c 0
 222 817 243 851 265 851 c 0
EndSplineSet
EndChar

StartChar: uniE063
Encoding: 57443 57443 424
Width: 1236
VWidth: 0
Flags: HW
LayerCount: 2
Fore
SplineSet
618 321 m 0
 640 321 663 286 735 217 c 0
 753 200 762 188 762 177 c 0
 762 153 724 129 651 53 c 0
 638 39 628 33 618 33 c 0
 593 33 569 73 502 137 c 0
 484 154 474 166 474 177 c 0
 474 188 483 199 502 217 c 0
 574 286 596 321 618 321 c 0
971 586 m 0
 993 586 1017 553 1087 483 c 0
 1111 460 1115 457 1115 442 c 0
 1115 425 1118 432 1004 318 c 0
 992 305 983 299 973 299 c 0
 950 299 924 333 856 401 c 0
 836 420 827 431 827 442 c 0
 827 453 837 464 856 483 c 0
 926 550 948 586 971 586 c 0
264 586 m 0
 286 586 310 553 380 483 c 0
 404 460 408 457 408 442 c 0
 408 425 411 432 297 318 c 0
 280 300 276 299 265 299 c 2
 262 299 l 2
 251 299 248 302 150 401 c 0
 130 420 120 431 120 442 c 0
 120 453 130 463 150 483 c 0
 220 550 241 586 264 586 c 0
618 851 m 0
 640 851 663 816 735 747 c 0
 753 730 762 718 762 707 c 0
 762 683 724 659 651 583 c 0
 638 569 628 563 618 563 c 0
 593 563 569 603 502 667 c 0
 484 684 474 696 474 707 c 0
 474 718 483 729 502 747 c 0
 574 816 596 851 618 851 c 0
EndSplineSet
EndChar

StartChar: uniE064
Encoding: 57444 57444 425
Width: 1412
VWidth: 0
Flags: HW
LayerCount: 2
Fore
SplineSet
706 146 m 0
 727 146 749 109 829 35 c 0
 849 17 850 14 850 0 c 0
 850 -26 838 -17 741 -122 c 0
 728 -136 718 -143 708 -143 c 0
 683 -143 657 -101 584 -34 c 0
 570 -21 562 -10 562 1 c 0
 562 11 569 22 584 35 c 0
 663 109 685 146 706 146 c 0
1147 586 m 0
 1169 586 1193 553 1263 483 c 0
 1282 465 1293 455 1293 443 c 0
 1293 423 1261 398 1181 318 c 0
 1169 305 1160 299 1150 299 c 0
 1127 299 1101 333 1033 401 c 0
 1013 420 1004 431 1004 442 c 0
 1004 453 1014 464 1033 483 c 0
 1103 550 1124 586 1147 586 c 0
707 586 m 0
 729 586 751 550 830 475 c 0
 844 462 850 452 850 442 c 0
 850 417 810 393 746 326 c 0
 724 303 723 299 707 299 c 0
 684 299 689 308 583 409 c 0
 568 423 562 433 562 442 c 0
 562 455 574 466 592 483 c 0
 664 551 686 586 707 586 c 0
264 586 m 0
 286 586 310 553 380 483 c 0
 404 460 408 457 408 442 c 0
 408 425 411 432 297 318 c 0
 280 300 276 299 265 299 c 2
 262 299 l 2
 251 299 248 302 150 401 c 0
 130 420 120 431 120 442 c 0
 120 453 130 463 150 483 c 0
 220 550 241 586 264 586 c 0
706 1029 m 0
 727 1029 749 992 829 918 c 0
 843 905 850 895 850 885 c 0
 850 860 808 834 741 761 c 0
 728 747 718 740 708 740 c 0
 683 740 657 782 584 849 c 0
 570 862 562 873 562 884 c 0
 562 894 569 905 584 918 c 0
 663 992 685 1029 706 1029 c 0
EndSplineSet
EndChar

StartChar: uniE065
Encoding: 57445 57445 426
Width: 617
VWidth: 0
Flags: HW
LayerCount: 2
Fore
SplineSet
300 579 m 0
 300 787 133 1063 133 1275 c 0
 133 1387 176 1469 263 1556 c 0
 321 1614 393 1664 418 1664 c 0
 424 1664 427 1661 427 1656 c 0
 427 1641 399 1608 371 1582 c 0
 335 1549 319 1484 319 1420 c 0
 319 1198 485 948 485 726 c 0
 485 614 442 532 355 445 c 0
 309 399 226 336 199 336 c 0
 193 336 190 339 190 345 c 0
 190 368 263 437 263 437 c 1
 290 478 300 527 300 579 c 0
EndSplineSet
EndChar

